{"glyphs":{"0":{"ha":745,"x_min":49,"x_max":695,"o":"m 695 726 l 695 726 l 695 360 q 695 235 682 178 q 668 121 625 72 q 583 22 522 1 q 462 -21 387 -21 l 387 -21 q 289 -21 224 2 q 159 24 120 73 q 81 121 65 174 q 49 227 49 343 l 49 343 l 49 726 q 49 878 75 953 q 101 1028 179 1074 q 256 1119 367 1119 l 367 1119 q 457 1119 528 1087 q 600 1056 635 1010 q 670 965 683 908 q 695 851 695 726 z m 421 275 l 421 819 q 421 906 413 928 q 404 950 373 950 l 373 950 q 342 950 333 927 q 323 903 323 819 l 323 819 l 323 283 q 323 187 332 168 q 341 148 372 148 l 372 148 q 402 148 412 171 q 421 194 421 275 l 421 275 z "},"1":{"ha":529,"x_min":8,"x_max":471,"o":"m 310 1098 l 471 1098 l 471 0 l 197 0 l 197 589 q 197 716 191 742 q 185 768 158 781 q 130 794 35 794 l 35 794 l 8 794 l 8 922 q 207 965 310 1098 l 310 1098 z "},"2":{"ha":697,"x_min":37,"x_max":664,"o":"m 339 187 l 640 187 l 640 0 l 37 0 l 37 157 q 304 595 355 699 q 406 803 406 861 l 406 861 q 406 906 390 928 q 375 950 344 950 l 344 950 q 313 950 297 926 q 282 901 282 829 l 282 829 l 282 724 l 37 724 l 37 764 q 37 857 46 910 q 56 963 93 1015 q 130 1066 190 1093 q 250 1119 333 1119 l 333 1119 q 496 1119 580 1038 q 664 957 664 833 l 664 833 q 664 739 617 633 q 570 528 339 187 l 339 187 z "},"3":{"ha":736,"x_min":41,"x_max":687,"o":"m 564 622 l 564 622 q 626 601 656 553 q 687 505 687 329 l 687 329 q 687 198 657 126 q 627 54 554 16 q 481 -22 366 -22 l 366 -22 q 236 -22 162 22 q 87 66 64 129 q 41 193 41 349 l 41 349 l 41 436 l 315 436 l 315 258 q 315 186 323 167 q 332 148 361 148 l 361 148 q 393 148 403 172 q 413 197 413 300 l 413 300 l 413 376 q 413 439 399 468 q 385 497 357 506 q 329 515 249 517 l 249 517 l 249 676 q 347 676 370 684 q 393 691 403 716 q 413 741 413 795 l 413 795 l 413 856 q 413 913 401 932 q 389 950 364 950 l 364 950 q 336 950 325 931 q 315 911 315 848 l 315 848 l 315 758 l 41 758 l 41 852 q 41 1009 113 1064 q 184 1120 341 1120 l 341 1120 q 537 1120 607 1043 q 677 966 677 830 l 677 830 q 677 738 652 697 q 627 656 564 622 z "},"4":{"ha":694,"x_min":8,"x_max":686,"o":"m 245 1098 l 608 1098 l 608 380 l 686 380 l 686 193 l 608 193 l 608 0 l 334 0 l 334 193 l 8 193 l 8 380 l 245 1098 z m 213 380 l 334 380 l 334 848 l 213 380 z "},"5":{"ha":745,"x_min":45,"x_max":701,"o":"m 59 1098 l 647 1098 l 647 922 l 307 922 l 307 736 q 371 811 471 811 l 471 811 q 585 811 643 748 q 701 684 701 504 l 701 504 l 701 347 q 701 231 689 176 q 678 121 642 75 q 605 28 539 4 q 474 -21 380 -21 l 380 -21 q 274 -21 193 16 q 113 53 79 126 q 45 199 45 353 l 45 353 l 45 412 l 319 412 l 319 344 q 319 237 326 193 q 334 148 378 148 l 378 148 q 398 148 411 161 q 423 174 424 189 q 425 203 427 318 l 427 318 l 427 536 q 427 597 414 620 q 401 642 371 642 l 371 642 q 352 642 339 631 q 326 619 322 606 q 319 593 319 545 l 319 545 l 47 545 l 59 1098 z "},"6":{"ha":752,"x_min":49,"x_max":707,"o":"m 707 806 l 707 806 l 433 806 q 433 883 431 903 q 429 923 415 937 q 400 950 375 950 l 375 950 q 354 950 340 937 q 327 924 325 904 q 323 884 323 822 l 323 822 l 323 647 q 344 691 385 713 q 425 735 485 735 l 485 735 q 560 735 618 694 q 675 654 691 597 q 707 540 707 443 l 707 443 l 707 355 q 707 240 698 184 q 689 127 651 80 q 612 32 546 5 q 479 -21 390 -21 l 390 -21 q 279 -21 209 9 q 138 40 100 97 q 62 155 55 218 q 49 281 49 463 l 49 463 l 49 614 q 49 810 55 877 q 60 943 102 1002 q 143 1061 215 1090 q 286 1120 380 1120 l 380 1120 q 495 1120 569 1082 q 643 1045 675 977 q 707 909 707 806 z m 433 258 l 433 464 q 433 522 420 544 q 407 566 378 566 l 378 566 q 349 566 336 545 q 323 524 323 464 l 323 464 l 323 265 q 323 193 335 170 q 348 148 377 148 l 377 148 q 395 148 414 165 q 433 182 433 258 l 433 258 z "},"7":{"ha":544,"x_min":8,"x_max":532,"o":"m 8 1098 l 532 1098 l 532 859 l 357 0 l 84 0 l 279 901 l 8 901 l 8 1098 z "},"8":{"ha":743,"x_min":45,"x_max":697,"o":"m 572 623 l 572 623 q 632 598 665 550 q 697 501 697 319 l 697 319 q 697 186 671 123 q 646 60 571 19 q 496 -21 371 -21 l 371 -21 q 249 -21 178 18 q 106 56 76 120 q 45 184 45 332 l 45 332 q 45 432 60 505 q 75 578 156 623 l 156 623 q 105 647 80 700 q 54 753 54 836 l 54 836 q 54 977 133 1048 q 212 1119 368 1119 l 368 1119 q 549 1119 618 1044 q 688 968 688 829 l 688 829 q 688 740 665 701 q 642 661 572 623 z m 418 783 l 418 859 q 418 914 408 932 q 398 950 370 950 l 370 950 q 343 950 334 931 q 324 911 324 859 l 324 859 l 324 775 q 324 726 335 707 q 346 688 372 688 l 372 688 q 399 688 408 706 q 418 725 418 783 l 418 783 z m 423 262 l 423 402 q 423 465 410 486 q 397 507 370 507 l 370 507 q 342 507 331 487 q 319 467 319 402 l 319 402 l 319 260 q 319 189 332 168 q 345 148 374 148 l 374 148 q 403 148 413 169 q 423 189 423 262 l 423 262 z "},"9":{"ha":752,"x_min":49,"x_max":707,"o":"m 49 292 l 49 292 l 323 292 q 323 215 325 195 q 327 175 341 161 q 356 148 381 148 l 381 148 q 402 148 416 161 q 429 174 431 194 q 433 214 433 276 l 433 276 l 433 451 q 412 407 372 385 q 331 363 271 363 l 271 363 q 195 363 138 404 q 80 444 64 501 q 49 558 49 655 l 49 655 l 49 743 q 49 858 58 914 q 67 970 105 1018 q 143 1066 210 1093 q 277 1119 366 1119 l 366 1119 q 476 1119 547 1088 q 617 1058 656 1001 q 694 943 701 880 q 707 817 707 636 l 707 636 l 707 484 q 707 288 701 221 q 696 155 654 96 q 612 37 541 8 q 470 -22 376 -22 l 376 -22 q 260 -22 187 16 q 113 53 81 121 q 49 189 49 292 z m 323 840 l 323 634 q 323 565 341 549 q 359 532 378 532 l 378 532 q 406 532 419 553 q 433 574 433 634 l 433 634 l 433 833 q 433 905 420 928 q 408 950 378 950 l 378 950 q 361 950 342 933 q 323 916 323 840 l 323 840 z "}," ":{"ha":245,"x_min":0,"x_max":0,"o":""},"!":{"ha":375,"x_min":49,"x_max":350,"o":"m 49 1098 l 350 1098 l 305 271 l 94 271 l 49 1098 z m 71 220 l 328 220 l 328 0 l 71 0 l 71 220 z "},"\"":{"ha":513,"x_min":24,"x_max":489,"o":"m 201 745 l 60 745 l 24 930 l 24 1098 l 232 1098 l 232 930 l 201 745 z m 457 745 l 317 745 l 281 930 l 281 1098 l 489 1098 l 489 930 l 457 745 z "},"#":{"ha":870,"x_min":24,"x_max":846,"o":"m 24 591 l 24 720 l 233 720 l 290 979 l 418 979 l 361 720 l 602 720 l 658 979 l 786 979 l 730 720 l 846 720 l 846 591 l 706 591 l 663 386 l 846 386 l 846 258 l 639 258 l 583 0 l 454 0 l 511 258 l 267 258 l 214 0 l 85 0 l 140 258 l 24 258 l 24 386 l 166 386 l 209 591 l 24 591 z m 578 591 l 337 591 l 294 387 l 536 387 l 578 591 z "},"$":{"ha":760,"x_min":37,"x_max":723,"o":"m 691 778 l 691 778 l 417 778 l 417 823 q 417 896 408 918 q 398 941 367 941 l 367 941 q 342 941 329 921 q 317 902 317 863 l 317 863 q 317 799 342 773 l 342 773 q 368 747 490 673 l 490 673 q 595 610 633 576 q 671 543 697 481 q 723 420 723 328 l 723 328 q 723 182 652 98 q 582 15 441 -5 l 441 -5 l 441 -108 l 315 -108 l 315 -1 q 205 9 123 83 q 41 157 41 340 l 41 340 l 41 393 l 315 393 l 315 326 q 315 216 323 189 q 332 162 364 162 l 364 162 q 392 162 406 181 q 419 199 419 236 l 419 236 q 419 328 406 368 q 393 408 318 454 l 318 454 q 193 533 148 570 q 102 607 70 674 q 37 741 37 826 l 37 826 q 37 949 106 1019 q 176 1088 315 1105 l 315 1105 l 315 1192 l 441 1192 l 441 1105 q 568 1088 631 1020 q 694 951 694 829 l 694 829 q 694 812 691 778 z "},"%":{"ha":962,"x_min":24,"x_max":938,"o":"m 645 1119 l 748 1119 l 319 -21 l 214 -21 l 645 1119 z m 429 911 l 429 911 l 429 722 q 429 648 415 611 q 401 574 355 547 q 309 519 234 519 l 234 519 q 147 519 102 546 q 56 572 40 608 q 24 645 24 713 l 24 713 l 24 911 q 24 992 41 1031 q 58 1070 105 1095 q 153 1119 222 1119 l 222 1119 q 300 1119 348 1092 q 396 1065 412 1027 q 429 989 429 911 z m 255 677 l 255 959 q 255 1002 251 1013 q 246 1023 227 1023 l 227 1023 q 208 1023 203 1012 q 197 1001 197 959 l 197 959 l 197 682 q 197 635 202 625 q 207 616 227 616 l 227 616 q 245 616 250 627 q 255 637 255 677 l 255 677 z m 938 380 l 938 380 l 938 191 q 938 118 924 81 q 910 43 864 16 q 819 -12 743 -12 l 743 -12 q 657 -12 611 15 q 566 41 550 78 q 534 115 534 182 l 534 182 l 534 380 q 534 461 550 500 q 567 539 614 564 q 662 589 732 589 l 732 589 q 810 589 858 562 q 906 534 922 496 q 938 458 938 380 z m 764 147 l 764 428 q 764 471 760 482 q 755 492 736 492 l 736 492 q 718 492 712 481 q 707 471 707 428 l 707 428 l 707 151 q 707 104 712 95 q 717 85 736 85 l 736 85 q 755 85 760 96 q 764 106 764 147 l 764 147 z "},"&":{"ha":800,"x_min":24,"x_max":800,"o":"m 632 321 l 781 417 l 781 232 l 704 183 l 800 0 l 547 0 l 514 61 q 387 -23 273 -23 l 273 -23 q 153 -23 89 56 q 24 136 24 248 l 24 248 q 24 337 62 388 q 100 439 176 471 l 176 471 q 68 549 68 682 l 68 682 q 68 796 145 866 q 222 936 358 936 l 358 936 q 480 936 550 867 q 621 799 621 693 l 621 693 q 621 582 535 496 l 535 496 l 632 321 z m 359 610 l 359 610 q 405 670 405 725 l 405 725 q 405 749 391 768 q 378 788 353 788 l 353 788 q 331 788 319 773 q 308 758 308 728 l 308 728 q 308 664 359 610 z m 420 185 l 420 185 l 332 333 q 281 287 281 233 l 281 233 q 281 195 297 175 q 313 156 344 156 l 344 156 q 377 156 420 185 z "},"'":{"ha":257,"x_min":24,"x_max":232,"o":"m 201 745 l 60 745 l 24 930 l 24 1098 l 232 1098 l 232 930 l 201 745 z "},"(":{"ha":435,"x_min":57,"x_max":410,"o":"m 324 1098 l 410 1098 l 410 955 q 354 955 337 950 q 321 945 313 928 q 305 911 305 830 l 305 830 l 305 268 q 305 193 311 174 q 317 155 334 149 q 351 143 410 143 l 410 143 l 410 0 l 324 0 q 205 0 149 22 q 93 44 75 87 q 57 130 57 269 l 57 269 l 57 829 q 57 968 75 1011 q 92 1055 150 1076 q 208 1098 324 1098 l 324 1098 z "},")":{"ha":435,"x_min":24,"x_max":378,"o":"m 24 955 l 24 1098 l 111 1098 q 227 1098 285 1076 q 342 1055 360 1011 q 378 968 378 829 l 378 829 l 378 269 q 378 130 360 87 q 342 44 286 22 q 230 0 111 0 l 111 0 l 24 0 l 24 143 q 85 143 101 149 q 117 155 124 174 q 130 193 130 268 l 130 268 l 130 830 q 130 911 122 928 q 114 945 97 950 q 81 955 24 955 l 24 955 z "},"*":{"ha":390,"x_min":20,"x_max":370,"o":"m 153 1098 l 239 1098 l 239 989 l 339 1023 l 370 943 l 269 901 l 332 812 l 264 762 l 196 852 l 129 762 l 58 812 l 121 905 l 20 943 l 50 1023 l 153 989 l 153 1098 z "},"+":{"ha":741,"x_min":43,"x_max":697,"o":"m 43 465 l 43 631 l 287 631 l 287 875 l 452 875 l 452 631 l 697 631 l 697 465 l 452 465 l 452 222 l 287 222 l 287 465 l 43 465 z "},",":{"ha":233,"x_min":24,"x_max":208,"o":"m 24 215 l 208 215 l 208 117 q 208 39 190 -10 q 172 -60 126 -94 q 81 -129 24 -140 l 24 -140 l 24 -62 q 65 -39 71 0 l 71 0 l 24 0 l 24 215 z "},"-":{"ha":409,"x_min":24,"x_max":385,"o":"m 24 545 l 385 545 l 385 355 l 24 355 l 24 545 z "},".":{"ha":256,"x_min":24,"x_max":231,"o":"m 24 224 l 231 224 l 231 0 l 24 0 l 24 224 z "},"/":{"ha":549,"x_min":8,"x_max":541,"o":"m 336 1119 l 541 1119 l 216 -21 l 8 -21 l 336 1119 z "},":":{"ha":281,"x_min":49,"x_max":256,"o":"m 49 715 l 256 715 l 256 492 l 49 492 l 49 715 z m 49 224 l 256 224 l 256 0 l 49 0 l 49 224 z "},";":{"ha":281,"x_min":49,"x_max":256,"o":"m 49 715 l 256 715 l 256 492 l 49 492 l 49 715 z m 60 215 l 244 215 l 244 117 q 244 39 226 -10 q 208 -60 162 -94 q 117 -129 60 -140 l 60 -140 l 60 -62 q 101 -39 106 0 l 106 0 l 60 0 l 60 215 z "},"<":{"ha":741,"x_min":44,"x_max":696,"o":"m 696 399 l 696 220 l 44 492 l 44 629 l 696 902 l 696 723 l 294 561 l 696 399 z "},"=":{"ha":741,"x_min":44,"x_max":696,"o":"m 44 595 l 44 761 l 696 761 l 696 595 l 44 595 z m 44 336 l 44 502 l 696 502 l 696 336 l 44 336 z "},">":{"ha":741,"x_min":44,"x_max":696,"o":"m 44 722 l 44 902 l 696 631 l 696 492 l 44 220 l 44 399 l 447 561 l 44 722 z "},"?":{"ha":729,"x_min":57,"x_max":704,"o":"m 331 810 l 331 744 l 57 744 q 58 888 81 955 q 104 1021 181 1071 q 258 1121 378 1121 l 378 1121 q 464 1121 528 1094 q 593 1067 631 1018 q 669 970 686 913 q 704 857 704 737 l 704 737 l 704 603 q 704 511 687 456 q 670 400 613 358 q 556 316 479 316 l 479 316 q 380 316 331 394 l 331 394 l 331 276 l 75 276 l 75 578 l 325 578 q 326 515 370 515 l 370 515 q 404 515 413 543 q 422 570 422 677 l 422 677 l 422 860 q 422 920 413 941 q 405 962 380 962 l 380 962 q 349 962 340 934 q 331 907 331 810 l 331 810 z m 75 220 l 331 220 l 331 0 l 75 0 l 75 220 z "},"@":{"ha":1076,"x_min":24,"x_max":1053,"o":"m 675 887 l 809 887 l 723 350 q 720 332 720 326 l 720 326 q 720 300 745 300 l 745 300 q 786 300 834 339 q 882 378 917 454 q 953 531 953 633 l 953 633 q 953 806 849 913 q 745 1020 576 1020 l 576 1020 q 380 1020 252 885 q 125 749 125 524 l 125 524 q 125 306 249 178 q 374 50 566 50 l 566 50 q 661 50 747 82 q 832 114 909 177 l 909 177 l 1051 177 q 963 64 832 7 q 702 -51 567 -51 l 567 -51 q 336 -51 180 105 q 24 262 24 517 l 24 517 q 24 771 170 946 q 315 1121 573 1121 l 573 1121 q 727 1121 825 1062 q 922 1002 988 896 q 1053 790 1053 633 l 1053 633 q 1053 425 937 306 q 821 186 705 186 l 705 186 q 617 186 598 264 l 598 264 q 552 220 518 202 q 485 185 438 185 l 438 185 q 337 185 276 264 q 215 342 215 474 l 215 474 q 215 644 300 775 q 385 907 507 907 l 507 907 q 556 907 595 883 q 635 859 664 810 l 664 810 l 675 887 z m 356 435 l 356 435 q 356 372 383 328 q 410 283 456 283 l 456 283 q 500 283 533 318 q 567 353 595 460 q 624 568 624 665 l 624 665 q 624 726 598 764 q 572 802 528 802 l 528 802 q 446 802 401 685 q 356 569 356 435 z "},"A":{"ha":705,"x_min":-8,"x_max":713,"o":"m 137 1098 l 550 1098 l 713 0 l 421 0 l 407 197 l 304 197 l 288 0 l -8 0 l 137 1098 z m 301 392 l 399 392 q 377 578 355 852 l 355 852 q 312 538 301 392 l 301 392 z "},"B":{"ha":767,"x_min":57,"x_max":722,"o":"m 57 0 l 57 1098 l 342 1098 q 477 1098 546 1077 q 616 1056 659 992 q 701 928 701 785 l 701 785 q 701 689 671 651 q 641 613 552 593 l 552 593 q 651 570 686 518 q 722 467 722 359 l 722 359 l 722 258 q 722 146 696 93 q 671 39 615 20 q 559 0 387 0 l 387 0 l 57 0 z m 342 910 l 342 910 l 342 666 q 361 667 371 667 l 371 667 q 413 667 425 687 q 436 708 436 806 l 436 806 q 436 857 427 878 q 417 899 402 904 q 387 909 342 910 z m 342 495 l 342 495 l 342 188 q 403 190 419 207 q 436 224 436 290 l 436 290 l 436 393 q 436 463 421 478 q 406 493 342 495 z "},"C":{"ha":769,"x_min":49,"x_max":724,"o":"m 724 724 l 724 619 l 438 619 l 438 810 q 438 894 429 915 q 420 935 389 935 l 389 935 q 353 935 344 910 q 334 885 334 802 l 334 802 l 334 292 q 334 212 344 187 q 353 163 387 163 l 387 163 q 418 163 428 187 q 438 212 438 302 l 438 302 l 438 439 l 724 439 l 724 397 q 724 227 700 155 q 675 84 593 31 q 511 -23 390 -23 l 390 -23 q 264 -23 183 22 q 102 68 75 148 q 49 229 49 390 l 49 390 l 49 711 q 49 829 57 889 q 65 948 105 1003 q 146 1058 217 1089 q 289 1121 382 1121 l 382 1121 q 508 1121 590 1072 q 672 1023 698 950 q 724 878 724 724 l 724 724 z "},"D":{"ha":768,"x_min":57,"x_max":718,"o":"m 57 0 l 57 1098 l 271 1098 q 477 1098 550 1079 q 623 1060 661 1017 q 699 973 709 920 q 718 867 718 711 l 718 711 l 718 326 q 718 178 704 129 q 690 79 656 51 q 621 22 570 11 q 519 0 417 0 l 417 0 l 57 0 z m 342 910 l 342 910 l 342 188 q 404 188 418 213 q 433 237 433 347 l 433 347 l 433 774 q 433 848 428 869 q 423 890 406 900 q 389 910 342 910 z "},"E":{"ha":577,"x_min":57,"x_max":552,"o":"m 57 0 l 57 1098 l 533 1098 l 533 878 l 342 878 l 342 670 l 521 670 l 521 461 l 342 461 l 342 220 l 552 220 l 552 0 l 57 0 z "},"F":{"ha":553,"x_min":57,"x_max":541,"o":"m 57 0 l 57 1098 l 541 1098 l 541 878 l 342 878 l 342 670 l 519 670 l 519 461 l 342 461 l 342 0 l 57 0 z "},"G":{"ha":766,"x_min":49,"x_max":712,"o":"m 712 741 l 712 694 l 427 694 l 427 793 q 427 888 418 911 q 410 935 380 935 l 380 935 q 353 935 344 915 q 334 895 334 810 l 334 810 l 334 283 q 334 210 344 186 q 353 163 382 163 l 382 163 q 413 163 424 189 q 435 216 435 292 l 435 292 l 435 422 l 378 422 l 378 589 l 712 589 l 712 0 l 532 0 l 506 79 q 477 28 432 2 q 388 -23 328 -23 l 328 -23 q 256 -23 193 12 q 130 47 98 98 q 65 150 57 207 q 49 263 49 376 l 49 376 l 49 703 q 49 860 66 931 q 83 1002 163 1062 q 243 1121 371 1121 l 371 1121 q 496 1121 579 1069 q 662 1018 687 947 q 712 876 712 741 l 712 741 z "},"H":{"ha":771,"x_min":57,"x_max":713,"o":"m 428 1098 l 713 1098 l 713 0 l 428 0 l 428 461 l 342 461 l 342 0 l 57 0 l 57 1098 l 342 1098 l 342 705 l 428 705 l 428 1098 z "},"I":{"ha":400,"x_min":57,"x_max":342,"o":"m 57 1098 l 342 1098 l 342 0 l 57 0 l 57 1098 z "},"J":{"ha":460,"x_min":12,"x_max":406,"o":"m 121 1098 l 406 1098 l 406 364 q 406 199 403 152 q 399 105 372 67 q 345 29 297 15 q 250 0 155 0 l 155 0 l 12 0 l 12 192 q 38 190 50 190 l 50 190 q 80 190 98 205 q 115 220 118 241 q 121 263 121 326 l 121 326 l 121 1098 z "},"K":{"ha":745,"x_min":57,"x_max":753,"o":"m 469 1098 l 737 1098 l 574 602 l 753 0 l 458 0 l 342 471 l 342 0 l 57 0 l 57 1098 l 342 1098 l 342 671 l 469 1098 z "},"L":{"ha":528,"x_min":57,"x_max":516,"o":"m 57 1098 l 342 1098 l 342 220 l 516 220 l 516 0 l 57 0 l 57 1098 z "},"M":{"ha":996,"x_min":57,"x_max":938,"o":"m 566 1098 l 938 1098 l 938 0 l 688 0 l 688 741 l 589 0 l 412 0 l 307 724 l 307 0 l 57 0 l 57 1098 l 427 1098 q 443 999 461 865 l 461 865 l 500 585 l 566 1098 z "},"N":{"ha":752,"x_min":57,"x_max":694,"o":"m 456 1098 l 694 1098 l 694 0 l 444 0 l 296 499 l 296 0 l 57 0 l 57 1098 l 296 1098 l 456 604 l 456 1098 z "},"O":{"ha":759,"x_min":49,"x_max":709,"o":"m 709 643 l 709 455 q 709 290 702 221 q 694 152 653 95 q 612 38 542 7 q 472 -23 379 -23 l 379 -23 q 291 -23 221 6 q 151 35 108 92 q 65 150 57 218 q 49 286 49 455 l 49 455 l 49 643 q 49 808 57 877 q 64 946 105 1003 q 146 1060 216 1090 q 286 1121 379 1121 l 379 1121 q 467 1121 537 1092 q 608 1063 650 1006 q 693 948 701 880 q 709 812 709 643 l 709 643 z m 424 311 l 424 816 q 424 892 415 914 q 407 935 380 935 l 380 935 q 358 935 346 918 q 334 901 334 816 l 334 816 l 334 303 q 334 208 342 185 q 350 163 378 163 l 378 163 q 408 163 416 189 q 424 214 424 311 l 424 311 z "},"P":{"ha":697,"x_min":57,"x_max":672,"o":"m 57 0 l 57 1098 l 345 1098 q 461 1098 524 1080 q 587 1061 618 1027 q 650 992 661 943 q 672 894 672 791 l 672 791 l 672 695 q 672 590 650 542 q 629 494 571 468 q 513 442 419 442 l 419 442 l 342 442 l 342 0 l 57 0 z m 342 910 l 342 910 l 342 631 q 355 630 363 630 l 363 630 q 403 630 418 649 q 433 669 433 730 l 433 730 l 433 820 q 433 876 416 893 q 398 910 342 910 z "},"Q":{"ha":759,"x_min":49,"x_max":710,"o":"m 611 0 l 710 0 l 710 -133 l 494 -133 q 416 -133 385 -121 q 353 -109 341 -85 q 330 -62 330 0 l 330 0 q 233 3 163 51 q 94 99 71 173 q 49 248 49 395 l 49 395 l 49 735 q 49 847 62 906 q 75 964 117 1016 q 158 1068 223 1095 q 288 1121 368 1121 l 368 1121 q 463 1121 538 1088 q 613 1056 650 1006 q 687 956 698 902 q 709 848 709 741 l 709 741 l 709 385 q 709 238 695 186 q 681 134 641 103 q 600 72 533 56 l 533 56 q 535 19 548 9 q 562 0 611 0 l 611 0 z m 424 311 l 424 816 q 424 892 415 914 q 407 935 380 935 l 380 935 q 358 935 346 918 q 334 901 334 816 l 334 816 l 334 303 q 334 208 342 185 q 350 163 378 163 l 378 163 q 408 163 416 189 q 424 214 424 311 l 424 311 z "},"R":{"ha":748,"x_min":57,"x_max":694,"o":"m 57 0 l 57 1098 l 259 1098 q 461 1098 533 1082 q 604 1067 649 1003 q 694 939 694 798 l 694 798 q 694 670 663 626 q 631 582 537 573 l 537 573 q 622 552 651 517 q 680 481 687 452 q 694 422 694 290 l 694 290 l 694 0 l 429 0 l 429 365 q 429 453 415 474 q 401 495 342 495 l 342 495 l 342 0 l 57 0 z m 342 910 l 342 910 l 342 666 q 391 666 410 679 q 429 692 429 765 l 429 765 l 429 825 q 429 878 411 894 q 392 910 342 910 z "},"S":{"ha":718,"x_min":33,"x_max":686,"o":"m 662 809 l 662 766 l 397 766 l 397 847 q 397 904 387 920 q 376 935 353 935 l 353 935 q 327 935 314 914 q 300 893 300 850 l 300 850 q 300 795 315 768 l 315 768 q 330 740 396 701 l 396 701 q 587 587 636 515 l 636 515 q 686 442 686 281 l 686 281 q 686 163 658 108 q 631 52 552 15 q 473 -23 369 -23 l 369 -23 q 254 -23 173 20 q 92 64 67 131 q 42 198 42 321 l 42 321 l 42 393 l 307 393 l 307 260 q 307 198 318 180 q 330 163 358 163 l 358 163 q 387 163 400 185 q 414 208 414 252 l 414 252 q 414 349 388 378 l 388 378 q 361 408 254 478 l 254 478 q 148 549 113 581 q 79 612 56 669 q 33 725 33 812 l 33 812 q 33 939 65 997 q 98 1055 170 1088 q 241 1121 343 1121 l 343 1121 q 454 1121 533 1085 q 611 1049 636 995 q 662 940 662 809 l 662 809 z "},"T":{"ha":640,"x_min":8,"x_max":632,"o":"m 8 1098 l 632 1098 l 632 878 l 463 878 l 463 0 l 177 0 l 177 878 l 8 878 l 8 1098 z "},"U":{"ha":760,"x_min":53,"x_max":706,"o":"m 420 1098 l 706 1098 l 706 364 q 706 239 698 189 q 690 138 650 85 q 610 32 544 4 q 479 -23 390 -23 l 390 -23 q 292 -23 216 9 q 141 42 104 94 q 66 146 60 204 q 53 262 53 448 l 53 448 l 53 1098 l 338 1098 l 338 275 q 338 203 346 183 q 354 163 378 163 l 378 163 q 405 163 413 185 q 420 207 420 289 l 420 289 l 420 1098 z "},"V":{"ha":727,"x_min":-8,"x_max":735,"o":"m 434 1098 l 735 1098 l 590 0 l 157 0 l -8 1098 l 293 1098 q 345 644 368 331 l 368 331 q 390 648 414 894 l 414 894 l 434 1098 z "},"W":{"ha":1131,"x_min":0,"x_max":1131,"o":"m 854 1098 l 1131 1098 l 1004 0 l 648 0 q 599 253 562 575 l 562 575 q 545 437 482 0 l 482 0 l 127 0 l 0 1098 l 277 1098 l 307 715 l 336 345 q 352 632 415 1098 l 415 1098 l 712 1098 q 718 1050 743 736 l 743 736 l 774 319 q 798 717 854 1098 l 854 1098 z "},"X":{"ha":670,"x_min":0,"x_max":686,"o":"m 396 1098 l 635 1098 l 536 612 l 686 0 l 422 0 q 374 164 335 399 l 335 399 q 324 296 305 179 l 305 179 l 278 0 l 0 0 l 103 612 l 0 1098 l 276 1098 q 283 1053 306 947 l 306 947 q 323 866 335 799 l 335 799 l 396 1098 z "},"Y":{"ha":657,"x_min":-8,"x_max":665,"o":"m 403 1098 l 665 1098 l 457 397 l 457 0 l 193 0 l 193 397 l -8 1098 l 254 1098 q 316 777 323 666 l 323 666 q 347 842 403 1098 l 403 1098 z "},"Z":{"ha":551,"x_min":8,"x_max":534,"o":"m 34 1098 l 534 1098 l 534 878 l 321 220 l 534 220 l 534 0 l 8 0 l 8 159 l 228 878 l 34 878 l 34 1098 z "},"[":{"ha":392,"x_min":57,"x_max":367,"o":"m 57 1098 l 367 1098 l 367 929 l 305 929 l 305 169 l 367 169 l 367 0 l 57 0 l 57 1098 z "},"\\":{"ha":549,"x_min":8,"x_max":541,"o":"m 334 -21 l 8 1119 l 214 1119 l 541 -21 l 334 -21 z "},"]":{"ha":392,"x_min":24,"x_max":334,"o":"m 334 0 l 24 0 l 24 169 l 86 169 l 86 929 l 24 929 l 24 1098 l 334 1098 l 334 0 z "},"^":{"ha":671,"x_min":8,"x_max":663,"o":"m 202 556 l 8 556 l 263 1098 l 414 1098 l 663 556 l 470 556 l 336 888 l 202 556 z "},"_":{"ha":767,"x_min":-8,"x_max":775,"o":"m -8 -174 l -8 -104 l 775 -104 l 775 -174 l -8 -174 z "},"`":{"ha":463,"x_min":0,"x_max":361,"o":"m 223 1018 l 0 1202 l 241 1202 l 361 1018 l 223 1018 z "},"a":{"ha":700,"x_min":37,"x_max":654,"o":"m 294 646 l 294 551 l 37 551 l 37 612 q 37 716 61 773 q 85 829 157 873 q 230 916 346 916 l 346 916 q 485 916 555 867 q 626 818 640 746 q 654 675 654 452 l 654 452 l 654 0 l 388 0 l 388 80 q 363 32 323 8 q 283 -16 229 -16 l 229 -16 q 157 -16 97 24 q 37 64 37 201 l 37 201 l 37 275 q 37 376 68 412 q 100 449 227 498 l 227 498 q 361 551 371 569 q 380 587 380 644 l 380 644 q 380 714 370 735 q 359 757 335 757 l 335 757 q 307 757 300 739 q 294 721 294 646 l 294 646 z m 380 243 l 380 428 q 315 380 304 347 q 294 315 294 254 l 294 254 q 294 184 303 163 q 312 143 339 143 l 339 143 q 365 143 373 159 q 380 175 380 243 l 380 243 z "},"b":{"ha":722,"x_min":49,"x_max":680,"o":"m 49 1098 l 323 1098 l 323 838 q 357 878 398 897 q 440 916 489 916 l 489 916 q 545 916 587 899 q 628 881 650 849 q 671 817 676 787 q 680 756 680 656 l 680 656 l 680 251 q 680 152 667 103 q 654 55 605 19 q 556 -16 489 -16 l 489 -16 q 441 -16 399 5 q 357 26 323 68 l 323 68 l 305 0 l 49 0 l 49 1098 z m 406 265 l 406 644 q 406 714 397 735 q 389 757 363 757 l 363 757 q 338 757 330 738 q 323 720 323 644 l 323 644 l 323 256 q 323 184 331 163 q 340 143 365 143 l 365 143 q 391 143 398 164 q 406 185 406 265 l 406 265 z "},"c":{"ha":687,"x_min":41,"x_max":654,"o":"m 654 560 l 654 560 l 396 560 l 396 664 q 396 718 387 738 q 378 757 355 757 l 355 757 q 331 757 323 740 q 315 723 315 664 l 315 664 l 315 239 q 315 191 327 167 q 339 143 363 143 l 363 143 q 391 143 400 168 q 410 193 410 263 l 410 263 l 410 370 l 654 370 q 654 262 647 209 q 640 155 601 98 q 563 41 501 13 q 439 -16 349 -16 l 349 -16 q 233 -16 165 23 q 97 63 69 135 q 41 206 41 338 l 41 338 l 41 593 q 41 708 64 766 q 87 825 162 870 q 237 916 345 916 l 345 916 q 452 916 528 871 q 604 825 629 756 q 654 687 654 560 z "},"d":{"ha":722,"x_min":41,"x_max":672,"o":"m 398 1098 l 672 1098 l 672 0 l 398 0 l 398 65 q 359 24 315 4 q 272 -16 224 -16 l 224 -16 q 161 -16 114 17 q 67 51 54 95 q 41 139 41 239 l 41 239 l 41 660 q 41 764 54 807 q 67 850 115 883 q 162 916 228 916 l 228 916 q 279 916 321 898 q 363 880 398 843 l 398 843 l 398 1098 z m 398 257 l 398 673 q 398 723 390 740 q 381 757 356 757 l 356 757 q 332 757 323 742 q 315 726 315 673 l 315 673 l 315 233 q 315 178 323 160 q 331 143 354 143 l 354 143 q 380 143 389 162 q 398 182 398 257 l 398 257 z "},"e":{"ha":710,"x_min":41,"x_max":669,"o":"m 669 553 l 669 434 l 315 434 l 315 239 q 315 178 323 161 q 332 143 357 143 l 357 143 q 389 143 399 166 q 410 190 410 257 l 410 257 l 410 376 l 669 376 l 669 309 q 669 226 659 181 q 648 136 610 85 q 571 35 512 9 q 452 -16 363 -16 l 363 -16 q 276 -16 210 9 q 143 34 106 78 q 69 121 55 174 q 41 227 41 327 l 41 327 l 41 589 q 41 707 73 775 q 104 844 177 880 q 250 916 344 916 l 344 916 q 459 916 534 872 q 609 829 639 756 q 669 684 669 553 l 669 553 z m 315 581 l 395 581 l 395 646 q 395 716 387 736 q 380 757 357 757 l 357 757 q 328 757 321 740 q 315 722 315 646 l 315 646 l 315 581 z "},"f":{"ha":401,"x_min":3,"x_max":398,"o":"m 298 1098 l 398 1098 l 398 959 q 313 959 298 951 q 283 943 283 907 l 283 907 l 283 878 l 398 878 l 398 736 l 333 736 l 333 0 l 59 0 l 59 736 l 3 736 l 3 878 l 59 878 q 59 967 65 997 q 71 1027 95 1050 q 119 1074 163 1086 q 206 1098 298 1098 l 298 1098 z "},"g":{"ha":720,"x_min":41,"x_max":671,"o":"m 416 900 l 671 900 l 671 207 q 671 66 665 25 q 659 -16 619 -61 q 580 -107 510 -131 q 439 -155 333 -155 l 333 -155 q 202 -155 123 -111 q 43 -66 41 64 l 41 64 l 307 64 q 307 4 350 4 l 350 4 q 381 4 391 22 q 401 41 401 99 l 401 99 l 401 167 q 366 135 327 119 q 288 102 245 102 l 245 102 q 172 102 124 132 q 76 162 58 211 q 41 259 41 349 l 41 349 l 41 675 q 41 804 87 860 q 133 916 227 916 l 227 916 q 279 916 321 895 q 363 874 397 832 l 397 832 l 416 900 z m 397 382 l 397 661 q 397 723 390 740 q 382 757 358 757 l 358 757 q 334 757 325 738 q 315 718 315 661 l 315 661 l 315 359 q 315 298 322 280 q 330 262 353 262 l 353 262 q 380 262 389 284 q 397 306 397 382 l 397 382 z "},"h":{"ha":728,"x_min":49,"x_max":682,"o":"m 49 1098 l 323 1098 l 323 851 q 358 884 399 900 q 440 916 487 916 l 487 916 q 559 916 609 880 q 660 843 671 795 q 682 747 682 621 l 682 621 l 682 0 l 408 0 l 408 633 q 408 712 400 734 q 393 757 366 757 l 366 757 q 340 757 332 734 q 323 711 323 642 l 323 642 l 323 0 l 49 0 l 49 1098 z "},"i":{"ha":380,"x_min":49,"x_max":331,"o":"m 49 1098 l 331 1098 l 331 955 l 49 955 l 49 1098 z m 49 900 l 331 900 l 331 0 l 49 0 l 49 900 z "},"j":{"ha":389,"x_min":-4,"x_max":339,"o":"m 57 1098 l 339 1098 l 339 955 l 57 955 l 57 1098 z m 57 900 l 339 900 l 339 188 q 339 62 334 18 q 329 -26 303 -60 q 277 -94 233 -110 q 189 -126 102 -126 l 102 -126 l -4 -126 l -4 18 q 45 18 51 28 q 57 39 57 164 l 57 164 l 57 900 z "},"k":{"ha":664,"x_min":49,"x_max":672,"o":"m 408 900 l 639 900 l 528 541 l 672 0 l 408 0 l 323 392 l 323 0 l 49 0 l 49 1098 l 323 1098 l 323 637 l 408 900 z "},"l":{"ha":380,"x_min":49,"x_max":331,"o":"m 49 1098 l 331 1098 l 331 0 l 49 0 l 49 1098 z "},"m":{"ha":1071,"x_min":49,"x_max":1025,"o":"m 49 900 l 319 900 l 315 814 q 347 865 391 891 q 435 916 491 916 l 491 916 q 601 916 664 814 l 664 814 q 699 865 742 891 q 785 916 838 916 l 838 916 q 908 916 954 882 q 1000 848 1013 799 q 1025 750 1025 640 l 1025 640 l 1025 0 l 760 0 l 760 587 q 760 702 752 729 q 744 757 715 757 l 715 757 q 686 757 678 730 q 669 703 669 587 l 669 587 l 669 0 l 404 0 l 404 572 q 404 704 397 730 q 391 757 361 757 l 361 757 q 343 757 330 743 q 317 729 316 709 q 315 689 315 624 l 315 624 l 315 0 l 49 0 l 49 900 z "},"n":{"ha":726,"x_min":49,"x_max":681,"o":"m 49 900 l 328 900 l 323 817 q 353 867 396 891 q 439 916 495 916 l 495 916 q 566 916 610 883 q 655 850 668 799 q 681 749 681 631 l 681 631 l 681 0 l 407 0 l 407 623 q 407 716 401 736 q 395 757 367 757 l 367 757 q 338 757 330 733 q 323 710 323 608 l 323 608 l 323 0 l 49 0 l 49 900 z "},"o":{"ha":710,"x_min":41,"x_max":669,"o":"m 669 584 l 669 584 l 669 363 q 669 242 656 185 q 644 129 604 80 q 564 31 502 7 q 439 -16 357 -16 l 357 -16 q 267 -16 203 4 q 140 24 105 64 q 71 104 56 162 q 41 219 41 334 l 41 334 l 41 564 q 41 690 68 760 q 95 831 165 873 q 236 916 346 916 l 346 916 q 438 916 504 889 q 570 861 606 817 q 642 773 655 726 q 669 680 669 584 z m 395 237 l 395 652 q 395 721 387 739 q 380 757 355 757 l 355 757 q 331 757 323 739 q 315 721 315 652 l 315 652 l 315 245 q 315 182 323 162 q 331 143 355 143 l 355 143 q 379 143 387 161 q 395 178 395 237 l 395 237 z "},"p":{"ha":721,"x_min":49,"x_max":680,"o":"m 49 900 l 328 900 l 323 821 q 359 869 404 892 q 448 916 500 916 l 500 916 q 564 916 610 882 q 656 848 668 803 q 680 758 680 651 l 680 651 l 680 272 q 680 149 665 97 q 650 45 605 15 q 560 -16 496 -16 l 496 -16 q 446 -16 402 7 q 359 31 323 78 l 323 78 l 323 -128 l 49 -128 l 49 900 z m 406 252 l 406 638 q 406 722 399 739 q 393 757 366 757 l 366 757 q 338 757 331 736 q 323 716 323 638 l 323 638 l 323 265 q 323 184 331 163 q 339 143 366 143 l 366 143 q 393 143 399 162 q 406 180 406 252 l 406 252 z "},"q":{"ha":720,"x_min":41,"x_max":670,"o":"m 401 900 l 670 900 l 670 -128 l 396 -128 l 396 73 q 356 14 322 -1 q 289 -16 239 -16 l 239 -16 q 168 -16 120 18 q 73 52 57 105 q 41 159 41 271 l 41 271 l 41 667 q 41 759 53 804 q 65 849 112 883 q 158 916 222 916 l 222 916 q 273 916 317 893 q 360 870 396 823 l 396 823 l 401 900 z m 396 250 l 396 655 q 396 715 387 736 q 378 757 354 757 l 354 757 q 331 757 323 739 q 315 720 315 655 l 315 655 l 315 254 q 315 182 323 162 q 331 143 356 143 l 356 143 q 380 143 388 163 q 396 183 396 250 l 396 250 z "},"r":{"ha":497,"x_min":49,"x_max":485,"o":"m 49 900 l 323 900 l 312 782 q 372 909 485 916 l 485 916 l 485 600 q 410 600 374 579 q 339 559 331 523 q 323 486 323 355 l 323 355 l 323 0 l 49 0 l 49 900 z "},"s":{"ha":654,"x_min":28,"x_max":629,"o":"m 608 665 l 608 612 l 366 612 l 366 661 q 366 724 358 740 q 351 757 323 757 l 323 757 q 300 757 288 742 q 277 726 277 696 l 277 696 q 277 654 282 635 q 288 616 317 593 q 346 570 435 526 l 435 526 q 555 467 592 416 l 592 416 q 629 364 629 266 l 629 266 q 629 156 601 100 q 572 44 506 14 q 439 -16 345 -16 l 345 -16 q 240 -16 166 16 q 92 49 64 104 q 36 160 36 273 l 36 273 l 36 316 l 279 316 l 279 259 q 279 186 288 165 q 297 143 324 143 l 324 143 q 353 143 365 158 q 376 172 376 219 l 376 219 q 376 283 361 300 l 361 300 q 346 316 202 396 l 202 396 q 81 464 55 519 q 28 574 28 650 l 28 650 q 28 758 57 809 q 85 861 154 888 q 222 916 312 916 l 312 916 q 401 916 464 893 q 527 871 561 833 q 594 796 601 764 q 608 732 608 665 l 608 665 z "},"t":{"ha":423,"x_min":4,"x_max":423,"o":"m 63 1020 l 338 1020 l 338 878 l 412 878 l 412 736 l 338 736 l 338 254 q 338 165 347 155 q 356 145 423 145 l 423 145 l 423 0 l 313 0 q 219 0 179 8 q 139 16 109 44 q 78 72 71 108 q 63 144 63 279 l 63 279 l 63 736 l 4 736 l 4 878 l 63 878 l 63 1020 z "},"u":{"ha":726,"x_min":45,"x_max":676,"o":"m 402 900 l 676 900 l 676 0 l 397 0 l 402 75 q 374 29 332 6 q 290 -16 236 -16 l 236 -16 q 174 -16 134 5 q 93 27 74 63 q 54 99 50 138 q 45 177 45 293 l 45 293 l 45 900 l 319 900 l 319 288 q 319 182 325 163 q 332 143 360 143 l 360 143 q 391 143 396 163 q 402 184 402 294 l 402 294 l 402 900 z "},"v":{"ha":607,"x_min":-8,"x_max":615,"o":"m 370 900 l 615 900 l 487 0 l 130 0 l -8 900 l 237 900 l 313 243 q 322 315 343 596 l 343 596 q 355 753 370 900 l 370 900 z "},"w":{"ha":930,"x_min":-4,"x_max":934,"o":"m 698 900 l 934 900 l 825 0 l 527 0 q 503 165 471 434 l 471 434 q 460 316 440 195 l 440 195 l 410 0 l 112 0 l -4 900 l 232 900 q 235 865 292 385 l 292 385 q 296 434 353 900 l 353 900 l 580 900 l 635 385 q 648 610 698 900 l 698 900 z "},"x":{"ha":602,"x_min":0,"x_max":614,"o":"m 348 900 l 591 900 l 482 470 l 614 0 l 348 0 q 309 178 288 306 l 288 306 q 261 146 229 0 l 229 0 l 0 0 l 118 470 l 0 900 l 229 900 q 284 625 288 587 l 288 587 q 328 817 348 900 l 348 900 z "},"y":{"ha":623,"x_min":-8,"x_max":623,"o":"m 374 900 l 623 900 l 544 249 q 526 94 513 38 q 500 -18 471 -55 q 442 -92 390 -109 q 338 -126 224 -126 l 224 -126 l 58 -126 l 58 18 q 122 18 140 24 q 159 31 159 53 l 159 53 q 159 64 142 147 l 142 147 l -8 900 l 241 900 l 330 293 l 374 900 z "},"z":{"ha":488,"x_min":8,"x_max":475,"o":"m 29 900 l 475 900 l 475 701 l 273 180 l 475 180 l 475 0 l 8 0 l 8 189 l 215 720 l 29 720 l 29 900 z "},"{":{"ha":513,"x_min":24,"x_max":488,"o":"m 24 365 l 24 365 l 24 528 q 98 528 136 571 q 173 614 173 765 l 173 765 q 173 880 181 935 q 190 990 222 1027 q 255 1065 307 1081 q 358 1098 452 1098 l 452 1098 l 488 1098 l 488 936 q 390 936 371 916 q 351 895 350 836 l 350 836 q 346 673 339 625 q 333 576 310 531 q 286 487 222 446 l 222 446 q 283 410 310 359 q 338 308 342 212 l 342 212 l 353 15 q 359 -14 382 -28 q 405 -43 488 -43 l 488 -43 l 488 -205 l 452 -205 q 344 -205 285 -181 q 226 -156 199 -100 q 173 -43 173 82 l 173 82 q 173 220 163 259 q 154 298 127 330 q 100 362 24 365 z "},"|":{"ha":376,"x_min":115,"x_max":262,"o":"m 115 -180 l 115 1098 l 262 1098 l 262 -180 l 115 -180 z "},"}":{"ha":513,"x_min":24,"x_max":488,"o":"m 488 528 l 488 365 q 414 364 377 321 q 340 277 340 128 l 340 128 q 340 13 332 -42 q 323 -98 291 -135 q 258 -172 207 -189 q 155 -205 61 -205 l 61 -205 l 25 -205 l 25 -43 q 119 -43 141 -23 q 162 -3 163 57 l 163 57 q 168 231 176 280 q 184 329 210 372 q 235 414 290 446 l 290 446 q 232 484 209 521 q 186 557 178 601 q 170 644 165 761 q 161 878 156 895 q 151 911 130 924 q 109 936 24 936 l 24 936 l 24 1098 l 60 1098 q 169 1098 228 1073 q 287 1048 313 992 q 340 936 340 810 l 340 810 q 340 667 350 629 q 361 592 388 561 q 414 530 488 528 l 488 528 z "},"~":{"ha":729,"x_min":39,"x_max":690,"o":"m 690 720 l 690 534 q 583 445 498 445 l 498 445 q 439 445 324 500 l 324 500 q 258 532 228 532 l 228 532 q 154 532 39 422 l 39 422 l 39 610 q 138 697 235 697 l 235 697 q 292 697 392 650 l 392 650 q 473 611 507 611 l 507 611 q 538 611 573 629 q 608 647 690 720 l 690 720 z "},"Ä":{"ha":705,"x_min":-8,"x_max":713,"o":"m 137 1098 l 550 1098 l 713 0 l 421 0 l 407 197 l 304 197 l 288 0 l -8 0 l 137 1098 z m 301 392 l 399 392 q 377 578 355 852 l 355 852 q 312 538 301 392 l 301 392 z m 107 1309 l 284 1309 l 284 1133 l 107 1133 l 107 1309 z m 404 1309 l 581 1309 l 581 1133 l 404 1133 l 404 1309 z "},"Å":{"ha":705,"x_min":-8,"x_max":713,"o":"m 137 1098 l 550 1098 l 713 0 l 421 0 l 407 197 l 304 197 l 288 0 l -8 0 l 137 1098 z m 301 392 l 399 392 q 377 578 355 852 l 355 852 q 312 538 301 392 l 301 392 z m 344 1401 l 344 1401 q 401 1401 444 1360 q 486 1319 486 1258 l 486 1258 q 486 1199 444 1157 q 402 1116 344 1116 l 344 1116 q 284 1116 242 1157 q 201 1199 201 1258 l 201 1258 q 201 1317 243 1359 q 285 1401 344 1401 z m 342 1312 l 342 1312 q 320 1312 303 1295 q 287 1279 287 1255 l 287 1255 q 287 1232 303 1216 q 320 1200 342 1200 l 342 1200 q 366 1200 382 1216 q 399 1232 399 1255 l 399 1255 q 399 1279 382 1295 q 366 1312 342 1312 z "},"Ç":{"ha":769,"x_min":49,"x_max":724,"o":"m 411 -22 l 411 -22 l 411 -35 q 448 -35 478 -59 q 509 -83 509 -125 l 509 -125 q 509 -176 467 -214 q 425 -252 366 -252 l 366 -252 q 260 -252 231 -144 l 231 -144 l 332 -144 q 341 -173 366 -173 l 366 -173 q 386 -173 396 -163 q 406 -153 406 -132 l 406 -132 q 406 -110 392 -99 q 378 -87 349 -87 l 349 -87 l 332 -87 l 332 -20 q 216 -9 151 44 q 86 96 67 172 q 49 248 49 390 l 49 390 l 49 711 q 49 829 57 889 q 65 948 105 1003 q 146 1058 217 1089 q 289 1121 382 1121 l 382 1121 q 508 1121 590 1072 q 672 1023 698 950 q 724 878 724 724 l 724 724 l 724 619 l 438 619 l 438 810 q 438 894 429 915 q 420 935 389 935 l 389 935 q 353 935 344 910 q 334 885 334 802 l 334 802 l 334 292 q 334 212 344 187 q 353 163 387 163 l 387 163 q 418 163 428 187 q 438 212 438 302 l 438 302 l 438 439 l 724 439 l 724 397 q 724 239 705 170 q 686 101 611 43 q 536 -15 411 -22 z "},"É":{"ha":577,"x_min":57,"x_max":552,"o":"m 57 0 l 57 1098 l 533 1098 l 533 878 l 342 878 l 342 670 l 521 670 l 521 461 l 342 461 l 342 220 l 552 220 l 552 0 l 57 0 z m 278 1316 l 519 1316 l 296 1133 l 159 1133 l 278 1316 z "},"Ñ":{"ha":752,"x_min":57,"x_max":694,"o":"m 456 1098 l 694 1098 l 694 0 l 444 0 l 296 499 l 296 0 l 57 0 l 57 1098 l 296 1098 l 456 604 l 456 1098 z m 553 1339 l 662 1261 q 631 1193 585 1166 q 540 1139 505 1139 l 505 1139 q 457 1139 401 1161 l 401 1161 l 351 1181 q 303 1200 279 1200 l 279 1200 q 229 1200 197 1133 l 197 1133 l 90 1204 q 164 1335 258 1335 l 258 1335 q 307 1335 364 1314 l 364 1314 l 406 1298 q 459 1278 478 1278 l 478 1278 q 534 1278 553 1339 l 553 1339 z "},"Ö":{"ha":759,"x_min":49,"x_max":709,"o":"m 709 643 l 709 455 q 709 290 702 221 q 694 152 653 95 q 612 38 542 7 q 472 -23 379 -23 l 379 -23 q 291 -23 221 6 q 151 35 108 92 q 65 150 57 218 q 49 286 49 455 l 49 455 l 49 643 q 49 808 57 877 q 64 946 105 1003 q 146 1060 216 1090 q 286 1121 379 1121 l 379 1121 q 467 1121 537 1092 q 608 1063 650 1006 q 693 948 701 880 q 709 812 709 643 l 709 643 z m 424 311 l 424 816 q 424 892 415 914 q 407 935 380 935 l 380 935 q 358 935 346 918 q 334 901 334 816 l 334 816 l 334 303 q 334 208 342 185 q 350 163 378 163 l 378 163 q 408 163 416 189 q 424 214 424 311 l 424 311 z m 142 1309 l 319 1309 l 319 1133 l 142 1133 l 142 1309 z m 439 1309 l 616 1309 l 616 1133 l 439 1133 l 439 1309 z "},"Ü":{"ha":760,"x_min":53,"x_max":706,"o":"m 420 1098 l 706 1098 l 706 364 q 706 239 698 189 q 690 138 650 85 q 610 32 544 4 q 479 -23 390 -23 l 390 -23 q 292 -23 216 9 q 141 42 104 94 q 66 146 60 204 q 53 262 53 448 l 53 448 l 53 1098 l 338 1098 l 338 275 q 338 203 346 183 q 354 163 378 163 l 378 163 q 405 163 413 185 q 420 207 420 289 l 420 289 l 420 1098 z m 143 1309 l 320 1309 l 320 1133 l 143 1133 l 143 1309 z m 439 1309 l 616 1309 l 616 1133 l 439 1133 l 439 1309 z "},"á":{"ha":700,"x_min":37,"x_max":654,"o":"m 294 646 l 294 551 l 37 551 l 37 612 q 37 716 61 773 q 85 829 157 873 q 230 916 346 916 l 346 916 q 485 916 555 867 q 626 818 640 746 q 654 675 654 452 l 654 452 l 654 0 l 388 0 l 388 80 q 363 32 323 8 q 283 -16 229 -16 l 229 -16 q 157 -16 97 24 q 37 64 37 201 l 37 201 l 37 275 q 37 376 68 412 q 100 449 227 498 l 227 498 q 361 551 371 569 q 380 587 380 644 l 380 644 q 380 714 370 735 q 359 757 335 757 l 335 757 q 307 757 300 739 q 294 721 294 646 l 294 646 z m 380 243 l 380 428 q 315 380 304 347 q 294 315 294 254 l 294 254 q 294 184 303 163 q 312 143 339 143 l 339 143 q 365 143 373 159 q 380 175 380 243 l 380 243 z m 340 1144 l 581 1144 l 358 960 l 220 960 l 340 1144 z "},"à":{"ha":700,"x_min":37,"x_max":654,"o":"m 294 646 l 294 551 l 37 551 l 37 612 q 37 716 61 773 q 85 829 157 873 q 230 916 346 916 l 346 916 q 485 916 555 867 q 626 818 640 746 q 654 675 654 452 l 654 452 l 654 0 l 388 0 l 388 80 q 363 32 323 8 q 283 -16 229 -16 l 229 -16 q 157 -16 97 24 q 37 64 37 201 l 37 201 l 37 275 q 37 376 68 412 q 100 449 227 498 l 227 498 q 361 551 371 569 q 380 587 380 644 l 380 644 q 380 714 370 735 q 359 757 335 757 l 335 757 q 307 757 300 739 q 294 721 294 646 l 294 646 z m 380 243 l 380 428 q 315 380 304 347 q 294 315 294 254 l 294 254 q 294 184 303 163 q 312 143 339 143 l 339 143 q 365 143 373 159 q 380 175 380 243 l 380 243 z m 341 960 l 118 1144 l 359 1144 l 479 960 l 341 960 z "},"â":{"ha":700,"x_min":37,"x_max":654,"o":"m 294 646 l 294 551 l 37 551 l 37 612 q 37 716 61 773 q 85 829 157 873 q 230 916 346 916 l 346 916 q 485 916 555 867 q 626 818 640 746 q 654 675 654 452 l 654 452 l 654 0 l 388 0 l 388 80 q 363 32 323 8 q 283 -16 229 -16 l 229 -16 q 157 -16 97 24 q 37 64 37 201 l 37 201 l 37 275 q 37 376 68 412 q 100 449 227 498 l 227 498 q 361 551 371 569 q 380 587 380 644 l 380 644 q 380 714 370 735 q 359 757 335 757 l 335 757 q 307 757 300 739 q 294 721 294 646 l 294 646 z m 380 243 l 380 428 q 315 380 304 347 q 294 315 294 254 l 294 254 q 294 184 303 163 q 312 143 339 143 l 339 143 q 365 143 373 159 q 380 175 380 243 l 380 243 z m 431 960 l 355 1049 l 275 960 l 85 960 l 260 1152 l 451 1152 l 614 960 l 431 960 z "},"ä":{"ha":700,"x_min":37,"x_max":654,"o":"m 294 646 l 294 551 l 37 551 l 37 612 q 37 716 61 773 q 85 829 157 873 q 230 916 346 916 l 346 916 q 485 916 555 867 q 626 818 640 746 q 654 675 654 452 l 654 452 l 654 0 l 388 0 l 388 80 q 363 32 323 8 q 283 -16 229 -16 l 229 -16 q 157 -16 97 24 q 37 64 37 201 l 37 201 l 37 275 q 37 376 68 412 q 100 449 227 498 l 227 498 q 361 551 371 569 q 380 587 380 644 l 380 644 q 380 714 370 735 q 359 757 335 757 l 335 757 q 307 757 300 739 q 294 721 294 646 l 294 646 z m 380 243 l 380 428 q 315 380 304 347 q 294 315 294 254 l 294 254 q 294 184 303 163 q 312 143 339 143 l 339 143 q 365 143 373 159 q 380 175 380 243 l 380 243 z m 113 1137 l 290 1137 l 290 960 l 113 960 l 113 1137 z m 410 1137 l 587 1137 l 587 960 l 410 960 l 410 1137 z "},"ã":{"ha":700,"x_min":37,"x_max":654,"o":"m 294 646 l 294 551 l 37 551 l 37 612 q 37 716 61 773 q 85 829 157 873 q 230 916 346 916 l 346 916 q 485 916 555 867 q 626 818 640 746 q 654 675 654 452 l 654 452 l 654 0 l 388 0 l 388 80 q 363 32 323 8 q 283 -16 229 -16 l 229 -16 q 157 -16 97 24 q 37 64 37 201 l 37 201 l 37 275 q 37 376 68 412 q 100 449 227 498 l 227 498 q 361 551 371 569 q 380 587 380 644 l 380 644 q 380 714 370 735 q 359 757 335 757 l 335 757 q 307 757 300 739 q 294 721 294 646 l 294 646 z m 380 243 l 380 428 q 315 380 304 347 q 294 315 294 254 l 294 254 q 294 184 303 163 q 312 143 339 143 l 339 143 q 365 143 373 159 q 380 175 380 243 l 380 243 z m 527 1167 l 636 1089 q 605 1021 559 994 q 514 966 479 966 l 479 966 q 431 966 376 989 l 376 989 l 326 1008 q 277 1028 254 1028 l 254 1028 q 203 1028 171 960 l 171 960 l 64 1031 q 138 1163 232 1163 l 232 1163 q 281 1163 338 1141 l 338 1141 l 380 1126 q 433 1106 452 1106 l 452 1106 q 509 1106 527 1167 l 527 1167 z "},"å":{"ha":700,"x_min":37,"x_max":654,"o":"m 294 646 l 294 551 l 37 551 l 37 612 q 37 716 61 773 q 85 829 157 873 q 230 916 346 916 l 346 916 q 485 916 555 867 q 626 818 640 746 q 654 675 654 452 l 654 452 l 654 0 l 388 0 l 388 80 q 363 32 323 8 q 283 -16 229 -16 l 229 -16 q 157 -16 97 24 q 37 64 37 201 l 37 201 l 37 275 q 37 376 68 412 q 100 449 227 498 l 227 498 q 361 551 371 569 q 380 587 380 644 l 380 644 q 380 714 370 735 q 359 757 335 757 l 335 757 q 307 757 300 739 q 294 721 294 646 l 294 646 z m 380 243 l 380 428 q 315 380 304 347 q 294 315 294 254 l 294 254 q 294 184 303 163 q 312 143 339 143 l 339 143 q 365 143 373 159 q 380 175 380 243 l 380 243 z m 350 1246 l 350 1246 q 407 1246 450 1205 q 492 1164 492 1103 l 492 1103 q 492 1044 450 1002 q 408 960 350 960 l 350 960 q 290 960 249 1002 q 207 1044 207 1103 l 207 1103 q 207 1162 249 1204 q 291 1246 350 1246 z m 349 1156 l 349 1156 q 326 1156 310 1140 q 293 1124 293 1100 l 293 1100 q 293 1077 310 1061 q 326 1044 349 1044 l 349 1044 q 372 1044 388 1061 q 405 1077 405 1100 l 405 1100 q 405 1124 388 1140 q 372 1156 349 1156 z "},"ç":{"ha":687,"x_min":41,"x_max":654,"o":"m 370 -16 l 370 -16 l 370 -35 q 406 -35 437 -59 q 468 -83 468 -125 l 468 -125 q 468 -176 426 -214 q 384 -252 326 -252 l 326 -252 q 220 -252 191 -144 l 191 -144 l 291 -144 q 300 -173 325 -173 l 325 -173 q 345 -173 355 -163 q 365 -153 365 -132 l 365 -132 q 365 -110 351 -99 q 337 -87 309 -87 l 309 -87 l 291 -87 l 291 -13 q 189 -1 138 41 q 87 83 64 146 q 41 210 41 338 l 41 338 l 41 593 q 41 708 64 766 q 87 825 162 870 q 237 916 345 916 l 345 916 q 452 916 528 871 q 604 825 629 756 q 654 687 654 560 l 654 560 l 396 560 l 396 664 q 396 718 387 738 q 378 757 355 757 l 355 757 q 331 757 323 740 q 315 723 315 664 l 315 664 l 315 239 q 315 191 327 167 q 339 143 363 143 l 363 143 q 391 143 400 168 q 410 193 410 263 l 410 263 l 410 370 l 654 370 q 654 270 648 217 q 642 163 608 108 q 573 52 517 21 q 461 -10 370 -16 z "},"é":{"ha":710,"x_min":41,"x_max":669,"o":"m 669 553 l 669 434 l 315 434 l 315 239 q 315 178 323 161 q 332 143 357 143 l 357 143 q 389 143 399 166 q 410 190 410 257 l 410 257 l 410 376 l 669 376 l 669 309 q 669 226 659 181 q 648 136 610 85 q 571 35 512 9 q 452 -16 363 -16 l 363 -16 q 276 -16 210 9 q 143 34 106 78 q 69 121 55 174 q 41 227 41 327 l 41 327 l 41 589 q 41 707 73 775 q 104 844 177 880 q 250 916 344 916 l 344 916 q 459 916 534 872 q 609 829 639 756 q 669 684 669 553 l 669 553 z m 315 581 l 395 581 l 395 646 q 395 716 387 736 q 380 757 357 757 l 357 757 q 328 757 321 740 q 315 722 315 646 l 315 646 l 315 581 z m 345 1144 l 587 1144 l 363 960 l 226 960 l 345 1144 z "},"è":{"ha":710,"x_min":41,"x_max":669,"o":"m 669 553 l 669 434 l 315 434 l 315 239 q 315 178 323 161 q 332 143 357 143 l 357 143 q 389 143 399 166 q 410 190 410 257 l 410 257 l 410 376 l 669 376 l 669 309 q 669 226 659 181 q 648 136 610 85 q 571 35 512 9 q 452 -16 363 -16 l 363 -16 q 276 -16 210 9 q 143 34 106 78 q 69 121 55 174 q 41 227 41 327 l 41 327 l 41 589 q 41 707 73 775 q 104 844 177 880 q 250 916 344 916 l 344 916 q 459 916 534 872 q 609 829 639 756 q 669 684 669 553 l 669 553 z m 315 581 l 395 581 l 395 646 q 395 716 387 736 q 380 757 357 757 l 357 757 q 328 757 321 740 q 315 722 315 646 l 315 646 l 315 581 z m 347 960 l 123 1144 l 365 1144 l 484 960 l 347 960 z "},"ê":{"ha":710,"x_min":41,"x_max":669,"o":"m 669 553 l 669 434 l 315 434 l 315 239 q 315 178 323 161 q 332 143 357 143 l 357 143 q 389 143 399 166 q 410 190 410 257 l 410 257 l 410 376 l 669 376 l 669 309 q 669 226 659 181 q 648 136 610 85 q 571 35 512 9 q 452 -16 363 -16 l 363 -16 q 276 -16 210 9 q 143 34 106 78 q 69 121 55 174 q 41 227 41 327 l 41 327 l 41 589 q 41 707 73 775 q 104 844 177 880 q 250 916 344 916 l 344 916 q 459 916 534 872 q 609 829 639 756 q 669 684 669 553 l 669 553 z m 315 581 l 395 581 l 395 646 q 395 716 387 736 q 380 757 357 757 l 357 757 q 328 757 321 740 q 315 722 315 646 l 315 646 l 315 581 z m 435 960 l 360 1049 l 280 960 l 90 960 l 264 1152 l 456 1152 l 619 960 l 435 960 z "},"ë":{"ha":710,"x_min":41,"x_max":669,"o":"m 669 553 l 669 434 l 315 434 l 315 239 q 315 178 323 161 q 332 143 357 143 l 357 143 q 389 143 399 166 q 410 190 410 257 l 410 257 l 410 376 l 669 376 l 669 309 q 669 226 659 181 q 648 136 610 85 q 571 35 512 9 q 452 -16 363 -16 l 363 -16 q 276 -16 210 9 q 143 34 106 78 q 69 121 55 174 q 41 227 41 327 l 41 327 l 41 589 q 41 707 73 775 q 104 844 177 880 q 250 916 344 916 l 344 916 q 459 916 534 872 q 609 829 639 756 q 669 684 669 553 l 669 553 z m 315 581 l 395 581 l 395 646 q 395 716 387 736 q 380 757 357 757 l 357 757 q 328 757 321 740 q 315 722 315 646 l 315 646 l 315 581 z m 118 1137 l 295 1137 l 295 960 l 118 960 l 118 1137 z m 414 1137 l 591 1137 l 591 960 l 414 960 l 414 1137 z "},"í":{"ha":380,"x_min":49,"x_max":424,"o":"m 49 900 l 331 900 l 331 0 l 49 0 l 49 900 z m 182 1144 l 424 1144 l 201 960 l 63 960 l 182 1144 z "},"ì":{"ha":380,"x_min":-39,"x_max":331,"o":"m 49 900 l 331 900 l 331 0 l 49 0 l 49 900 z m 184 960 l -39 1144 l 202 1144 l 321 960 l 184 960 z "},"î":{"ha":380,"x_min":-72,"x_max":457,"o":"m 49 900 l 331 900 l 331 0 l 49 0 l 49 900 z m 273 960 l 198 1049 l 118 960 l -72 960 l 102 1152 l 294 1152 l 457 960 l 273 960 z "},"ï":{"ha":380,"x_min":-44,"x_max":429,"o":"m 49 900 l 331 900 l 331 0 l 49 0 l 49 900 z m -44 1137 l 133 1137 l 133 960 l -44 960 l -44 1137 z m 252 1137 l 429 1137 l 429 960 l 252 960 l 252 1137 z "},"ñ":{"ha":726,"x_min":49,"x_max":681,"o":"m 49 900 l 328 900 l 323 817 q 353 867 396 891 q 439 916 495 916 l 495 916 q 566 916 610 883 q 655 850 668 799 q 681 749 681 631 l 681 631 l 681 0 l 407 0 l 407 623 q 407 716 401 736 q 395 757 367 757 l 367 757 q 338 757 330 733 q 323 710 323 608 l 323 608 l 323 0 l 49 0 l 49 900 z m 540 1167 l 649 1089 q 618 1021 572 994 q 527 966 492 966 l 492 966 q 444 966 389 989 l 389 989 l 338 1008 q 290 1028 267 1028 l 267 1028 q 216 1028 184 960 l 184 960 l 77 1031 q 151 1163 245 1163 l 245 1163 q 294 1163 351 1141 l 351 1141 l 393 1126 q 446 1106 465 1106 l 465 1106 q 522 1106 540 1167 l 540 1167 z "},"ó":{"ha":710,"x_min":41,"x_max":669,"o":"m 669 584 l 669 584 l 669 363 q 669 242 656 185 q 644 129 604 80 q 564 31 502 7 q 439 -16 357 -16 l 357 -16 q 267 -16 203 4 q 140 24 105 64 q 71 104 56 162 q 41 219 41 334 l 41 334 l 41 564 q 41 690 68 760 q 95 831 165 873 q 236 916 346 916 l 346 916 q 438 916 504 889 q 570 861 606 817 q 642 773 655 726 q 669 680 669 584 z m 395 237 l 395 652 q 395 721 387 739 q 380 757 355 757 l 355 757 q 331 757 323 739 q 315 721 315 652 l 315 652 l 315 245 q 315 182 323 162 q 331 143 355 143 l 355 143 q 379 143 387 161 q 395 178 395 237 l 395 237 z m 345 1144 l 587 1144 l 363 960 l 226 960 l 345 1144 z "},"ò":{"ha":710,"x_min":41,"x_max":669,"o":"m 669 584 l 669 584 l 669 363 q 669 242 656 185 q 644 129 604 80 q 564 31 502 7 q 439 -16 357 -16 l 357 -16 q 267 -16 203 4 q 140 24 105 64 q 71 104 56 162 q 41 219 41 334 l 41 334 l 41 564 q 41 690 68 760 q 95 831 165 873 q 236 916 346 916 l 346 916 q 438 916 504 889 q 570 861 606 817 q 642 773 655 726 q 669 680 669 584 z m 395 237 l 395 652 q 395 721 387 739 q 380 757 355 757 l 355 757 q 331 757 323 739 q 315 721 315 652 l 315 652 l 315 245 q 315 182 323 162 q 331 143 355 143 l 355 143 q 379 143 387 161 q 395 178 395 237 l 395 237 z m 347 960 l 123 1144 l 365 1144 l 484 960 l 347 960 z "},"ô":{"ha":710,"x_min":41,"x_max":669,"o":"m 669 584 l 669 584 l 669 363 q 669 242 656 185 q 644 129 604 80 q 564 31 502 7 q 439 -16 357 -16 l 357 -16 q 267 -16 203 4 q 140 24 105 64 q 71 104 56 162 q 41 219 41 334 l 41 334 l 41 564 q 41 690 68 760 q 95 831 165 873 q 236 916 346 916 l 346 916 q 438 916 504 889 q 570 861 606 817 q 642 773 655 726 q 669 680 669 584 z m 395 237 l 395 652 q 395 721 387 739 q 380 757 355 757 l 355 757 q 331 757 323 739 q 315 721 315 652 l 315 652 l 315 245 q 315 182 323 162 q 331 143 355 143 l 355 143 q 379 143 387 161 q 395 178 395 237 l 395 237 z m 435 960 l 360 1049 l 280 960 l 90 960 l 264 1152 l 456 1152 l 619 960 l 435 960 z "},"ö":{"ha":710,"x_min":41,"x_max":669,"o":"m 669 584 l 669 584 l 669 363 q 669 242 656 185 q 644 129 604 80 q 564 31 502 7 q 439 -16 357 -16 l 357 -16 q 267 -16 203 4 q 140 24 105 64 q 71 104 56 162 q 41 219 41 334 l 41 334 l 41 564 q 41 690 68 760 q 95 831 165 873 q 236 916 346 916 l 346 916 q 438 916 504 889 q 570 861 606 817 q 642 773 655 726 q 669 680 669 584 z m 395 237 l 395 652 q 395 721 387 739 q 380 757 355 757 l 355 757 q 331 757 323 739 q 315 721 315 652 l 315 652 l 315 245 q 315 182 323 162 q 331 143 355 143 l 355 143 q 379 143 387 161 q 395 178 395 237 l 395 237 z m 118 1137 l 295 1137 l 295 960 l 118 960 l 118 1137 z m 414 1137 l 591 1137 l 591 960 l 414 960 l 414 1137 z "},"õ":{"ha":710,"x_min":41,"x_max":669,"o":"m 669 584 l 669 584 l 669 363 q 669 242 656 185 q 644 129 604 80 q 564 31 502 7 q 439 -16 357 -16 l 357 -16 q 267 -16 203 4 q 140 24 105 64 q 71 104 56 162 q 41 219 41 334 l 41 334 l 41 564 q 41 690 68 760 q 95 831 165 873 q 236 916 346 916 l 346 916 q 438 916 504 889 q 570 861 606 817 q 642 773 655 726 q 669 680 669 584 z m 395 237 l 395 652 q 395 721 387 739 q 380 757 355 757 l 355 757 q 331 757 323 739 q 315 721 315 652 l 315 652 l 315 245 q 315 182 323 162 q 331 143 355 143 l 355 143 q 379 143 387 161 q 395 178 395 237 l 395 237 z m 532 1167 l 641 1089 q 610 1021 564 994 q 519 966 484 966 l 484 966 q 436 966 380 989 l 380 989 l 330 1008 q 282 1028 258 1028 l 258 1028 q 208 1028 176 960 l 176 960 l 68 1031 q 143 1163 237 1163 l 237 1163 q 286 1163 343 1141 l 343 1141 l 385 1126 q 438 1106 457 1106 l 457 1106 q 513 1106 532 1167 l 532 1167 z "},"ú":{"ha":726,"x_min":45,"x_max":676,"o":"m 402 900 l 676 900 l 676 0 l 397 0 l 402 75 q 374 29 332 6 q 290 -16 236 -16 l 236 -16 q 174 -16 134 5 q 93 27 74 63 q 54 99 50 138 q 45 177 45 293 l 45 293 l 45 900 l 319 900 l 319 288 q 319 182 325 163 q 332 143 360 143 l 360 143 q 391 143 396 163 q 402 184 402 294 l 402 294 l 402 900 z m 353 1144 l 594 1144 l 371 960 l 233 960 l 353 1144 z "},"ù":{"ha":726,"x_min":45,"x_max":676,"o":"m 402 900 l 676 900 l 676 0 l 397 0 l 402 75 q 374 29 332 6 q 290 -16 236 -16 l 236 -16 q 174 -16 134 5 q 93 27 74 63 q 54 99 50 138 q 45 177 45 293 l 45 293 l 45 900 l 319 900 l 319 288 q 319 182 325 163 q 332 143 360 143 l 360 143 q 391 143 396 163 q 402 184 402 294 l 402 294 l 402 900 z m 354 960 l 131 1144 l 372 1144 l 492 960 l 354 960 z "},"û":{"ha":726,"x_min":45,"x_max":676,"o":"m 402 900 l 676 900 l 676 0 l 397 0 l 402 75 q 374 29 332 6 q 290 -16 236 -16 l 236 -16 q 174 -16 134 5 q 93 27 74 63 q 54 99 50 138 q 45 177 45 293 l 45 293 l 45 900 l 319 900 l 319 288 q 319 182 325 163 q 332 143 360 143 l 360 143 q 391 143 396 163 q 402 184 402 294 l 402 294 l 402 900 z m 444 960 l 368 1049 l 288 960 l 98 960 l 273 1152 l 464 1152 l 627 960 l 444 960 z "},"ü":{"ha":726,"x_min":45,"x_max":676,"o":"m 402 900 l 676 900 l 676 0 l 397 0 l 402 75 q 374 29 332 6 q 290 -16 236 -16 l 236 -16 q 174 -16 134 5 q 93 27 74 63 q 54 99 50 138 q 45 177 45 293 l 45 293 l 45 900 l 319 900 l 319 288 q 319 182 325 163 q 332 143 360 143 l 360 143 q 391 143 396 163 q 402 184 402 294 l 402 294 l 402 900 z m 126 1137 l 303 1137 l 303 960 l 126 960 l 126 1137 z m 422 1137 l 600 1137 l 600 960 l 422 960 l 422 1137 z "},"†":{"ha":754,"x_min":24,"x_max":730,"o":"m 227 780 l 227 1098 l 528 1098 l 528 781 l 730 781 l 730 522 l 528 522 l 528 -128 l 227 -128 l 227 522 l 24 522 l 24 780 l 227 780 z "},"°":{"ha":482,"x_min":24,"x_max":457,"o":"m 24 891 l 24 891 q 24 987 89 1050 q 153 1113 241 1113 l 241 1113 q 331 1113 394 1049 q 457 986 457 897 l 457 897 q 457 807 394 744 q 330 680 241 680 l 241 680 q 146 680 85 746 q 24 812 24 891 z m 137 899 l 137 899 q 137 853 168 823 q 199 793 241 793 l 241 793 q 283 793 314 823 q 345 854 345 897 l 345 897 q 345 939 314 970 q 283 1000 241 1000 l 241 1000 q 196 1000 166 968 q 137 937 137 899 z "},"¢":{"ha":718,"x_min":41,"x_max":682,"o":"m 681 625 l 681 625 l 407 625 l 407 717 q 407 795 398 816 q 390 837 361 837 l 361 837 q 333 837 324 819 q 315 802 315 726 l 315 726 l 315 305 q 315 231 323 211 q 332 190 359 190 l 359 190 q 393 190 406 218 q 418 245 418 335 l 418 335 l 418 434 l 681 434 q 682 404 682 389 l 682 389 q 682 227 621 141 q 560 55 427 26 l 427 26 l 427 -86 l 300 -86 l 300 26 q 211 38 142 93 q 74 147 57 207 q 41 266 41 399 l 41 399 l 41 602 q 41 739 58 805 q 75 871 139 926 q 203 981 300 1000 l 300 1000 l 300 1093 l 427 1093 l 427 1000 q 493 988 548 955 q 602 921 633 875 q 665 829 673 782 q 681 736 681 625 z "},"£":{"ha":743,"x_min":49,"x_max":711,"o":"m 677 745 l 677 745 l 432 745 l 432 844 q 432 911 430 929 q 427 947 413 961 q 399 975 378 975 l 378 975 q 351 975 334 951 q 316 928 316 899 l 316 899 q 316 862 346 759 l 346 759 q 378 646 378 625 l 378 625 l 551 625 l 551 437 l 395 437 q 393 253 263 160 l 263 160 q 275 161 294 164 l 294 164 q 314 168 330 168 l 330 168 q 353 168 393 161 l 393 161 q 408 158 420 158 l 420 158 q 448 158 465 175 l 465 175 q 481 192 481 264 l 481 264 q 481 275 480 308 l 480 308 l 711 308 l 710 220 q 710 122 696 79 q 682 36 632 7 q 583 -21 507 -21 l 507 -21 q 460 -21 368 2 l 368 2 q 279 25 215 25 l 215 25 q 113 25 49 -21 l 49 -21 l 49 139 q 78 159 97 189 q 115 219 131 288 q 146 357 146 408 l 146 408 q 146 418 146 437 l 146 437 l 49 437 l 49 625 l 116 625 q 59 733 59 832 l 59 832 q 59 974 146 1046 q 234 1119 369 1119 l 369 1119 q 513 1119 599 1043 q 684 966 684 834 l 684 834 q 684 798 677 745 z "},"§":{"ha":672,"x_min":24,"x_max":648,"o":"m 595 863 l 595 863 l 378 863 l 378 880 q 378 914 365 931 q 351 948 322 948 l 322 948 q 302 948 292 938 q 281 928 281 908 l 281 908 q 281 887 302 863 l 302 863 q 323 838 412 774 l 412 774 q 571 659 609 606 q 648 554 648 494 l 648 494 q 648 370 500 301 l 500 301 q 559 241 588 186 q 617 132 617 82 l 617 82 q 617 -9 542 -82 q 467 -155 334 -155 l 334 -155 q 221 -155 150 -94 q 79 -33 77 99 l 77 99 l 294 99 q 294 12 347 12 l 347 12 q 369 12 379 23 q 390 34 390 56 l 390 56 q 390 81 369 104 l 369 104 q 348 127 296 165 l 296 165 q 141 276 83 337 q 24 399 24 471 l 24 471 q 24 583 171 667 l 171 667 q 114 718 85 772 q 56 827 56 884 l 56 884 q 56 972 126 1047 q 195 1121 334 1121 l 334 1121 q 444 1121 519 1064 q 595 1008 595 863 z m 259 589 l 259 589 q 235 565 235 538 l 235 538 q 235 519 252 501 q 269 483 340 433 l 340 433 q 388 397 413 378 l 413 378 q 437 400 437 429 l 437 429 q 437 450 413 473 q 390 496 318 547 l 318 547 q 288 568 259 589 z "},"•":{"ha":483,"x_min":41,"x_max":441,"o":"m 441 554 l 441 554 q 441 465 382 407 q 322 349 241 349 l 241 349 q 158 349 99 407 q 41 466 41 549 l 41 549 q 41 631 100 690 q 159 749 241 749 l 241 749 q 329 749 385 688 q 441 627 441 554 z "},"¶":{"ha":800,"x_min":24,"x_max":791,"o":"m 456 921 l 456 -150 l 292 -150 l 292 541 q 24 570 24 814 l 24 814 q 24 893 55 954 q 85 1015 137 1048 q 189 1082 237 1090 q 285 1098 387 1098 l 387 1098 l 791 1098 l 791 921 l 715 921 l 715 -150 l 554 -150 l 554 921 l 456 921 z "},"ß":{"ha":764,"x_min":49,"x_max":719,"o":"m 612 694 l 612 694 q 661 671 690 623 q 719 574 719 429 l 719 429 l 719 328 q 719 227 705 176 q 690 124 648 80 q 605 35 549 18 q 494 0 412 0 l 412 0 l 360 0 l 360 166 l 391 166 q 429 166 437 178 q 445 191 445 274 l 445 274 l 445 543 q 444 589 435 606 q 425 622 391 627 l 391 627 l 391 793 q 406 793 420 802 q 433 810 433 857 l 433 857 q 433 909 419 936 q 406 962 378 962 l 378 962 q 346 962 334 939 q 323 916 323 847 l 323 847 l 323 0 l 49 0 l 49 733 q 49 892 67 959 q 85 1026 158 1074 q 232 1121 363 1121 l 363 1121 q 525 1121 615 1055 q 705 989 705 872 l 705 872 q 705 766 612 694 z "},"®":{"ha":1088,"x_min":24,"x_max":1063,"o":"m 530 1039 l 530 1039 q 763 1039 913 884 q 1063 730 1063 519 l 1063 519 q 1063 305 911 153 q 758 0 544 0 l 544 0 q 328 0 176 152 q 24 304 24 519 l 24 519 q 24 671 105 797 q 185 924 306 981 q 427 1039 530 1039 z m 556 938 l 556 938 q 365 938 246 812 q 127 686 127 519 l 127 519 q 127 347 250 224 q 373 102 545 102 l 545 102 q 717 102 840 224 q 962 347 962 519 l 962 519 q 962 638 901 738 q 839 838 742 888 q 645 938 556 938 z m 427 242 l 315 242 l 315 793 l 576 793 q 673 793 718 748 q 762 703 762 637 l 762 637 q 762 574 725 535 q 688 496 613 483 l 613 483 q 647 470 667 448 q 687 426 730 353 l 730 353 l 795 242 l 657 242 l 611 331 q 570 410 538 439 q 507 468 456 468 l 456 468 l 427 468 l 427 242 z m 427 705 l 427 555 l 517 555 q 586 555 615 573 q 644 591 644 632 l 644 632 q 644 669 615 687 q 587 705 529 705 l 529 705 l 427 705 z "},"©":{"ha":1088,"x_min":24,"x_max":1063,"o":"m 530 1039 l 530 1039 q 766 1039 915 883 q 1063 727 1063 519 l 1063 519 q 1063 305 911 153 q 758 0 544 0 l 544 0 q 328 0 176 152 q 24 304 24 519 l 24 519 q 24 667 101 791 q 178 916 299 977 q 420 1039 530 1039 z m 555 937 l 555 937 q 368 937 247 812 q 127 688 127 519 l 127 519 q 127 348 249 225 q 372 102 544 102 l 544 102 q 716 102 839 225 q 961 348 961 519 l 961 519 q 961 699 834 818 q 708 937 555 937 z m 670 443 l 670 443 l 779 406 q 724 229 549 229 l 549 229 q 431 229 360 308 q 289 386 289 517 l 289 517 q 289 652 361 729 q 433 807 547 807 l 547 807 q 720 807 779 642 l 779 642 l 669 616 q 634 711 549 711 l 549 711 q 481 711 445 660 q 408 608 408 524 l 408 524 q 408 430 443 378 q 478 326 542 326 l 542 326 q 633 326 670 443 z "},"™":{"ha":1087,"x_min":8,"x_max":1055,"o":"m 292 543 l 180 543 l 180 1002 l 8 1002 l 8 1098 l 459 1098 l 459 1002 l 292 1002 l 292 543 z m 606 543 l 500 543 l 500 1098 l 676 1098 l 777 715 l 878 1098 l 1055 1098 l 1055 543 l 947 543 l 947 985 l 827 543 l 726 543 l 606 985 l 606 543 z "},"´":{"ha":463,"x_min":102,"x_max":463,"o":"m 222 1202 l 463 1202 l 240 1018 l 102 1018 l 222 1202 z "},"¨":{"ha":463,"x_min":-5,"x_max":469,"o":"m -5 1194 l 172 1194 l 172 1018 l -5 1018 l -5 1194 z m 292 1194 l 469 1194 l 469 1018 l 292 1018 l 292 1194 z "},"≠":{"ha":741,"x_min":44,"x_max":696,"o":"m 44 595 l 44 761 l 376 761 l 488 1045 l 640 1045 l 530 761 l 696 761 l 696 595 l 465 595 l 429 502 l 696 502 l 696 336 l 364 336 l 252 52 l 98 52 l 211 336 l 44 336 l 44 502 l 275 502 l 313 595 l 44 595 z "},"Æ":{"ha":991,"x_min":-8,"x_max":966,"o":"m 281 1098 l 952 1098 l 952 878 l 760 878 l 760 670 l 941 670 l 941 461 l 760 461 l 760 220 l 966 220 l 966 0 l 475 0 l 475 197 l 311 197 l 264 0 l -8 0 l 281 1098 z m 475 392 l 475 892 l 353 392 l 475 392 z "},"Ø":{"ha":759,"x_min":-37,"x_max":795,"o":"m 795 1040 l 696 909 q 709 857 709 643 l 709 643 l 709 455 q 709 290 702 221 q 694 152 653 95 q 612 38 542 7 q 472 -23 379 -23 l 379 -23 q 280 -23 210 9 q 140 42 98 106 l 98 106 l 25 12 l -37 59 l 62 189 q 49 238 49 455 l 49 455 l 49 643 q 49 808 57 877 q 64 946 105 1003 q 146 1060 216 1090 q 286 1121 379 1121 l 379 1121 q 477 1121 548 1089 q 618 1057 661 991 l 661 991 l 733 1086 l 795 1040 z m 334 551 l 424 669 l 424 816 q 424 892 415 914 q 407 935 380 935 l 380 935 q 353 935 343 912 q 334 890 334 816 l 334 816 l 334 551 z m 424 542 l 334 423 l 334 303 q 334 208 342 185 q 350 163 378 163 l 378 163 q 408 163 416 189 q 424 214 424 311 l 424 311 l 424 542 z "},"∞":{"ha":990,"x_min":36,"x_max":954,"o":"m 443 549 l 443 549 q 490 663 550 700 q 610 736 694 736 l 694 736 q 760 736 816 707 q 872 677 913 612 q 954 547 954 454 l 954 454 q 954 370 920 307 q 887 244 830 207 q 774 169 717 169 l 717 169 q 663 169 612 202 q 560 236 488 363 l 488 363 q 450 284 395 244 q 340 205 269 205 l 269 205 q 172 205 104 274 q 36 343 36 455 l 36 455 q 36 562 96 633 q 156 704 244 704 l 244 704 q 296 704 344 675 q 391 647 443 549 z m 508 411 l 508 411 q 555 311 605 272 q 654 233 720 233 l 720 233 q 807 233 861 296 q 915 359 915 454 l 915 454 q 915 552 856 618 q 798 684 724 684 l 724 684 q 666 684 622 644 q 578 605 508 411 z m 416 473 l 423 496 q 393 569 348 605 q 302 642 242 642 l 242 642 q 174 642 123 592 q 73 543 73 456 l 73 456 q 73 363 122 310 q 172 258 229 258 l 229 258 q 272 258 319 292 q 367 327 416 473 l 416 473 z "},"±":{"ha":741,"x_min":43,"x_max":697,"o":"m 452 609 l 452 368 l 287 368 l 287 609 l 43 609 l 43 774 l 287 774 l 287 1019 l 452 1019 l 452 774 l 697 774 l 697 609 l 452 609 z m 43 121 l 43 287 l 697 287 l 697 121 l 43 121 z "},"≤":{"ha":741,"x_min":43,"x_max":697,"o":"m 696 509 l 696 330 l 44 602 l 44 739 l 696 1012 l 696 833 l 294 671 l 696 509 z m 43 110 l 43 275 l 697 275 l 697 110 l 43 110 z "},"≥":{"ha":741,"x_min":43,"x_max":697,"o":"m 44 832 l 44 1012 l 696 741 l 696 602 l 44 330 l 44 509 l 447 671 l 44 832 z m 43 110 l 43 275 l 697 275 l 697 110 l 43 110 z "},"¥":{"ha":657,"x_min":-8,"x_max":665,"o":"m 665 1098 l 537 666 l 655 666 l 655 549 l 503 549 l 457 397 l 655 397 l 655 281 l 457 281 l 457 0 l 193 0 l 193 281 l 1 281 l 1 397 l 193 397 l 149 549 l 1 549 l 1 666 l 115 666 l -8 1098 l 254 1098 q 316 777 323 666 l 323 666 q 347 842 403 1098 l 403 1098 l 665 1098 z "},"µ":{"ha":654,"x_min":49,"x_max":605,"o":"m 49 -276 l 49 900 l 269 900 l 269 251 q 269 155 321 155 l 321 155 q 387 155 387 313 l 387 313 l 387 900 l 605 900 l 605 0 l 397 0 l 397 83 q 356 -13 269 -14 l 269 -14 l 269 -276 l 49 -276 z "},"∂":{"ha":680,"x_min":42,"x_max":647,"o":"m 240 780 l 240 780 l 212 780 q 247 876 306 924 q 365 972 448 972 l 448 972 q 515 972 560 941 q 604 909 626 858 q 647 806 647 701 l 647 701 q 647 468 583 304 q 518 140 441 62 q 363 -16 256 -16 l 256 -16 q 151 -16 97 47 q 42 109 42 199 l 42 199 q 42 355 170 494 q 298 633 440 633 l 440 633 q 554 633 600 532 l 600 532 q 606 584 606 618 l 606 618 q 606 692 577 739 q 549 785 509 811 q 469 837 393 837 l 393 837 q 344 837 306 823 q 267 808 240 780 z m 589 469 l 589 469 q 547 599 444 599 l 444 599 q 386 599 333 538 q 281 477 248 358 q 216 240 216 144 l 216 144 q 216 80 235 55 q 255 30 297 30 l 297 30 q 388 30 473 165 q 557 300 589 469 z "},"∑":{"ha":984,"x_min":26,"x_max":960,"o":"m 960 224 l 916 -56 l 26 -56 l 26 -32 l 479 532 l 26 1085 l 26 1111 l 892 1111 l 911 882 l 884 882 q 865 1056 715 1056 l 715 1056 l 213 1056 l 594 590 l 168 63 l 722 63 q 783 63 845 90 q 907 116 932 230 l 932 230 l 960 224 z "},"∏":{"ha":1143,"x_min":31,"x_max":1112,"o":"m 840 75 l 840 1057 l 301 1057 l 301 75 q 301 16 328 -7 q 354 -31 411 -31 l 411 -31 l 435 -31 l 435 -56 l 31 -56 l 31 -31 l 54 -31 q 117 -31 141 -5 q 165 20 165 75 l 165 75 l 165 979 q 165 1037 139 1061 q 113 1084 54 1084 l 54 1084 l 31 1084 l 31 1109 l 1112 1109 l 1112 1084 l 1088 1084 q 1029 1084 1004 1060 q 978 1036 978 979 l 978 979 l 978 75 q 978 16 1004 -7 q 1031 -31 1088 -31 l 1088 -31 l 1112 -31 l 1112 -56 l 707 -56 l 707 -31 l 730 -31 q 793 -31 817 -5 q 840 20 840 75 l 840 75 z "},"":{"ha":762,"x_min":35,"x_max":705,"o":"m 276 634 l 705 634 l 705 494 l 559 494 q 534 296 534 207 l 534 207 q 534 153 549 126 q 564 99 593 99 l 593 99 q 661 99 673 214 l 673 214 l 699 214 q 690 -19 555 -19 l 555 -19 q 491 -19 458 37 q 426 94 426 205 l 426 205 q 426 302 450 494 l 450 494 l 315 494 q 294 143 258 62 q 223 -19 169 -19 l 169 -19 q 137 -19 117 2 q 97 22 97 50 l 97 50 q 97 86 135 153 l 135 153 q 170 217 185 288 q 201 359 203 494 l 203 494 l 180 494 q 92 494 60 415 l 60 415 l 35 415 q 60 498 98 552 q 136 607 169 621 q 201 634 276 634 l 276 634 z "},"∫":{"ha":380,"x_min":0,"x_max":380,"o":"m 136 607 l 136 607 l 144 909 q 150 1142 195 1203 q 239 1263 295 1263 l 295 1263 q 331 1263 355 1240 q 380 1217 380 1191 l 380 1191 q 380 1161 362 1141 q 345 1120 317 1120 l 317 1120 q 294 1120 266 1145 l 266 1145 q 250 1158 239 1158 l 239 1158 q 212 1158 212 1116 l 212 1116 q 212 1087 218 1017 l 218 1017 q 243 738 243 566 l 243 566 q 243 519 235 247 q 227 -26 182 -88 q 138 -149 80 -149 l 80 -149 q 47 -149 23 -127 q 0 -105 0 -67 l 0 -67 q 0 -37 18 -18 q 35 0 61 0 l 61 0 q 88 0 109 -22 l 109 -22 q 127 -43 141 -43 l 141 -43 q 155 -43 161 -33 q 168 -22 168 -2 l 168 -2 q 168 26 161 79 l 161 79 q 136 294 136 607 z "},"ª":{"ha":451,"x_min":24,"x_max":426,"o":"m 191 949 l 191 924 l 24 924 q 24 991 39 1026 q 54 1061 101 1088 q 148 1116 224 1116 l 224 1116 q 313 1116 359 1088 q 404 1059 415 1016 q 426 972 426 833 l 426 833 l 426 566 l 253 566 l 253 612 q 236 583 210 568 q 184 553 150 553 l 150 553 q 87 553 56 586 q 24 620 24 687 l 24 687 l 24 731 q 24 796 47 819 q 70 842 171 878 l 171 878 q 242 903 245 915 q 248 927 248 945 l 248 945 q 248 989 242 1000 q 235 1012 218 1012 l 218 1012 q 199 1012 195 1003 q 191 994 191 949 l 191 949 z m 248 718 l 248 820 q 210 792 201 778 q 192 764 192 720 l 192 720 q 192 684 197 673 q 203 663 221 663 l 221 663 q 239 663 243 671 q 248 680 248 718 l 248 718 z "},"º":{"ha":458,"x_min":24,"x_max":433,"o":"m 433 912 l 433 912 l 433 785 q 433 700 418 655 q 403 610 355 582 q 308 553 228 553 l 228 553 q 143 553 101 577 q 58 601 41 644 q 24 686 24 767 l 24 767 l 24 901 q 24 1025 79 1071 q 134 1116 222 1116 l 222 1116 q 300 1116 348 1089 q 396 1062 414 1022 q 433 981 433 912 z m 254 708 l 254 953 q 254 994 250 1003 q 246 1012 229 1012 l 229 1012 q 212 1012 207 1002 q 203 993 203 953 l 203 953 l 203 713 q 203 676 208 666 q 212 656 227 656 l 227 656 q 245 656 250 666 q 254 675 254 708 l 254 708 z "},"Ω":{"ha":1067,"x_min":22,"x_max":1044,"o":"m 418 243 l 418 243 l 441 0 l 22 0 l 22 256 l 46 256 q 49 209 69 187 q 89 165 154 165 l 154 165 l 376 165 l 372 212 q 201 248 129 346 q 56 444 56 559 l 56 559 q 56 716 181 828 q 307 941 533 941 l 533 941 q 760 941 885 828 q 1010 716 1010 559 l 1010 559 q 1010 444 938 346 q 865 248 694 212 l 694 212 l 690 165 l 912 165 q 956 165 974 172 q 992 179 1005 198 q 1018 217 1020 256 l 1020 256 l 1044 256 l 1044 0 l 625 0 l 648 243 q 772 286 772 543 l 772 543 q 772 737 699 812 q 627 888 533 888 l 533 888 q 459 888 403 845 q 347 802 321 735 q 294 667 294 551 l 294 551 q 294 286 418 243 z "},"æ":{"ha":1046,"x_min":37,"x_max":1005,"o":"m 1005 550 l 1005 434 l 648 434 l 648 252 q 648 183 656 163 q 665 143 694 143 l 694 143 q 724 143 735 163 q 746 184 746 248 l 746 248 l 746 376 l 1005 376 l 1005 285 q 1005 196 978 135 q 951 74 881 29 q 810 -16 708 -16 l 708 -16 q 613 -16 547 9 q 480 35 441 87 l 441 87 q 404 35 353 9 q 302 -16 239 -16 l 239 -16 q 164 -16 116 14 q 67 45 52 92 q 37 138 37 245 l 37 245 q 37 340 51 375 q 64 410 108 437 q 151 465 258 502 l 258 502 q 314 521 334 534 q 353 547 361 566 q 368 585 368 649 l 368 649 q 368 709 360 733 q 352 757 330 757 l 330 757 q 308 757 301 737 q 295 718 295 637 l 295 637 l 295 551 l 38 551 l 38 618 q 38 693 48 736 q 59 779 97 822 q 134 865 192 890 q 250 916 340 916 l 340 916 q 391 916 437 904 q 484 892 527 867 l 527 867 q 558 892 600 904 q 641 916 692 916 l 692 916 q 795 916 870 871 q 944 827 975 757 q 1005 687 1005 550 l 1005 550 z m 648 581 l 731 581 l 731 662 q 731 725 720 741 q 708 757 690 757 l 690 757 q 667 757 657 739 q 648 720 648 662 l 648 662 l 648 581 z m 374 277 l 374 422 q 321 385 303 354 q 286 323 286 239 l 286 239 q 286 186 296 165 q 307 143 334 143 l 334 143 q 354 143 363 157 q 373 170 373 197 l 373 197 l 374 277 z "},"ø":{"ha":710,"x_min":41,"x_max":669,"o":"m 654 856 l 618 801 q 645 765 657 723 q 669 680 669 584 l 669 584 l 669 363 q 669 242 656 185 q 644 129 604 80 q 564 31 502 7 q 439 -16 357 -16 l 357 -16 q 280 -16 223 -2 q 166 13 130 41 l 130 41 l 109 9 l 56 44 l 86 91 q 63 129 52 176 q 41 224 41 334 l 41 334 l 41 564 q 41 690 68 760 q 95 831 165 873 q 236 916 346 916 l 346 916 q 417 916 474 899 q 531 882 573 848 l 573 848 l 601 890 l 654 856 z m 315 444 l 395 566 l 395 652 q 395 721 387 739 q 380 757 355 757 l 355 757 q 331 757 323 739 q 315 721 315 652 l 315 652 l 315 444 z m 395 449 l 315 326 l 315 245 q 315 182 323 162 q 331 143 355 143 l 355 143 q 379 143 387 161 q 395 178 395 237 l 395 237 l 395 449 z "},"¿":{"ha":729,"x_min":24,"x_max":671,"o":"m 653 746 l 397 746 l 397 966 l 653 966 l 653 746 z m 397 155 l 397 222 l 671 222 q 670 77 647 11 q 624 -56 547 -106 q 470 -155 351 -155 l 351 -155 q 264 -155 200 -128 q 136 -101 98 -53 q 60 -4 42 52 q 24 109 24 228 l 24 228 l 24 362 q 24 454 41 510 q 58 565 115 607 q 172 649 249 649 l 249 649 q 353 649 397 572 l 397 572 l 397 689 l 653 689 l 653 387 l 404 387 q 403 450 359 450 l 359 450 q 325 450 316 423 q 307 395 307 288 l 307 288 l 307 105 q 307 45 315 25 q 323 4 349 4 l 349 4 q 380 4 389 31 q 397 58 397 155 l 397 155 z "},"¡":{"ha":375,"x_min":24,"x_max":326,"o":"m 303 746 l 47 746 l 47 966 l 303 966 l 303 746 z m 326 -132 l 24 -132 l 69 694 l 281 694 l 326 -132 z "},"¬":{"ha":741,"x_min":43,"x_max":697,"o":"m 43 597 l 43 764 l 697 764 l 697 334 l 532 334 l 532 597 l 43 597 z "},"√":{"ha":762,"x_min":57,"x_max":762,"o":"m 536 165 l 712 1267 l 762 1267 l 551 -53 l 214 640 l 80 578 l 57 621 l 261 724 l 536 165 z "},"ƒ":{"ha":616,"x_min":-33,"x_max":616,"o":"m 471 1119 l 616 1119 l 587 975 q 549 975 540 972 q 531 969 526 942 l 526 942 q 525 937 520 913 l 520 913 l 474 681 l 574 681 l 542 516 l 442 516 l 352 60 q 326 -70 278 -113 q 229 -155 90 -155 l 90 -155 l -33 -155 l -3 -11 q 38 -11 44 -5 q 51 1 60 45 l 60 45 l 154 516 l 60 516 l 90 681 l 188 681 l 229 892 q 252 1017 280 1051 q 307 1086 343 1102 q 379 1119 471 1119 l 471 1119 z "},"≈":{"ha":729,"x_min":39,"x_max":690,"o":"m 690 853 l 690 666 q 585 577 502 577 l 502 577 q 466 577 433 587 q 400 596 324 633 l 324 633 q 259 665 227 665 l 227 665 q 189 665 150 643 q 111 621 39 553 l 39 553 l 39 742 q 136 830 235 830 l 235 830 q 293 830 392 782 l 392 782 q 472 743 507 743 l 507 743 q 573 743 690 853 l 690 853 z m 690 591 l 690 404 l 681 397 q 581 315 502 315 l 502 315 q 466 315 433 325 q 400 334 324 371 l 324 371 q 259 403 227 403 l 227 403 q 195 403 154 383 q 113 363 39 292 l 39 292 l 39 480 q 136 568 235 568 l 235 568 q 293 568 392 520 l 392 520 q 472 481 507 481 l 507 481 q 573 481 690 591 l 690 591 z "},"∆":{"ha":854,"x_min":20,"x_max":833,"o":"m 446 941 l 833 0 l 20 0 l 446 941 z m 104 56 l 673 56 l 403 711 l 104 56 z "},"«":{"ha":515,"x_min":24,"x_max":491,"o":"m 24 471 l 81 840 l 242 840 l 185 471 l 242 84 l 81 84 l 24 471 z m 273 471 l 330 840 l 491 840 l 433 471 l 491 84 l 330 84 l 273 471 z "},"»":{"ha":515,"x_min":24,"x_max":491,"o":"m 273 840 l 433 840 l 491 471 l 433 84 l 273 84 l 330 471 l 273 840 z m 24 840 l 185 840 l 242 471 l 185 84 l 24 84 l 81 471 l 24 840 z "},"…":{"ha":768,"x_min":24,"x_max":744,"o":"m 24 224 l 231 224 l 231 0 l 24 0 l 24 224 z m 537 224 l 744 224 l 744 0 l 537 0 l 537 224 z m 281 224 l 488 224 l 488 0 l 281 0 l 281 224 z "}," ":{"ha":245,"x_min":0,"x_max":0,"o":""},"À":{"ha":705,"x_min":-8,"x_max":713,"o":"m 137 1098 l 550 1098 l 713 0 l 421 0 l 407 197 l 304 197 l 288 0 l -8 0 l 137 1098 z m 301 392 l 399 392 q 377 578 355 852 l 355 852 q 312 538 301 392 l 301 392 z m 326 1133 l 103 1316 l 345 1316 l 464 1133 l 326 1133 z "},"Ã":{"ha":705,"x_min":-8,"x_max":713,"o":"m 137 1098 l 550 1098 l 713 0 l 421 0 l 407 197 l 304 197 l 288 0 l -8 0 l 137 1098 z m 301 392 l 399 392 q 377 578 355 852 l 355 852 q 312 538 301 392 l 301 392 z m 521 1339 l 630 1261 q 599 1193 553 1166 q 508 1139 473 1139 l 473 1139 q 425 1139 370 1161 l 370 1161 l 319 1181 q 271 1200 248 1200 l 248 1200 q 197 1200 165 1133 l 165 1133 l 58 1204 q 132 1335 226 1335 l 226 1335 q 275 1335 332 1314 l 332 1314 l 374 1298 q 427 1278 446 1278 l 446 1278 q 503 1278 521 1339 l 521 1339 z "},"Õ":{"ha":759,"x_min":49,"x_max":709,"o":"m 709 643 l 709 455 q 709 290 702 221 q 694 152 653 95 q 612 38 542 7 q 472 -23 379 -23 l 379 -23 q 291 -23 221 6 q 151 35 108 92 q 65 150 57 218 q 49 286 49 455 l 49 455 l 49 643 q 49 808 57 877 q 64 946 105 1003 q 146 1060 216 1090 q 286 1121 379 1121 l 379 1121 q 467 1121 537 1092 q 608 1063 650 1006 q 693 948 701 880 q 709 812 709 643 l 709 643 z m 424 311 l 424 816 q 424 892 415 914 q 407 935 380 935 l 380 935 q 358 935 346 918 q 334 901 334 816 l 334 816 l 334 303 q 334 208 342 185 q 350 163 378 163 l 378 163 q 408 163 416 189 q 424 214 424 311 l 424 311 z m 556 1339 l 665 1261 q 634 1193 589 1166 q 543 1139 509 1139 l 509 1139 q 460 1139 405 1161 l 405 1161 l 355 1181 q 307 1200 283 1200 l 283 1200 q 233 1200 200 1133 l 200 1133 l 93 1204 q 168 1335 261 1335 l 261 1335 q 310 1335 368 1314 l 368 1314 l 410 1298 q 463 1278 481 1278 l 481 1278 q 538 1278 556 1339 l 556 1339 z "},"Œ":{"ha":956,"x_min":49,"x_max":931,"o":"m 504 1098 l 908 1098 l 908 878 l 715 878 l 715 670 l 899 670 l 899 461 l 715 461 l 715 220 l 931 220 l 931 0 l 502 0 q 409 -12 374 -12 l 374 -12 q 287 -12 214 19 q 142 50 106 97 q 71 144 60 195 q 49 246 49 358 l 49 358 l 49 717 q 49 839 58 896 q 68 953 107 1002 q 146 1051 214 1080 q 281 1109 378 1109 l 378 1109 q 435 1109 504 1098 l 504 1098 z m 430 340 l 430 753 q 430 787 429 803 l 429 803 q 428 833 428 844 l 428 844 q 428 924 380 924 l 380 924 q 353 924 344 906 q 335 888 335 843 l 335 843 l 334 793 l 334 353 q 334 226 341 200 q 349 174 380 174 l 380 174 q 411 174 420 203 q 430 233 430 340 l 430 340 z "},"œ":{"ha":1063,"x_min":41,"x_max":1021,"o":"m 1021 564 l 1021 434 l 669 434 l 669 233 q 669 177 677 160 q 686 143 710 143 l 710 143 q 739 143 751 172 q 762 200 762 264 l 762 264 l 762 376 l 1021 376 l 1021 287 q 1021 195 993 134 q 964 73 890 28 q 817 -16 715 -16 l 715 -16 q 662 -16 616 -6 q 570 5 530 26 l 530 26 q 493 5 450 -6 q 406 -16 356 -16 l 356 -16 q 264 -16 197 13 q 131 42 95 86 q 60 131 50 178 q 41 224 41 336 l 41 336 l 41 532 q 41 677 59 742 q 78 807 154 862 q 229 916 345 916 l 345 916 q 397 916 443 903 q 490 889 530 862 l 530 862 q 566 889 610 903 q 654 916 707 916 l 707 916 q 803 916 886 870 q 970 825 996 751 q 1021 678 1021 564 l 1021 564 z m 395 253 l 395 627 q 395 715 387 736 q 380 757 353 757 l 353 757 q 330 757 322 737 q 315 718 315 654 l 315 654 l 315 262 q 315 178 321 160 q 327 143 353 143 l 353 143 q 378 143 387 162 q 395 182 395 253 l 395 253 z m 669 580 l 747 580 l 747 676 q 747 734 735 745 q 722 757 707 757 l 707 757 q 685 757 677 742 q 669 726 669 676 l 669 676 l 669 580 z "},"–":{"ha":694,"x_min":-8,"x_max":703,"o":"m -8 366 l -8 534 l 703 534 l 703 366 l -8 366 z "},"—":{"ha":1389,"x_min":-8,"x_max":1397,"o":"m -8 366 l -8 534 l 1397 534 l 1397 366 l -8 366 z "},"“":{"ha":479,"x_min":24,"x_max":454,"o":"m 454 743 l 270 743 l 270 841 q 270 918 289 968 q 307 1017 352 1052 q 397 1086 454 1098 l 454 1098 l 454 1019 q 414 996 408 958 l 408 958 l 454 958 l 454 743 z m 208 743 l 24 743 l 24 841 q 24 918 43 968 q 62 1017 107 1052 q 152 1086 208 1098 l 208 1098 l 208 1019 q 168 996 163 958 l 163 958 l 208 958 l 208 743 z "},"”":{"ha":479,"x_min":24,"x_max":454,"o":"m 270 1098 l 454 1098 l 454 1000 q 454 923 435 873 q 417 823 372 789 q 327 755 270 743 l 270 743 l 270 822 q 310 844 315 883 l 315 883 l 270 883 l 270 1098 z m 24 1098 l 208 1098 l 208 1000 q 208 923 190 873 q 172 823 126 789 q 81 755 24 743 l 24 743 l 24 822 q 65 844 71 883 l 71 883 l 24 883 l 24 1098 z "},"‘":{"ha":233,"x_min":24,"x_max":208,"o":"m 208 743 l 24 743 l 24 841 q 24 918 43 968 q 62 1017 107 1052 q 152 1086 208 1098 l 208 1098 l 208 1019 q 168 996 163 958 l 163 958 l 208 958 l 208 743 z "},"’":{"ha":233,"x_min":24,"x_max":208,"o":"m 24 1098 l 208 1098 l 208 1000 q 208 923 190 873 q 172 823 126 789 q 81 755 24 743 l 24 743 l 24 822 q 65 844 71 883 l 71 883 l 24 883 l 24 1098 z "},"÷":{"ha":741,"x_min":43,"x_max":697,"o":"m 274 776 l 274 776 q 274 816 302 843 q 330 870 368 870 l 368 870 q 407 870 435 842 q 463 814 463 777 l 463 777 q 463 738 435 710 q 407 682 368 682 l 368 682 q 328 682 301 711 q 274 739 274 776 z m 43 469 l 43 629 l 697 629 l 697 469 l 43 469 z m 274 323 l 274 323 q 274 366 302 393 q 331 420 369 420 l 369 420 q 408 420 436 392 q 464 365 464 325 l 464 325 q 464 286 436 258 q 408 231 369 231 l 369 231 q 329 231 301 259 q 274 288 274 323 z "},"◊":{"ha":686,"x_min":31,"x_max":655,"o":"m 296 964 l 372 964 l 655 481 l 372 0 l 296 0 l 31 481 l 296 964 z m 578 481 l 335 899 l 104 481 l 335 64 l 578 481 z "},"ÿ":{"ha":623,"x_min":-8,"x_max":623,"o":"m 374 900 l 623 900 l 544 249 q 526 94 513 38 q 500 -18 471 -55 q 442 -92 390 -109 q 338 -126 224 -126 l 224 -126 l 58 -126 l 58 18 q 122 18 140 24 q 159 31 159 53 l 159 53 q 159 64 142 147 l 142 147 l -8 900 l 241 900 l 330 293 l 374 900 z m 84 1137 l 261 1137 l 261 960 l 84 960 l 84 1137 z m 380 1137 l 557 1137 l 557 960 l 380 960 l 380 1137 z "},"Ÿ":{"ha":657,"x_min":-8,"x_max":665,"o":"m 403 1098 l 665 1098 l 457 397 l 457 0 l 193 0 l 193 397 l -8 1098 l 254 1098 q 316 777 323 666 l 323 666 q 347 842 403 1098 l 403 1098 z m 92 1309 l 269 1309 l 269 1133 l 92 1133 l 92 1309 z m 389 1309 l 566 1309 l 566 1133 l 389 1133 l 389 1309 z "},"∕":{"ha":174,"x_min":-180,"x_max":353,"o":"m 251 1119 l 353 1119 l -75 -21 l -180 -21 l 251 1119 z "},"€":{"ha":737,"x_min":-17,"x_max":692,"o":"m 310 802 l 310 703 l 387 703 l 387 586 l 310 586 l 310 532 l 387 532 l 387 415 l 310 415 l 310 292 q 310 234 314 213 q 318 192 334 177 q 351 163 375 163 l 375 163 q 395 163 413 175 q 430 186 434 209 q 439 232 439 301 l 439 301 l 439 406 l 692 406 l 692 363 q 692 210 663 137 q 635 64 558 20 q 481 -24 372 -24 l 372 -24 q 285 -24 215 7 q 145 38 108 90 q 71 141 60 202 q 49 263 49 386 l 49 386 l 49 415 l -17 415 l -17 532 l 49 532 l 49 586 l -17 586 l -17 703 l 49 703 l 49 722 q 49 828 58 890 q 67 953 109 1006 q 150 1060 221 1090 q 292 1121 380 1121 l 380 1121 q 469 1121 540 1089 q 612 1057 652 986 q 692 916 692 757 l 692 757 l 692 721 l 439 721 l 439 810 q 437 880 434 898 q 431 916 419 925 q 408 935 382 935 l 382 935 q 352 935 334 921 q 317 907 313 884 q 310 861 310 802 l 310 802 z "},"‹":{"ha":275,"x_min":24,"x_max":250,"o":"m 24 472 l 83 852 l 250 852 l 191 472 l 250 71 l 83 71 l 24 472 z "},"›":{"ha":275,"x_min":24,"x_max":250,"o":"m 24 852 l 191 852 l 250 472 l 191 71 l 24 71 l 83 472 l 24 852 z "},"ﬁ":{"ha":779,"x_min":3,"x_max":729,"o":"m 447 1098 l 729 1098 l 729 955 l 447 955 l 447 1098 z m 298 1098 l 398 1098 l 398 959 q 313 959 298 951 q 283 943 283 907 l 283 907 l 283 878 l 398 878 l 398 736 l 333 736 l 333 0 l 59 0 l 59 736 l 3 736 l 3 878 l 59 878 q 59 967 65 997 q 71 1027 95 1050 q 119 1074 163 1086 q 206 1098 298 1098 l 298 1098 z m 447 900 l 729 900 l 729 0 l 447 0 l 447 900 z "},"ﬂ":{"ha":777,"x_min":3,"x_max":727,"o":"m 298 1098 l 398 1098 l 398 959 q 313 959 298 951 q 283 943 283 907 l 283 907 l 283 878 l 398 878 l 398 736 l 333 736 l 333 0 l 59 0 l 59 736 l 3 736 l 3 878 l 59 878 q 59 967 65 997 q 71 1027 95 1050 q 119 1074 163 1086 q 206 1098 298 1098 l 298 1098 z m 445 1098 l 727 1098 l 727 0 l 445 0 l 445 1098 z "},"‡":{"ha":755,"x_min":24,"x_max":730,"o":"m 227 844 l 227 1098 l 528 1098 l 528 844 l 730 844 l 730 586 l 528 586 l 528 384 l 730 384 l 730 125 l 528 125 l 528 -128 l 227 -128 l 227 125 l 24 125 l 24 384 l 227 384 l 227 586 l 24 586 l 24 844 l 227 844 z "},"∙":{"ha":305,"x_min":49,"x_max":256,"o":"m 49 659 l 256 659 l 256 435 l 49 435 l 49 659 z "},"‚":{"ha":233,"x_min":24,"x_max":208,"o":"m 24 215 l 208 215 l 208 117 q 208 39 190 -10 q 172 -60 126 -94 q 81 -129 24 -140 l 24 -140 l 24 -62 q 65 -39 71 0 l 71 0 l 24 0 l 24 215 z "},"„":{"ha":479,"x_min":24,"x_max":454,"o":"m 270 215 l 454 215 l 454 117 q 454 39 435 -10 q 417 -60 372 -94 q 327 -129 270 -140 l 270 -140 l 270 -62 q 310 -39 315 0 l 315 0 l 270 0 l 270 215 z m 24 215 l 208 215 l 208 117 q 208 39 190 -10 q 172 -60 126 -94 q 81 -129 24 -140 l 24 -140 l 24 -62 q 65 -39 71 0 l 71 0 l 24 0 l 24 215 z "},"‰":{"ha":1423,"x_min":24,"x_max":1399,"o":"m 645 1119 l 748 1119 l 319 -21 l 214 -21 l 645 1119 z m 429 911 l 429 911 l 429 722 q 429 648 415 611 q 401 574 355 547 q 309 519 234 519 l 234 519 q 147 519 102 546 q 56 572 40 608 q 24 645 24 713 l 24 713 l 24 911 q 24 992 41 1031 q 58 1070 105 1095 q 153 1119 222 1119 l 222 1119 q 300 1119 348 1092 q 396 1065 412 1027 q 429 989 429 911 z m 255 677 l 255 959 q 255 1002 251 1013 q 246 1023 227 1023 l 227 1023 q 208 1023 203 1012 q 197 1001 197 959 l 197 959 l 197 682 q 197 635 202 625 q 207 616 227 616 l 227 616 q 245 616 250 627 q 255 637 255 677 l 255 677 z m 938 380 l 938 380 l 938 191 q 938 118 924 81 q 910 43 864 16 q 819 -12 743 -12 l 743 -12 q 657 -12 611 15 q 566 41 550 78 q 534 115 534 182 l 534 182 l 534 380 q 534 461 550 500 q 567 539 614 564 q 662 589 732 589 l 732 589 q 810 589 858 562 q 906 534 922 496 q 938 458 938 380 z m 764 147 l 764 428 q 764 471 760 482 q 755 492 736 492 l 736 492 q 718 492 712 481 q 707 471 707 428 l 707 428 l 707 151 q 707 104 712 95 q 717 85 736 85 l 736 85 q 755 85 760 96 q 764 106 764 147 l 764 147 z m 1399 380 l 1399 380 l 1399 191 q 1399 118 1385 81 q 1371 43 1325 16 q 1280 -12 1204 -12 l 1204 -12 q 1118 -12 1073 15 q 1027 41 1011 78 q 995 115 995 182 l 995 182 l 995 380 q 995 461 1011 500 q 1028 539 1076 564 q 1123 589 1193 589 l 1193 589 q 1271 589 1319 562 q 1367 534 1383 496 q 1399 458 1399 380 z m 1225 147 l 1225 428 q 1225 471 1221 482 q 1217 492 1197 492 l 1197 492 q 1179 492 1174 481 q 1168 471 1168 428 l 1168 428 l 1168 151 q 1168 104 1173 95 q 1178 85 1198 85 l 1198 85 q 1215 85 1220 96 q 1225 106 1225 147 l 1225 147 z "},"Â":{"ha":705,"x_min":-8,"x_max":713,"o":"m 137 1098 l 550 1098 l 713 0 l 421 0 l 407 197 l 304 197 l 288 0 l -8 0 l 137 1098 z m 301 392 l 399 392 q 377 578 355 852 l 355 852 q 312 538 301 392 l 301 392 z m 421 1133 l 346 1221 l 266 1133 l 76 1133 l 250 1324 l 441 1324 l 605 1133 l 421 1133 z "},"Ê":{"ha":577,"x_min":24,"x_max":553,"o":"m 57 0 l 57 1098 l 533 1098 l 533 878 l 342 878 l 342 670 l 521 670 l 521 461 l 342 461 l 342 220 l 552 220 l 552 0 l 57 0 z m 369 1133 l 294 1221 l 214 1133 l 24 1133 l 198 1324 l 389 1324 l 553 1133 l 369 1133 z "},"Á":{"ha":705,"x_min":-8,"x_max":713,"o":"m 137 1098 l 550 1098 l 713 0 l 421 0 l 407 197 l 304 197 l 288 0 l -8 0 l 137 1098 z m 301 392 l 399 392 q 377 578 355 852 l 355 852 q 312 538 301 392 l 301 392 z m 343 1316 l 585 1316 l 361 1133 l 224 1133 l 343 1316 z "},"Ë":{"ha":577,"x_min":52,"x_max":552,"o":"m 57 0 l 57 1098 l 533 1098 l 533 878 l 342 878 l 342 670 l 521 670 l 521 461 l 342 461 l 342 220 l 552 220 l 552 0 l 57 0 z m 52 1309 l 229 1309 l 229 1133 l 52 1133 l 52 1309 z m 348 1309 l 525 1309 l 525 1133 l 348 1133 l 348 1309 z "},"È":{"ha":577,"x_min":57,"x_max":552,"o":"m 57 0 l 57 1098 l 533 1098 l 533 878 l 342 878 l 342 670 l 521 670 l 521 461 l 342 461 l 342 220 l 552 220 l 552 0 l 57 0 z m 280 1133 l 57 1316 l 298 1316 l 418 1133 l 280 1133 z "},"Í":{"ha":400,"x_min":57,"x_max":431,"o":"m 57 1098 l 342 1098 l 342 0 l 57 0 l 57 1098 z m 190 1316 l 431 1316 l 208 1133 l 71 1133 l 190 1316 z "},"Î":{"ha":400,"x_min":-64,"x_max":465,"o":"m 57 1098 l 342 1098 l 342 0 l 57 0 l 57 1098 z m 281 1133 l 205 1221 l 125 1133 l -64 1133 l 110 1324 l 301 1324 l 465 1133 l 281 1133 z "},"Ï":{"ha":400,"x_min":-37,"x_max":437,"o":"m 57 1098 l 342 1098 l 342 0 l 57 0 l 57 1098 z m -37 1309 l 140 1309 l 140 1133 l -37 1133 l -37 1309 z m 260 1309 l 437 1309 l 437 1133 l 260 1133 l 260 1309 z "},"Ì":{"ha":400,"x_min":-32,"x_max":342,"o":"m 57 1098 l 342 1098 l 342 0 l 57 0 l 57 1098 z m 191 1133 l -32 1316 l 210 1316 l 329 1133 l 191 1133 z "},"Ó":{"ha":759,"x_min":49,"x_max":709,"o":"m 709 643 l 709 455 q 709 290 702 221 q 694 152 653 95 q 612 38 542 7 q 472 -23 379 -23 l 379 -23 q 291 -23 221 6 q 151 35 108 92 q 65 150 57 218 q 49 286 49 455 l 49 455 l 49 643 q 49 808 57 877 q 64 946 105 1003 q 146 1060 216 1090 q 286 1121 379 1121 l 379 1121 q 467 1121 537 1092 q 608 1063 650 1006 q 693 948 701 880 q 709 812 709 643 l 709 643 z m 424 311 l 424 816 q 424 892 415 914 q 407 935 380 935 l 380 935 q 358 935 346 918 q 334 901 334 816 l 334 816 l 334 303 q 334 208 342 185 q 350 163 378 163 l 378 163 q 408 163 416 189 q 424 214 424 311 l 424 311 z m 369 1316 l 610 1316 l 387 1133 l 250 1133 l 369 1316 z "},"Ô":{"ha":759,"x_min":49,"x_max":709,"o":"m 709 643 l 709 455 q 709 290 702 221 q 694 152 653 95 q 612 38 542 7 q 472 -23 379 -23 l 379 -23 q 291 -23 221 6 q 151 35 108 92 q 65 150 57 218 q 49 286 49 455 l 49 455 l 49 643 q 49 808 57 877 q 64 946 105 1003 q 146 1060 216 1090 q 286 1121 379 1121 l 379 1121 q 467 1121 537 1092 q 608 1063 650 1006 q 693 948 701 880 q 709 812 709 643 l 709 643 z m 424 311 l 424 816 q 424 892 415 914 q 407 935 380 935 l 380 935 q 358 935 346 918 q 334 901 334 816 l 334 816 l 334 303 q 334 208 342 185 q 350 163 378 163 l 378 163 q 408 163 416 189 q 424 214 424 311 l 424 311 z m 460 1133 l 385 1221 l 304 1133 l 115 1133 l 289 1324 l 480 1324 l 644 1133 l 460 1133 z "},"":{"ha":1097,"x_min":0,"x_max":0,"o":""},"Ò":{"ha":759,"x_min":49,"x_max":709,"o":"m 709 643 l 709 455 q 709 290 702 221 q 694 152 653 95 q 612 38 542 7 q 472 -23 379 -23 l 379 -23 q 291 -23 221 6 q 151 35 108 92 q 65 150 57 218 q 49 286 49 455 l 49 455 l 49 643 q 49 808 57 877 q 64 946 105 1003 q 146 1060 216 1090 q 286 1121 379 1121 l 379 1121 q 467 1121 537 1092 q 608 1063 650 1006 q 693 948 701 880 q 709 812 709 643 l 709 643 z m 424 311 l 424 816 q 424 892 415 914 q 407 935 380 935 l 380 935 q 358 935 346 918 q 334 901 334 816 l 334 816 l 334 303 q 334 208 342 185 q 350 163 378 163 l 378 163 q 408 163 416 189 q 424 214 424 311 l 424 311 z m 371 1133 l 148 1316 l 389 1316 l 509 1133 l 371 1133 z "},"Ú":{"ha":760,"x_min":53,"x_max":706,"o":"m 420 1098 l 706 1098 l 706 364 q 706 239 698 189 q 690 138 650 85 q 610 32 544 4 q 479 -23 390 -23 l 390 -23 q 292 -23 216 9 q 141 42 104 94 q 66 146 60 204 q 53 262 53 448 l 53 448 l 53 1098 l 338 1098 l 338 275 q 338 203 346 183 q 354 163 378 163 l 378 163 q 405 163 413 185 q 420 207 420 289 l 420 289 l 420 1098 z m 370 1316 l 611 1316 l 388 1133 l 250 1133 l 370 1316 z "},"Û":{"ha":760,"x_min":53,"x_max":706,"o":"m 420 1098 l 706 1098 l 706 364 q 706 239 698 189 q 690 138 650 85 q 610 32 544 4 q 479 -23 390 -23 l 390 -23 q 292 -23 216 9 q 141 42 104 94 q 66 146 60 204 q 53 262 53 448 l 53 448 l 53 1098 l 338 1098 l 338 275 q 338 203 346 183 q 354 163 378 163 l 378 163 q 405 163 413 185 q 420 207 420 289 l 420 289 l 420 1098 z m 460 1133 l 385 1221 l 305 1133 l 115 1133 l 290 1324 l 481 1324 l 644 1133 l 460 1133 z "},"Ù":{"ha":760,"x_min":53,"x_max":706,"o":"m 420 1098 l 706 1098 l 706 364 q 706 239 698 189 q 690 138 650 85 q 610 32 544 4 q 479 -23 390 -23 l 390 -23 q 292 -23 216 9 q 141 42 104 94 q 66 146 60 204 q 53 262 53 448 l 53 448 l 53 1098 l 338 1098 l 338 275 q 338 203 346 183 q 354 163 378 163 l 378 163 q 405 163 413 185 q 420 207 420 289 l 420 289 l 420 1098 z m 371 1133 l 148 1316 l 389 1316 l 509 1133 l 371 1133 z "},"ı":{"ha":380,"x_min":49,"x_max":331,"o":"m 49 900 l 331 900 l 331 0 l 49 0 l 49 900 z "},"ˆ":{"ha":463,"x_min":-33,"x_max":496,"o":"m 313 1018 l 237 1107 l 157 1018 l -33 1018 l 142 1209 l 333 1209 l 496 1018 l 313 1018 z "},"˜":{"ha":463,"x_min":-55,"x_max":517,"o":"m 408 1225 l 517 1147 q 486 1078 441 1051 q 395 1024 361 1024 l 361 1024 q 313 1024 257 1046 l 257 1046 l 207 1066 q 159 1086 135 1086 l 135 1086 q 85 1086 52 1018 l 52 1018 l -55 1089 q 20 1221 113 1221 l 113 1221 q 162 1221 220 1199 l 220 1199 l 262 1183 q 315 1164 334 1164 l 334 1164 q 390 1164 408 1225 l 408 1225 z "},"ˉ":{"ha":463,"x_min":-39,"x_max":501,"o":"m -39 1135 l 501 1135 l 501 1018 l -39 1018 l -39 1135 z "},"˘":{"ha":463,"x_min":39,"x_max":424,"o":"m 309 1223 l 309 1223 l 424 1223 q 420 1131 370 1074 q 320 1018 231 1018 l 231 1018 q 142 1018 93 1075 q 43 1131 39 1223 l 39 1223 l 155 1223 q 163 1130 231 1130 l 231 1130 q 300 1130 309 1223 z "},"˙":{"ha":463,"x_min":143,"x_max":320,"o":"m 143 1194 l 320 1194 l 320 1018 l 143 1018 l 143 1194 z "},"˚":{"ha":463,"x_min":89,"x_max":374,"o":"m 232 1303 l 232 1303 q 289 1303 332 1262 q 374 1221 374 1160 l 374 1160 q 374 1101 332 1060 q 290 1018 232 1018 l 232 1018 q 172 1018 131 1060 q 89 1101 89 1160 l 89 1160 q 89 1219 131 1261 q 173 1303 232 1303 z m 231 1214 l 231 1214 q 208 1214 192 1198 q 175 1181 175 1158 l 175 1158 q 175 1135 192 1118 q 208 1102 231 1102 l 231 1102 q 254 1102 270 1118 q 287 1135 287 1158 l 287 1158 q 287 1181 270 1198 q 254 1214 231 1214 z "},"¸":{"ha":463,"x_min":77,"x_max":354,"o":"m 177 8 l 256 8 l 256 -76 q 292 -76 323 -100 q 354 -123 354 -165 l 354 -165 q 354 -217 312 -255 q 270 -293 212 -293 l 212 -293 q 106 -293 77 -186 l 77 -186 l 177 -186 q 186 -214 211 -214 l 211 -214 q 231 -214 241 -203 q 251 -193 251 -173 l 251 -173 q 251 -151 237 -139 q 223 -128 195 -128 l 195 -128 q 189 -128 177 -129 l 177 -129 l 177 8 z "},"˝":{"ha":463,"x_min":16,"x_max":545,"o":"m 96 1228 l 281 1228 l 117 1018 l 16 1018 l 96 1228 z m 361 1228 l 545 1228 l 382 1018 l 281 1018 l 361 1228 z "},"˛":{"ha":463,"x_min":106,"x_max":359,"o":"m 178 14 l 178 14 l 277 14 q 205 -55 205 -91 l 205 -91 q 205 -113 217 -124 q 229 -135 254 -135 l 254 -135 q 288 -135 331 -117 l 331 -117 l 359 -185 q 302 -214 241 -214 l 241 -214 q 182 -214 144 -186 q 106 -159 106 -109 l 106 -109 q 106 -49 178 14 z "},"ˇ":{"ha":463,"x_min":-33,"x_max":496,"o":"m 157 1209 l 237 1120 l 313 1209 l 496 1209 l 333 1018 l 142 1018 l -33 1209 l 157 1209 z "},"Ł":{"ha":532,"x_min":9,"x_max":524,"o":"m 351 1098 l 351 686 l 516 723 l 516 606 l 351 569 l 351 220 l 524 220 l 524 0 l 65 0 l 65 505 l 9 492 l 9 608 l 65 621 l 65 1098 l 351 1098 z "},"ł":{"ha":397,"x_min":9,"x_max":387,"o":"m 339 1098 l 339 709 l 387 723 l 387 606 l 339 592 l 339 0 l 57 0 l 57 507 l 9 492 l 9 608 l 57 623 l 57 1098 l 339 1098 z "},"Š":{"ha":718,"x_min":33,"x_max":686,"o":"m 662 809 l 662 766 l 397 766 l 397 847 q 397 904 387 920 q 376 935 353 935 l 353 935 q 327 935 314 914 q 300 893 300 850 l 300 850 q 300 795 315 768 l 315 768 q 330 740 396 701 l 396 701 q 587 587 636 515 l 636 515 q 686 442 686 281 l 686 281 q 686 163 658 108 q 631 52 552 15 q 473 -23 369 -23 l 369 -23 q 254 -23 173 20 q 92 64 67 131 q 42 198 42 321 l 42 321 l 42 393 l 307 393 l 307 260 q 307 198 318 180 q 330 163 358 163 l 358 163 q 387 163 400 185 q 414 208 414 252 l 414 252 q 414 349 388 378 l 388 378 q 361 408 254 478 l 254 478 q 148 549 113 581 q 79 612 56 669 q 33 725 33 812 l 33 812 q 33 939 65 997 q 98 1055 170 1088 q 241 1121 343 1121 l 343 1121 q 454 1121 533 1085 q 611 1049 636 995 q 662 940 662 809 l 662 809 z m 284 1324 l 364 1235 l 439 1324 l 623 1324 l 460 1133 l 269 1133 l 94 1324 l 284 1324 z "},"š":{"ha":654,"x_min":28,"x_max":629,"o":"m 608 665 l 608 612 l 366 612 l 366 661 q 366 724 358 740 q 351 757 323 757 l 323 757 q 300 757 288 742 q 277 726 277 696 l 277 696 q 277 654 282 635 q 288 616 317 593 q 346 570 435 526 l 435 526 q 555 467 592 416 l 592 416 q 629 364 629 266 l 629 266 q 629 156 601 100 q 572 44 506 14 q 439 -16 345 -16 l 345 -16 q 240 -16 166 16 q 92 49 64 104 q 36 160 36 273 l 36 273 l 36 316 l 279 316 l 279 259 q 279 186 288 165 q 297 143 324 143 l 324 143 q 353 143 365 158 q 376 172 376 219 l 376 219 q 376 283 361 300 l 361 300 q 346 316 202 396 l 202 396 q 81 464 55 519 q 28 574 28 650 l 28 650 q 28 758 57 809 q 85 861 154 888 q 222 916 312 916 l 312 916 q 401 916 464 893 q 527 871 561 833 q 594 796 601 764 q 608 732 608 665 l 608 665 z m 252 1152 l 332 1063 l 408 1152 l 591 1152 l 428 960 l 237 960 l 62 1152 l 252 1152 z "},"Ž":{"ha":551,"x_min":8,"x_max":540,"o":"m 34 1098 l 534 1098 l 534 878 l 321 220 l 534 220 l 534 0 l 8 0 l 8 159 l 228 878 l 34 878 l 34 1098 z m 201 1324 l 281 1235 l 356 1324 l 540 1324 l 376 1133 l 185 1133 l 11 1324 l 201 1324 z "},"ž":{"ha":488,"x_min":-33,"x_max":496,"o":"m 29 900 l 475 900 l 475 701 l 273 180 l 475 180 l 475 0 l 8 0 l 8 189 l 215 720 l 29 720 l 29 900 z m 157 1152 l 237 1063 l 312 1152 l 496 1152 l 332 960 l 141 960 l -33 1152 l 157 1152 z "},"¦":{"ha":376,"x_min":115,"x_max":262,"o":"m 115 545 l 115 1098 l 262 1098 l 262 545 l 115 545 z m 115 -180 l 115 373 l 262 373 l 262 -180 l 115 -180 z "},"Ð":{"ha":776,"x_min":9,"x_max":726,"o":"m 65 0 l 65 549 l 9 549 l 9 666 l 65 666 l 65 1098 l 279 1098 q 486 1098 558 1079 q 631 1060 669 1017 q 707 973 717 920 q 726 867 726 711 l 726 711 l 726 326 q 726 178 712 129 q 699 79 664 51 q 629 22 578 11 q 528 0 425 0 l 425 0 l 65 0 z m 395 549 l 351 549 l 351 188 q 412 188 427 213 q 441 237 441 347 l 441 347 l 441 774 q 441 848 436 869 q 431 890 415 900 q 398 910 351 910 l 351 910 l 351 666 l 395 666 l 395 549 z "},"ð":{"ha":710,"x_min":41,"x_max":669,"o":"m 251 1098 l 251 1098 l 417 1098 q 435 1085 452 1071 l 452 1071 l 561 1098 l 581 1038 l 504 1016 q 550 962 591 887 q 633 812 651 735 q 669 658 669 526 l 669 526 l 669 321 q 669 208 640 136 q 610 65 536 24 q 463 -16 350 -16 l 350 -16 q 237 -16 164 22 q 92 60 66 126 q 41 191 41 335 l 41 335 l 41 533 q 41 652 64 716 q 87 781 147 828 q 206 876 281 876 l 281 876 q 348 876 395 838 l 395 838 q 382 910 345 975 l 345 975 l 215 939 l 195 1001 l 308 1032 q 274 1078 251 1098 z m 395 245 l 395 615 q 395 682 388 699 q 380 716 355 716 l 355 716 q 332 716 323 696 q 315 675 315 624 l 315 624 l 315 238 q 315 182 325 162 q 334 143 356 143 l 356 143 q 377 143 386 162 q 395 180 395 245 l 395 245 z "},"Ý":{"ha":657,"x_min":-8,"x_max":665,"o":"m 403 1098 l 665 1098 l 457 397 l 457 0 l 193 0 l 193 397 l -8 1098 l 254 1098 q 316 777 323 666 l 323 666 q 347 842 403 1098 l 403 1098 z m 319 1316 l 560 1316 l 337 1133 l 199 1133 l 319 1316 z "},"ý":{"ha":623,"x_min":-8,"x_max":623,"o":"m 374 900 l 623 900 l 544 249 q 526 94 513 38 q 500 -18 471 -55 q 442 -92 390 -109 q 338 -126 224 -126 l 224 -126 l 58 -126 l 58 18 q 122 18 140 24 q 159 31 159 53 l 159 53 q 159 64 142 147 l 142 147 l -8 900 l 241 900 l 330 293 l 374 900 z m 311 1144 l 552 1144 l 329 960 l 191 960 l 311 1144 z "},"Þ":{"ha":697,"x_min":57,"x_max":672,"o":"m 342 1098 l 342 893 q 462 893 521 876 q 581 859 616 822 q 652 785 662 739 q 672 692 672 586 l 672 586 l 672 491 q 672 393 653 344 q 634 294 577 266 q 521 237 419 237 l 419 237 l 342 237 l 342 0 l 57 0 l 57 1098 l 342 1098 z m 342 705 l 342 705 l 342 426 l 363 426 q 403 426 418 445 q 433 465 433 526 l 433 526 l 433 615 q 433 670 416 688 q 398 705 342 705 z "},"þ":{"ha":721,"x_min":49,"x_max":680,"o":"m 49 1098 l 323 1098 l 323 821 q 395 916 500 916 l 500 916 q 564 916 610 882 q 656 848 668 803 q 680 758 680 651 l 680 651 l 680 272 q 680 149 665 97 q 650 45 605 15 q 560 -16 496 -16 l 496 -16 q 395 -16 323 78 l 323 78 l 323 -128 l 49 -128 l 49 1098 z m 406 252 l 406 638 q 406 722 399 739 q 393 757 366 757 l 366 757 q 338 757 331 736 q 323 716 323 638 l 323 638 l 323 265 q 323 184 331 163 q 339 143 366 143 l 366 143 q 393 143 399 162 q 406 180 406 252 l 406 252 z "},"−":{"ha":741,"x_min":43,"x_max":697,"o":"m 43 466 l 43 631 l 697 631 l 697 466 l 43 466 z "},"×":{"ha":741,"x_min":50,"x_max":690,"o":"m 254 557 l 50 761 l 167 878 l 370 675 l 573 878 l 690 761 l 488 557 l 689 357 l 572 239 l 371 441 l 169 240 l 52 357 l 254 557 z "},"¹":{"ha":340,"x_min":8,"x_max":298,"o":"m 197 1109 l 298 1109 l 298 531 l 125 531 l 125 841 q 125 907 122 919 q 119 930 102 937 q 85 943 27 943 l 27 943 l 8 943 l 8 1018 q 132 1040 197 1109 l 197 1109 z "},"²":{"ha":441,"x_min":24,"x_max":416,"o":"m 220 636 l 401 636 l 401 531 l 24 531 l 24 618 q 194 851 223 902 q 253 953 253 982 l 253 982 q 253 1023 217 1023 l 217 1023 q 197 1023 189 1011 q 180 1000 180 964 l 180 964 l 180 906 l 24 906 l 24 931 q 24 991 37 1028 q 50 1065 94 1092 q 137 1119 210 1119 l 210 1119 q 311 1119 364 1076 q 416 1034 416 966 l 416 966 q 416 916 388 862 q 359 809 267 696 l 267 696 l 220 636 z "},"³":{"ha":453,"x_min":24,"x_max":429,"o":"m 361 857 l 361 857 q 391 847 410 821 q 429 794 429 706 l 429 706 q 429 591 373 555 q 317 519 228 519 l 228 519 q 146 519 99 543 q 53 567 39 602 q 24 636 24 717 l 24 717 l 24 755 l 197 755 l 197 669 q 197 633 202 624 q 207 616 224 616 l 224 616 q 244 616 250 627 q 256 639 256 691 l 256 691 l 256 728 q 256 773 237 785 q 219 796 153 797 l 153 797 l 153 888 q 227 888 241 897 q 256 905 256 945 l 256 945 l 256 978 q 256 1008 248 1015 q 241 1023 227 1023 l 227 1023 q 210 1023 203 1015 q 197 1006 197 974 l 197 974 l 197 934 l 24 934 l 24 976 q 24 1061 69 1090 q 113 1119 212 1119 l 212 1119 q 332 1119 377 1079 q 422 1039 422 964 l 422 964 q 422 932 411 903 q 400 874 361 857 z "},"½":{"ha":896,"x_min":8,"x_max":871,"o":"m 576 1119 l 679 1119 l 250 -21 l 145 -21 l 576 1119 z m 197 1109 l 298 1109 l 298 531 l 125 531 l 125 841 q 125 907 122 919 q 119 930 102 937 q 85 943 27 943 l 27 943 l 8 943 l 8 1018 q 132 1040 197 1109 l 197 1109 z m 675 105 l 856 105 l 856 0 l 479 0 l 479 87 q 648 320 678 371 q 707 422 707 452 l 707 452 q 707 492 671 492 l 671 492 q 652 492 643 481 q 634 470 634 433 l 634 433 l 634 376 l 479 376 l 479 400 q 479 460 492 497 q 505 534 548 562 q 591 589 664 589 l 664 589 q 766 589 818 546 q 871 503 871 435 l 871 435 q 871 386 841 331 q 812 277 722 165 l 722 165 l 675 105 z "},"¼":{"ha":866,"x_min":8,"x_max":850,"o":"m 576 1119 l 679 1119 l 250 -21 l 145 -21 l 576 1119 z m 197 1109 l 298 1109 l 298 531 l 125 531 l 125 841 q 125 907 122 919 q 119 930 102 937 q 85 943 27 943 l 27 943 l 8 943 l 8 1018 q 132 1040 197 1109 l 197 1109 z m 574 579 l 802 579 l 802 206 l 850 206 l 850 100 l 802 100 l 802 0 l 628 0 l 628 100 l 427 100 l 427 203 l 574 579 z m 543 206 l 628 206 l 628 433 l 543 206 z "},"¾":{"ha":960,"x_min":24,"x_max":943,"o":"m 361 857 l 361 857 q 391 847 410 821 q 429 794 429 706 l 429 706 q 429 591 373 555 q 317 519 228 519 l 228 519 q 146 519 99 543 q 53 567 39 602 q 24 636 24 717 l 24 717 l 24 755 l 197 755 l 197 669 q 197 633 202 624 q 207 616 224 616 l 224 616 q 244 616 250 627 q 256 639 256 691 l 256 691 l 256 728 q 256 773 237 785 q 219 796 153 797 l 153 797 l 153 888 q 227 888 241 897 q 256 905 256 945 l 256 945 l 256 978 q 256 1008 248 1015 q 241 1023 227 1023 l 227 1023 q 210 1023 203 1015 q 197 1006 197 974 l 197 974 l 197 934 l 24 934 l 24 976 q 24 1061 69 1090 q 113 1119 212 1119 l 212 1119 q 332 1119 377 1079 q 422 1039 422 964 l 422 964 q 422 932 411 903 q 400 874 361 857 z m 669 1119 l 772 1119 l 344 -21 l 239 -21 l 669 1119 z m 668 579 l 895 579 l 895 206 l 943 206 l 943 100 l 895 100 l 895 0 l 722 0 l 722 100 l 520 100 l 520 203 l 668 579 z m 636 206 l 722 206 l 722 433 l 636 206 z "},"Ğ":{"ha":766,"x_min":49,"x_max":712,"o":"m 712 741 l 712 694 l 427 694 l 427 793 q 427 888 418 911 q 410 935 380 935 l 380 935 q 353 935 344 915 q 334 895 334 810 l 334 810 l 334 283 q 334 210 344 186 q 353 163 382 163 l 382 163 q 413 163 424 189 q 435 216 435 292 l 435 292 l 435 422 l 378 422 l 378 589 l 712 589 l 712 0 l 532 0 l 506 79 q 477 28 432 2 q 388 -23 328 -23 l 328 -23 q 256 -23 193 12 q 130 47 98 98 q 65 150 57 207 q 49 263 49 376 l 49 376 l 49 703 q 49 860 66 931 q 83 1002 163 1062 q 243 1121 371 1121 l 371 1121 q 496 1121 579 1069 q 662 1018 687 947 q 712 876 712 741 l 712 741 z m 460 1337 l 460 1337 l 575 1337 q 571 1245 521 1189 q 471 1133 382 1133 l 382 1133 q 293 1133 244 1189 q 195 1246 191 1337 l 191 1337 l 306 1337 q 314 1244 382 1244 l 382 1244 q 452 1244 460 1337 z "},"ğ":{"ha":720,"x_min":41,"x_max":671,"o":"m 416 900 l 671 900 l 671 207 q 671 66 665 25 q 659 -16 619 -61 q 580 -107 510 -131 q 439 -155 333 -155 l 333 -155 q 202 -155 123 -111 q 43 -66 41 64 l 41 64 l 307 64 q 307 4 350 4 l 350 4 q 381 4 391 22 q 401 41 401 99 l 401 99 l 401 167 q 366 135 327 119 q 288 102 245 102 l 245 102 q 172 102 124 132 q 76 162 58 211 q 41 259 41 349 l 41 349 l 41 675 q 41 804 87 860 q 133 916 227 916 l 227 916 q 279 916 321 895 q 363 874 397 832 l 397 832 l 416 900 z m 397 382 l 397 661 q 397 723 390 740 q 382 757 358 757 l 358 757 q 334 757 325 738 q 315 718 315 661 l 315 661 l 315 359 q 315 298 322 280 q 330 262 353 262 l 353 262 q 380 262 389 284 q 397 306 397 382 l 397 382 z m 437 1165 l 437 1165 l 552 1165 q 548 1073 498 1017 q 448 960 359 960 l 359 960 q 270 960 221 1017 q 172 1074 168 1165 l 168 1165 l 283 1165 q 291 1072 359 1072 l 359 1072 q 429 1072 437 1165 z "},"İ":{"ha":400,"x_min":57,"x_max":342,"o":"m 57 1098 l 342 1098 l 342 0 l 57 0 l 57 1098 z m 111 1309 l 288 1309 l 288 1133 l 111 1133 l 111 1309 z "},"Ş":{"ha":718,"x_min":33,"x_max":686,"o":"m 383 -22 l 383 -22 l 383 -35 q 419 -35 450 -59 q 481 -83 481 -125 l 481 -125 q 481 -176 439 -214 q 397 -252 339 -252 l 339 -252 q 233 -252 204 -144 l 204 -144 l 304 -144 q 313 -173 338 -173 l 338 -173 q 378 -173 378 -132 l 378 -132 q 378 -87 322 -87 l 322 -87 l 304 -87 l 304 -18 q 195 -3 134 45 q 73 94 58 159 q 42 223 42 321 l 42 321 l 42 393 l 307 393 l 307 260 q 307 198 318 180 q 330 163 358 163 l 358 163 q 414 163 414 252 l 414 252 q 414 349 388 378 q 361 408 254 478 l 254 478 q 148 549 113 581 q 79 612 56 669 q 33 725 33 812 l 33 812 q 33 939 65 997 q 98 1055 170 1088 q 241 1121 343 1121 l 343 1121 q 454 1121 533 1085 q 611 1049 636 995 q 662 940 662 809 l 662 809 l 662 766 l 397 766 l 397 847 q 397 904 387 920 q 376 935 353 935 l 353 935 q 300 935 300 850 l 300 850 q 300 795 315 768 q 330 740 396 701 l 396 701 q 587 587 636 515 q 686 442 686 281 l 686 281 q 686 170 663 116 q 640 62 563 21 q 487 -21 383 -22 z "},"ş":{"ha":654,"x_min":28,"x_max":629,"o":"m 351 -16 l 351 -16 l 351 -35 q 387 -35 418 -59 q 449 -83 449 -125 l 449 -125 q 449 -176 407 -214 q 366 -252 307 -252 l 307 -252 q 201 -252 172 -144 l 172 -144 l 272 -144 q 281 -173 307 -173 l 307 -173 q 347 -173 347 -132 l 347 -132 q 347 -87 290 -87 l 290 -87 l 272 -87 l 272 -12 q 194 -1 141 29 q 87 59 62 109 q 36 158 36 273 l 36 273 l 36 316 l 279 316 l 279 259 q 279 186 288 165 q 297 143 324 143 l 324 143 q 353 143 365 158 q 376 172 376 219 l 376 219 q 376 283 361 300 q 346 316 202 396 l 202 396 q 81 464 55 519 q 28 574 28 650 l 28 650 q 28 758 57 809 q 85 861 154 888 q 222 916 312 916 l 312 916 q 401 916 464 893 q 527 871 561 833 q 594 796 601 764 q 608 732 608 665 l 608 665 l 608 612 l 366 612 l 366 661 q 366 724 358 740 q 351 757 323 757 l 323 757 q 277 757 277 696 l 277 696 q 277 654 282 635 q 288 616 317 593 q 346 570 435 526 l 435 526 q 555 467 592 416 q 629 364 629 266 l 629 266 q 629 161 604 107 q 579 52 516 19 q 454 -14 351 -16 z "},"Ć":{"ha":769,"x_min":49,"x_max":724,"o":"m 724 724 l 724 619 l 438 619 l 438 810 q 438 894 429 915 q 420 935 389 935 l 389 935 q 353 935 344 910 q 334 885 334 802 l 334 802 l 334 292 q 334 212 344 187 q 353 163 387 163 l 387 163 q 418 163 428 187 q 438 212 438 302 l 438 302 l 438 439 l 724 439 l 724 397 q 724 227 700 155 q 675 84 593 31 q 511 -23 390 -23 l 390 -23 q 264 -23 183 22 q 102 68 75 148 q 49 229 49 390 l 49 390 l 49 711 q 49 829 57 889 q 65 948 105 1003 q 146 1058 217 1089 q 289 1121 382 1121 l 382 1121 q 508 1121 590 1072 q 672 1023 698 950 q 724 878 724 724 l 724 724 z m 376 1316 l 618 1316 l 395 1133 l 257 1133 l 376 1316 z "},"ć":{"ha":687,"x_min":41,"x_max":654,"o":"m 654 560 l 654 560 l 396 560 l 396 664 q 396 718 387 738 q 378 757 355 757 l 355 757 q 331 757 323 740 q 315 723 315 664 l 315 664 l 315 239 q 315 191 327 167 q 339 143 363 143 l 363 143 q 391 143 400 168 q 410 193 410 263 l 410 263 l 410 370 l 654 370 q 654 262 647 209 q 640 155 601 98 q 563 41 501 13 q 439 -16 349 -16 l 349 -16 q 233 -16 165 23 q 97 63 69 135 q 41 206 41 338 l 41 338 l 41 593 q 41 708 64 766 q 87 825 162 870 q 237 916 345 916 l 345 916 q 452 916 528 871 q 604 825 629 756 q 654 687 654 560 z m 336 1144 l 577 1144 l 354 960 l 216 960 l 336 1144 z "},"Č":{"ha":769,"x_min":49,"x_max":724,"o":"m 724 724 l 724 619 l 438 619 l 438 810 q 438 894 429 915 q 420 935 389 935 l 389 935 q 353 935 344 910 q 334 885 334 802 l 334 802 l 334 292 q 334 212 344 187 q 353 163 387 163 l 387 163 q 418 163 428 187 q 438 212 438 302 l 438 302 l 438 439 l 724 439 l 724 397 q 724 227 700 155 q 675 84 593 31 q 511 -23 390 -23 l 390 -23 q 264 -23 183 22 q 102 68 75 148 q 49 229 49 390 l 49 390 l 49 711 q 49 829 57 889 q 65 948 105 1003 q 146 1058 217 1089 q 289 1121 382 1121 l 382 1121 q 508 1121 590 1072 q 672 1023 698 950 q 724 878 724 724 l 724 724 z m 312 1324 l 392 1235 l 467 1324 l 651 1324 l 488 1133 l 296 1133 l 122 1324 l 312 1324 z "},"č":{"ha":687,"x_min":41,"x_max":654,"o":"m 654 560 l 654 560 l 396 560 l 396 664 q 396 718 387 738 q 378 757 355 757 l 355 757 q 331 757 323 740 q 315 723 315 664 l 315 664 l 315 239 q 315 191 327 167 q 339 143 363 143 l 363 143 q 391 143 400 168 q 410 193 410 263 l 410 263 l 410 370 l 654 370 q 654 262 647 209 q 640 155 601 98 q 563 41 501 13 q 439 -16 349 -16 l 349 -16 q 233 -16 165 23 q 97 63 69 135 q 41 206 41 338 l 41 338 l 41 593 q 41 708 64 766 q 87 825 162 870 q 237 916 345 916 l 345 916 q 452 916 528 871 q 604 825 629 756 q 654 687 654 560 z m 271 1152 l 351 1063 l 427 1152 l 610 1152 l 447 960 l 256 960 l 81 1152 l 271 1152 z "},"đ":{"ha":722,"x_min":41,"x_max":720,"o":"m 672 1098 l 672 1065 l 720 1065 l 720 949 l 672 949 l 672 0 l 398 0 l 398 65 q 319 -16 224 -16 l 224 -16 q 161 -16 114 17 q 67 51 54 95 q 41 139 41 239 l 41 239 l 41 660 q 41 764 54 807 q 67 850 115 883 q 162 916 228 916 l 228 916 q 329 916 398 843 l 398 843 l 398 949 l 228 949 l 228 1065 l 398 1065 l 398 1098 l 672 1098 z m 398 257 l 398 673 q 398 723 390 740 q 381 757 356 757 l 356 757 q 332 757 323 742 q 315 726 315 673 l 315 673 l 315 233 q 315 178 323 160 q 331 143 354 143 l 354 143 q 380 143 389 162 q 398 182 398 257 l 398 257 z "},"¯":{"ha":767,"x_min":-8,"x_max":775,"o":"m -8 1146 l -8 1215 l 775 1215 l 775 1146 l -8 1146 z "},"·":{"ha":463,"x_min":132,"x_max":331,"o":"m 231 572 l 231 572 q 271 572 301 544 q 331 515 331 473 l 331 473 q 331 432 302 403 q 273 374 231 374 l 231 374 q 191 374 161 403 q 132 432 132 473 l 132 473 q 132 515 161 544 q 191 572 231 572 z "},"⁴":{"ha":448,"x_min":8,"x_max":431,"o":"m 156 1109 l 383 1109 l 383 736 l 431 736 l 431 631 l 383 631 l 383 531 l 210 531 l 210 631 l 8 631 l 8 734 l 156 1109 z m 124 736 l 210 736 l 210 964 l 124 736 z "},"Ā":{"ha":705,"x_min":-8,"x_max":713,"o":"m 137 1098 l 550 1098 l 713 0 l 421 0 l 407 197 l 304 197 l 288 0 l -8 0 l 137 1098 z m 301 392 l 399 392 q 377 578 355 852 l 355 852 q 312 538 301 392 l 301 392 z m 74 1250 l 614 1250 l 614 1133 l 74 1133 l 74 1250 z "},"ā":{"ha":700,"x_min":37,"x_max":654,"o":"m 294 646 l 294 551 l 37 551 l 37 612 q 37 716 61 773 q 85 829 157 873 q 230 916 346 916 l 346 916 q 485 916 555 867 q 626 818 640 746 q 654 675 654 452 l 654 452 l 654 0 l 388 0 l 388 80 q 363 32 323 8 q 283 -16 229 -16 l 229 -16 q 157 -16 97 24 q 37 64 37 201 l 37 201 l 37 275 q 37 376 68 412 q 100 449 227 498 l 227 498 q 361 551 371 569 q 380 587 380 644 l 380 644 q 380 714 370 735 q 359 757 335 757 l 335 757 q 307 757 300 739 q 294 721 294 646 l 294 646 z m 380 243 l 380 428 q 315 380 304 347 q 294 315 294 254 l 294 254 q 294 184 303 163 q 312 143 339 143 l 339 143 q 365 143 373 159 q 380 175 380 243 l 380 243 z m 89 1078 l 629 1078 l 629 960 l 89 960 l 89 1078 z "},"Ă":{"ha":705,"x_min":-8,"x_max":713,"o":"m 137 1098 l 550 1098 l 713 0 l 421 0 l 407 197 l 304 197 l 288 0 l -8 0 l 137 1098 z m 301 392 l 399 392 q 377 578 355 852 l 355 852 q 312 538 301 392 l 301 392 z m 420 1337 l 420 1337 l 536 1337 q 532 1245 482 1189 q 432 1133 343 1133 l 343 1133 q 254 1133 204 1189 q 155 1246 151 1337 l 151 1337 l 267 1337 q 275 1244 343 1244 l 343 1244 q 412 1244 420 1337 z "},"ă":{"ha":700,"x_min":37,"x_max":654,"o":"m 294 646 l 294 551 l 37 551 l 37 612 q 37 716 61 773 q 85 829 157 873 q 230 916 346 916 l 346 916 q 485 916 555 867 q 626 818 640 746 q 654 675 654 452 l 654 452 l 654 0 l 388 0 l 388 80 q 363 32 323 8 q 283 -16 229 -16 l 229 -16 q 157 -16 97 24 q 37 64 37 201 l 37 201 l 37 275 q 37 376 68 412 q 100 449 227 498 l 227 498 q 361 551 371 569 q 380 587 380 644 l 380 644 q 380 714 370 735 q 359 757 335 757 l 335 757 q 307 757 300 739 q 294 721 294 646 l 294 646 z m 380 243 l 380 428 q 315 380 304 347 q 294 315 294 254 l 294 254 q 294 184 303 163 q 312 143 339 143 l 339 143 q 365 143 373 159 q 380 175 380 243 l 380 243 z m 419 1165 l 419 1165 l 534 1165 q 530 1073 480 1017 q 431 960 342 960 l 342 960 q 252 960 203 1017 q 154 1074 150 1165 l 150 1165 l 265 1165 q 273 1072 342 1072 l 342 1072 q 411 1072 419 1165 z "},"Ą":{"ha":705,"x_min":-8,"x_max":714,"o":"m 714 0 l 596 0 q 538 -58 538 -92 l 538 -92 q 538 -135 586 -135 l 586 -135 q 620 -135 664 -117 l 664 -117 l 692 -184 q 627 -215 574 -215 l 574 -215 q 512 -215 475 -186 q 439 -157 439 -110 l 439 -110 q 439 -54 496 0 l 496 0 l 421 0 l 407 197 l 304 197 l 288 0 l -8 0 l 138 1099 l 550 1099 l 714 0 z m 301 393 l 301 393 l 399 393 q 371 639 355 852 l 355 852 q 319 587 301 393 z "},"ą":{"ha":700,"x_min":37,"x_max":664,"o":"m 656 0 l 568 0 q 510 -58 510 -92 l 510 -92 q 510 -135 558 -135 l 558 -135 q 592 -135 636 -117 l 636 -117 l 664 -184 q 599 -215 546 -215 l 546 -215 q 484 -215 448 -186 q 411 -157 411 -110 l 411 -110 q 411 -54 468 0 l 468 0 l 389 0 l 389 81 q 365 37 330 18 q 295 -1 229 -1 l 229 -1 q 127 -1 82 41 q 37 83 37 201 l 37 201 l 37 275 q 37 372 64 408 q 92 444 191 484 l 191 484 q 321 535 352 552 q 382 569 382 643 l 382 643 q 382 702 373 729 q 363 757 339 757 l 339 757 q 317 757 306 745 q 294 733 294 686 l 294 686 l 294 551 l 37 551 l 37 611 q 37 698 53 750 q 68 802 113 840 q 159 878 204 885 q 250 893 347 893 l 347 893 q 435 893 493 882 q 551 871 585 843 q 619 814 635 763 q 650 711 653 653 q 656 595 656 452 l 656 452 l 656 0 z m 382 199 l 382 199 l 382 428 q 326 385 310 356 q 294 327 294 237 l 294 237 q 294 178 306 160 q 318 143 340 143 l 340 143 q 382 143 382 199 z "},"Ĉ":{"ha":769,"x_min":49,"x_max":724,"o":"m 724 724 l 724 619 l 438 619 l 438 810 q 438 894 429 915 q 420 935 389 935 l 389 935 q 353 935 344 910 q 334 885 334 802 l 334 802 l 334 292 q 334 212 344 187 q 353 163 387 163 l 387 163 q 418 163 428 187 q 438 212 438 302 l 438 302 l 438 439 l 724 439 l 724 397 q 724 227 700 155 q 675 84 593 31 q 511 -23 390 -23 l 390 -23 q 264 -23 183 22 q 102 68 75 148 q 49 229 49 390 l 49 390 l 49 711 q 49 829 57 889 q 65 948 105 1003 q 146 1058 217 1089 q 289 1121 382 1121 l 382 1121 q 508 1121 590 1072 q 672 1023 698 950 q 724 878 724 724 l 724 724 z m 458 1133 l 382 1221 l 302 1133 l 113 1133 l 287 1324 l 478 1324 l 642 1133 l 458 1133 z "},"ĉ":{"ha":687,"x_min":41,"x_max":654,"o":"m 654 560 l 654 560 l 396 560 l 396 664 q 396 718 387 738 q 378 757 355 757 l 355 757 q 331 757 323 740 q 315 723 315 664 l 315 664 l 315 239 q 315 191 327 167 q 339 143 363 143 l 363 143 q 391 143 400 168 q 410 193 410 263 l 410 263 l 410 370 l 654 370 q 654 262 647 209 q 640 155 601 98 q 563 41 501 13 q 439 -16 349 -16 l 349 -16 q 233 -16 165 23 q 97 63 69 135 q 41 206 41 338 l 41 338 l 41 593 q 41 708 64 766 q 87 825 162 870 q 237 916 345 916 l 345 916 q 452 916 528 871 q 604 825 629 756 q 654 687 654 560 z m 417 960 l 342 1049 l 262 960 l 72 960 l 246 1152 l 437 1152 l 601 960 l 417 960 z "},"Ċ":{"ha":769,"x_min":49,"x_max":724,"o":"m 724 724 l 724 619 l 438 619 l 438 810 q 438 894 429 915 q 420 935 389 935 l 389 935 q 353 935 344 910 q 334 885 334 802 l 334 802 l 334 292 q 334 212 344 187 q 353 163 387 163 l 387 163 q 418 163 428 187 q 438 212 438 302 l 438 302 l 438 439 l 724 439 l 724 397 q 724 227 700 155 q 675 84 593 31 q 511 -23 390 -23 l 390 -23 q 264 -23 183 22 q 102 68 75 148 q 49 229 49 390 l 49 390 l 49 711 q 49 829 57 889 q 65 948 105 1003 q 146 1058 217 1089 q 289 1121 382 1121 l 382 1121 q 508 1121 590 1072 q 672 1023 698 950 q 724 878 724 724 l 724 724 z m 285 1309 l 462 1309 l 462 1133 l 285 1133 l 285 1309 z "},"ċ":{"ha":687,"x_min":41,"x_max":654,"o":"m 654 560 l 654 560 l 396 560 l 396 664 q 396 718 387 738 q 378 757 355 757 l 355 757 q 331 757 323 740 q 315 723 315 664 l 315 664 l 315 239 q 315 191 327 167 q 339 143 363 143 l 363 143 q 391 143 400 168 q 410 193 410 263 l 410 263 l 410 370 l 654 370 q 654 262 647 209 q 640 155 601 98 q 563 41 501 13 q 439 -16 349 -16 l 349 -16 q 233 -16 165 23 q 97 63 69 135 q 41 206 41 338 l 41 338 l 41 593 q 41 708 64 766 q 87 825 162 870 q 237 916 345 916 l 345 916 q 452 916 528 871 q 604 825 629 756 q 654 687 654 560 z m 252 1137 l 429 1137 l 429 960 l 252 960 l 252 1137 z "},"Ď":{"ha":768,"x_min":57,"x_max":718,"o":"m 57 0 l 57 1098 l 271 1098 q 477 1098 550 1079 q 623 1060 661 1017 q 699 973 709 920 q 718 867 718 711 l 718 711 l 718 326 q 718 178 704 129 q 690 79 656 51 q 621 22 570 11 q 519 0 417 0 l 417 0 l 57 0 z m 342 910 l 342 910 l 342 188 q 404 188 418 213 q 433 237 433 347 l 433 347 l 433 774 q 433 848 428 869 q 423 890 406 900 q 389 910 342 910 z m 295 1324 l 375 1235 l 450 1324 l 634 1324 l 471 1133 l 279 1133 l 105 1324 l 295 1324 z "},"ď":{"ha":917,"x_min":41,"x_max":917,"o":"m 398 1098 l 672 1098 l 672 0 l 398 0 l 398 65 q 359 24 315 4 q 272 -16 224 -16 l 224 -16 q 161 -16 114 17 q 67 51 54 95 q 41 139 41 239 l 41 239 l 41 660 q 41 764 54 807 q 67 850 115 883 q 162 916 228 916 l 228 916 q 279 916 321 898 q 363 880 398 843 l 398 843 l 398 1098 z m 398 257 l 398 673 q 398 723 390 740 q 381 757 356 757 l 356 757 q 332 757 323 742 q 315 726 315 673 l 315 673 l 315 233 q 315 178 323 160 q 331 143 354 143 l 354 143 q 380 143 389 162 q 398 182 398 257 l 398 257 z m 732 924 l 732 1098 l 917 1098 l 917 1041 q 917 823 732 784 l 732 784 l 732 863 q 772 887 778 924 l 778 924 l 732 924 z "},"Ē":{"ha":577,"x_min":29,"x_max":569,"o":"m 57 0 l 57 1098 l 533 1098 l 533 878 l 342 878 l 342 670 l 521 670 l 521 461 l 342 461 l 342 220 l 552 220 l 552 0 l 57 0 z m 29 1250 l 569 1250 l 569 1133 l 29 1133 l 29 1250 z "},"ē":{"ha":710,"x_min":41,"x_max":669,"o":"m 669 553 l 669 434 l 315 434 l 315 239 q 315 178 323 161 q 332 143 357 143 l 357 143 q 389 143 399 166 q 410 190 410 257 l 410 257 l 410 376 l 669 376 l 669 309 q 669 226 659 181 q 648 136 610 85 q 571 35 512 9 q 452 -16 363 -16 l 363 -16 q 276 -16 210 9 q 143 34 106 78 q 69 121 55 174 q 41 227 41 327 l 41 327 l 41 589 q 41 707 73 775 q 104 844 177 880 q 250 916 344 916 l 344 916 q 459 916 534 872 q 609 829 639 756 q 669 684 669 553 l 669 553 z m 315 581 l 395 581 l 395 646 q 395 716 387 736 q 380 757 357 757 l 357 757 q 328 757 321 740 q 315 722 315 646 l 315 646 l 315 581 z m 86 1078 l 626 1078 l 626 960 l 86 960 l 86 1078 z "},"Ĕ":{"ha":577,"x_min":57,"x_max":552,"o":"m 57 0 l 57 1098 l 533 1098 l 533 878 l 342 878 l 342 670 l 521 670 l 521 461 l 342 461 l 342 220 l 552 220 l 552 0 l 57 0 z m 380 1337 l 380 1337 l 496 1337 q 492 1245 442 1189 q 392 1133 303 1133 l 303 1133 q 214 1133 164 1189 q 115 1246 111 1337 l 111 1337 l 227 1337 q 235 1244 303 1244 l 303 1244 q 372 1244 380 1337 z "},"ĕ":{"ha":710,"x_min":41,"x_max":669,"o":"m 669 553 l 669 434 l 315 434 l 315 239 q 315 178 323 161 q 332 143 357 143 l 357 143 q 389 143 399 166 q 410 190 410 257 l 410 257 l 410 376 l 669 376 l 669 309 q 669 226 659 181 q 648 136 610 85 q 571 35 512 9 q 452 -16 363 -16 l 363 -16 q 276 -16 210 9 q 143 34 106 78 q 69 121 55 174 q 41 227 41 327 l 41 327 l 41 589 q 41 707 73 775 q 104 844 177 880 q 250 916 344 916 l 344 916 q 459 916 534 872 q 609 829 639 756 q 669 684 669 553 l 669 553 z m 315 581 l 395 581 l 395 646 q 395 716 387 736 q 380 757 357 757 l 357 757 q 328 757 321 740 q 315 722 315 646 l 315 646 l 315 581 z m 422 1165 l 422 1165 l 537 1165 q 533 1073 483 1017 q 433 960 345 960 l 345 960 q 255 960 206 1017 q 157 1074 153 1165 l 153 1165 l 268 1165 q 276 1072 345 1072 l 345 1072 q 414 1072 422 1165 z "},"Ė":{"ha":577,"x_min":57,"x_max":552,"o":"m 57 0 l 57 1098 l 533 1098 l 533 878 l 342 878 l 342 670 l 521 670 l 521 461 l 342 461 l 342 220 l 552 220 l 552 0 l 57 0 z m 218 1309 l 395 1309 l 395 1133 l 218 1133 l 218 1309 z "},"ė":{"ha":710,"x_min":41,"x_max":669,"o":"m 669 553 l 669 434 l 315 434 l 315 239 q 315 178 323 161 q 332 143 357 143 l 357 143 q 389 143 399 166 q 410 190 410 257 l 410 257 l 410 376 l 669 376 l 669 309 q 669 226 659 181 q 648 136 610 85 q 571 35 512 9 q 452 -16 363 -16 l 363 -16 q 276 -16 210 9 q 143 34 106 78 q 69 121 55 174 q 41 227 41 327 l 41 327 l 41 589 q 41 707 73 775 q 104 844 177 880 q 250 916 344 916 l 344 916 q 459 916 534 872 q 609 829 639 756 q 669 684 669 553 l 669 553 z m 315 581 l 395 581 l 395 646 q 395 716 387 736 q 380 757 357 757 l 357 757 q 328 757 321 740 q 315 722 315 646 l 315 646 l 315 581 z m 252 1137 l 429 1137 l 429 960 l 252 960 l 252 1137 z "},"Ę":{"ha":576,"x_min":57,"x_max":583,"o":"m 387 0 l 387 0 l 57 0 l 57 1099 l 533 1099 l 533 879 l 343 879 l 343 669 l 521 669 l 521 461 l 343 461 l 343 220 l 551 220 l 551 0 l 488 0 q 429 -58 429 -92 l 429 -92 q 429 -135 478 -135 l 478 -135 q 511 -135 555 -117 l 555 -117 l 583 -184 q 518 -215 465 -215 l 465 -215 q 404 -215 367 -186 q 330 -157 330 -110 l 330 -110 q 330 -54 387 0 z "},"ę":{"ha":710,"x_min":40,"x_max":668,"o":"m 416 0 l 416 0 q 358 -56 358 -92 l 358 -92 q 358 -135 407 -135 l 407 -135 q 441 -135 485 -117 l 485 -117 l 513 -184 q 448 -215 395 -215 l 395 -215 q 333 -215 296 -186 q 260 -157 260 -110 l 260 -110 q 260 -54 317 0 l 317 0 q 237 5 179 31 q 121 56 89 102 q 56 149 48 198 q 40 248 40 326 l 40 326 l 40 589 q 40 662 52 718 q 63 773 99 816 q 136 859 197 880 q 259 900 343 900 l 343 900 q 471 900 546 860 q 621 819 644 745 q 668 671 668 553 l 668 553 l 668 433 l 314 433 l 314 239 q 314 174 325 159 q 336 143 357 143 l 357 143 q 385 143 397 164 q 410 184 410 237 l 410 237 l 410 376 l 668 376 l 668 310 q 668 235 660 190 q 651 144 617 96 q 583 48 534 26 q 486 4 416 0 z m 314 690 l 314 690 l 314 581 l 395 581 l 395 646 q 395 709 388 732 q 382 755 355 755 l 355 755 q 334 755 324 743 q 314 730 314 690 z "},"Ě":{"ha":577,"x_min":33,"x_max":562,"o":"m 57 0 l 57 1098 l 533 1098 l 533 878 l 342 878 l 342 670 l 521 670 l 521 461 l 342 461 l 342 220 l 552 220 l 552 0 l 57 0 z m 223 1324 l 303 1235 l 378 1324 l 562 1324 l 399 1133 l 208 1133 l 33 1324 l 223 1324 z "},"ě":{"ha":710,"x_min":41,"x_max":669,"o":"m 669 553 l 669 434 l 315 434 l 315 239 q 315 178 323 161 q 332 143 357 143 l 357 143 q 389 143 399 166 q 410 190 410 257 l 410 257 l 410 376 l 669 376 l 669 309 q 669 226 659 181 q 648 136 610 85 q 571 35 512 9 q 452 -16 363 -16 l 363 -16 q 276 -16 210 9 q 143 34 106 78 q 69 121 55 174 q 41 227 41 327 l 41 327 l 41 589 q 41 707 73 775 q 104 844 177 880 q 250 916 344 916 l 344 916 q 459 916 534 872 q 609 829 639 756 q 669 684 669 553 l 669 553 z m 315 581 l 395 581 l 395 646 q 395 716 387 736 q 380 757 357 757 l 357 757 q 328 757 321 740 q 315 722 315 646 l 315 646 l 315 581 z m 265 1152 l 345 1063 l 420 1152 l 604 1152 l 441 960 l 250 960 l 75 1152 l 265 1152 z "},"Ĝ":{"ha":766,"x_min":49,"x_max":712,"o":"m 712 740 l 712 692 l 427 692 l 427 792 q 427 886 418 910 q 410 934 380 934 l 380 934 q 353 934 344 913 q 334 893 334 809 l 334 809 l 334 282 q 334 208 344 185 q 353 161 382 161 l 382 161 q 413 161 424 188 q 435 214 435 291 l 435 291 l 435 421 l 378 421 l 378 588 l 712 588 l 712 -1 l 532 -1 l 506 77 q 477 26 432 1 q 388 -24 328 -24 l 328 -24 q 256 -24 193 11 q 130 45 98 97 q 65 149 57 205 q 49 262 49 375 l 49 375 l 49 701 q 49 859 66 930 q 83 1001 163 1060 q 243 1120 371 1120 l 371 1120 q 496 1120 579 1068 q 662 1017 687 946 q 712 875 712 740 l 712 740 z m 460 1133 l 385 1221 l 305 1133 l 115 1133 l 290 1324 l 481 1324 l 644 1133 l 460 1133 z "},"ĝ":{"ha":720,"x_min":41,"x_max":671,"o":"m 416 900 l 671 900 l 671 207 q 671 66 665 25 q 659 -16 619 -61 q 580 -107 510 -131 q 439 -155 333 -155 l 333 -155 q 202 -155 123 -111 q 43 -66 41 64 l 41 64 l 307 64 q 307 4 350 4 l 350 4 q 381 4 391 22 q 401 41 401 99 l 401 99 l 401 167 q 366 135 327 119 q 288 102 245 102 l 245 102 q 172 102 124 132 q 76 162 58 211 q 41 259 41 349 l 41 349 l 41 675 q 41 804 87 860 q 133 916 227 916 l 227 916 q 279 916 321 895 q 363 874 397 832 l 397 832 l 416 900 z m 397 382 l 397 661 q 397 723 390 740 q 382 757 358 757 l 358 757 q 334 757 325 738 q 315 718 315 661 l 315 661 l 315 359 q 315 298 322 280 q 330 262 353 262 l 353 262 q 380 262 389 284 q 397 306 397 382 l 397 382 z m 451 960 l 376 1049 l 296 960 l 106 960 l 280 1152 l 471 1152 l 635 960 l 451 960 z "},"Ġ":{"ha":766,"x_min":49,"x_max":712,"o":"m 712 740 l 712 692 l 427 692 l 427 792 q 427 886 418 910 q 410 934 380 934 l 380 934 q 353 934 344 913 q 334 893 334 809 l 334 809 l 334 282 q 334 208 344 185 q 353 161 382 161 l 382 161 q 413 161 424 188 q 435 214 435 291 l 435 291 l 435 421 l 378 421 l 378 588 l 712 588 l 712 -1 l 532 -1 l 506 77 q 477 26 432 1 q 388 -24 328 -24 l 328 -24 q 256 -24 193 11 q 130 45 98 97 q 65 149 57 205 q 49 262 49 375 l 49 375 l 49 701 q 49 859 66 930 q 83 1001 163 1060 q 243 1120 371 1120 l 371 1120 q 496 1120 579 1068 q 662 1017 687 946 q 712 875 712 740 l 712 740 z m 294 1309 l 471 1309 l 471 1133 l 294 1133 l 294 1309 z "},"ġ":{"ha":720,"x_min":41,"x_max":671,"o":"m 416 900 l 671 900 l 671 207 q 671 66 665 25 q 659 -16 619 -61 q 580 -107 510 -131 q 439 -155 333 -155 l 333 -155 q 202 -155 123 -111 q 43 -66 41 64 l 41 64 l 307 64 q 307 4 350 4 l 350 4 q 381 4 391 22 q 401 41 401 99 l 401 99 l 401 167 q 366 135 327 119 q 288 102 245 102 l 245 102 q 172 102 124 132 q 76 162 58 211 q 41 259 41 349 l 41 349 l 41 675 q 41 804 87 860 q 133 916 227 916 l 227 916 q 279 916 321 895 q 363 874 397 832 l 397 832 l 416 900 z m 397 382 l 397 661 q 397 723 390 740 q 382 757 358 757 l 358 757 q 334 757 325 738 q 315 718 315 661 l 315 661 l 315 359 q 315 298 322 280 q 330 262 353 262 l 353 262 q 380 262 389 284 q 397 306 397 382 l 397 382 z m 286 1137 l 463 1137 l 463 960 l 286 960 l 286 1137 z "},"Ģ":{"ha":766,"x_min":49,"x_max":712,"o":"m 712 741 l 712 694 l 427 694 l 427 793 q 427 888 418 911 q 410 935 380 935 l 380 935 q 353 935 344 915 q 334 895 334 810 l 334 810 l 334 283 q 334 210 344 186 q 353 163 382 163 l 382 163 q 413 163 424 189 q 435 216 435 292 l 435 292 l 435 422 l 378 422 l 378 589 l 712 589 l 712 0 l 532 0 l 506 79 q 477 28 432 2 q 388 -23 328 -23 l 328 -23 q 256 -23 193 12 q 130 47 98 98 q 65 150 57 207 q 49 263 49 376 l 49 376 l 49 703 q 49 860 66 931 q 83 1002 163 1062 q 243 1121 371 1121 l 371 1121 q 496 1121 579 1069 q 662 1018 687 947 q 712 876 712 741 l 712 741 z m 290 -228 l 290 -54 l 475 -54 l 475 -111 q 475 -330 290 -368 l 290 -368 l 290 -289 q 330 -265 336 -228 l 336 -228 l 290 -228 z "},"ģ":{"ha":720,"x_min":41,"x_max":671,"o":"m 416 900 l 671 900 l 671 207 q 671 66 665 25 q 659 -16 619 -61 q 580 -107 510 -131 q 439 -155 333 -155 l 333 -155 q 202 -155 123 -111 q 43 -66 41 64 l 41 64 l 307 64 q 307 4 350 4 l 350 4 q 381 4 391 22 q 401 41 401 99 l 401 99 l 401 167 q 366 135 327 119 q 288 102 245 102 l 245 102 q 172 102 124 132 q 76 162 58 211 q 41 259 41 349 l 41 349 l 41 675 q 41 804 87 860 q 133 916 227 916 l 227 916 q 279 916 321 895 q 363 874 397 832 l 397 832 l 416 900 z m 397 382 l 397 661 q 397 723 390 740 q 382 757 358 757 l 358 757 q 334 757 325 738 q 315 718 315 661 l 315 661 l 315 359 q 315 298 322 280 q 330 262 353 262 l 353 262 q 380 262 389 284 q 397 306 397 382 l 397 382 z m 456 960 l 273 960 l 273 1059 q 273 1136 291 1185 q 310 1235 355 1270 q 400 1304 456 1316 l 456 1316 l 456 1237 q 416 1214 411 1175 l 411 1175 l 456 1175 l 456 960 z "},"Ĥ":{"ha":771,"x_min":57,"x_max":713,"o":"m 428 1098 l 713 1098 l 713 0 l 428 0 l 428 461 l 342 461 l 342 0 l 57 0 l 57 1098 l 342 1098 l 342 705 l 428 705 l 428 1098 z m 462 1133 l 387 1221 l 307 1133 l 117 1133 l 291 1324 l 482 1324 l 646 1133 l 462 1133 z "},"ĥ":{"ha":728,"x_min":49,"x_max":682,"o":"m 49 1098 l 323 1098 l 323 851 q 358 884 399 900 q 440 916 487 916 l 487 916 q 559 916 609 880 q 660 843 671 795 q 682 747 682 621 l 682 621 l 682 0 l 408 0 l 408 633 q 408 712 400 734 q 393 757 366 757 l 366 757 q 340 757 332 734 q 323 711 323 642 l 323 642 l 323 0 l 49 0 l 49 1098 z m 448 1133 l 373 1221 l 293 1133 l 103 1133 l 277 1324 l 469 1324 l 632 1133 l 448 1133 z "},"Ħ":{"ha":771,"x_min":9,"x_max":760,"o":"m 9 951 l 57 951 l 57 1099 l 343 1099 l 343 951 l 428 951 l 428 1099 l 714 1099 l 714 951 l 760 951 l 760 835 l 714 835 l 714 0 l 428 0 l 428 461 l 343 461 l 343 0 l 57 0 l 57 835 l 9 835 l 9 951 z m 428 835 l 343 835 l 343 705 l 428 705 l 428 835 z "},"ħ":{"ha":728,"x_min":0,"x_max":682,"o":"m 0 1057 l 49 1057 l 49 1099 l 322 1099 l 322 1057 l 386 1057 l 386 940 l 322 940 l 322 851 q 374 900 486 900 l 486 900 q 564 900 612 872 q 661 844 671 791 q 682 739 682 621 l 682 621 l 682 0 l 408 0 l 408 633 q 408 705 401 730 q 395 755 366 755 l 366 755 q 341 755 332 733 q 322 711 322 643 l 322 643 l 322 0 l 49 0 l 49 940 l 0 940 l 0 1057 z "},"Ĩ":{"ha":400,"x_min":-85,"x_max":488,"o":"m 57 1098 l 342 1098 l 342 0 l 57 0 l 57 1098 z m 378 1339 l 488 1261 q 456 1193 411 1166 q 366 1139 331 1139 l 331 1139 q 283 1139 227 1161 l 227 1161 l 177 1181 q 129 1200 105 1200 l 105 1200 q 55 1200 22 1133 l 22 1133 l -85 1204 q -10 1335 83 1335 l 83 1335 q 132 1335 190 1314 l 190 1314 l 232 1298 q 285 1278 304 1278 l 304 1278 q 360 1278 378 1339 l 378 1339 z "},"ĩ":{"ha":380,"x_min":-96,"x_max":477,"o":"m 49 900 l 331 900 l 331 0 l 49 0 l 49 900 z m 368 1167 l 477 1089 q 446 1021 400 994 q 355 966 320 966 l 320 966 q 272 966 216 989 l 216 989 l 166 1008 q 118 1028 94 1028 l 94 1028 q 44 1028 12 960 l 12 960 l -96 1031 q -21 1163 73 1163 l 73 1163 q 121 1163 179 1141 l 179 1141 l 221 1126 q 274 1106 293 1106 l 293 1106 q 349 1106 368 1167 l 368 1167 z "},"Ī":{"ha":400,"x_min":-69,"x_max":471,"o":"m 57 1098 l 342 1098 l 342 0 l 57 0 l 57 1098 z m -69 1250 l 471 1250 l 471 1133 l -69 1133 l -69 1250 z "},"ī":{"ha":380,"x_min":-79,"x_max":460,"o":"m 49 900 l 331 900 l 331 0 l 49 0 l 49 900 z m -79 1078 l 460 1078 l 460 960 l -79 960 l -79 1078 z "},"Ĭ":{"ha":400,"x_min":4,"x_max":389,"o":"m 57 1098 l 342 1098 l 342 0 l 57 0 l 57 1098 z m 273 1337 l 273 1337 l 389 1337 q 385 1245 335 1189 q 285 1133 196 1133 l 196 1133 q 106 1133 57 1189 q 8 1246 4 1337 l 4 1337 l 119 1337 q 127 1244 196 1244 l 196 1244 q 265 1244 273 1337 z "},"ĭ":{"ha":380,"x_min":-1,"x_max":383,"o":"m 49 900 l 331 900 l 331 0 l 49 0 l 49 900 z m 268 1165 l 268 1165 l 383 1165 q 379 1073 329 1017 q 279 960 191 960 l 191 960 q 101 960 52 1017 q 3 1074 -1 1165 l -1 1165 l 114 1165 q 122 1072 191 1072 l 191 1072 q 260 1072 268 1165 z "},"Į":{"ha":400,"x_min":57,"x_max":358,"o":"m 163 0 l 163 0 l 57 0 l 57 1099 l 343 1099 l 343 0 l 262 0 q 204 -58 204 -92 l 204 -92 q 204 -135 253 -135 l 253 -135 q 287 -135 330 -117 l 330 -117 l 358 -184 q 293 -215 240 -215 l 240 -215 q 178 -215 142 -186 q 106 -157 106 -110 l 106 -110 q 106 -54 163 0 z "},"į":{"ha":380,"x_min":49,"x_max":345,"o":"m 149 0 l 149 0 l 49 0 l 49 900 l 330 900 l 330 0 l 249 0 q 191 -58 191 -92 l 191 -92 q 191 -135 239 -135 l 239 -135 q 273 -135 317 -117 l 317 -117 l 345 -184 q 279 -215 227 -215 l 227 -215 q 165 -215 128 -186 q 92 -157 92 -110 l 92 -110 q 92 -54 149 0 z "},"Ĳ":{"ha":869,"x_min":57,"x_max":812,"o":"m 343 0 l 57 0 l 57 1099 l 343 1099 l 343 0 z m 526 279 l 526 279 l 526 1099 l 812 1099 l 812 244 q 812 94 763 47 q 713 0 561 0 l 561 0 l 418 0 l 418 192 l 456 191 q 492 191 509 210 q 526 230 526 279 z "},"ĳ":{"ha":768,"x_min":49,"x_max":720,"o":"m 330 957 l 49 957 l 49 1099 l 330 1099 l 330 957 z m 720 957 l 437 957 l 437 1099 l 720 1099 l 720 957 z m 330 0 l 49 0 l 49 900 l 330 900 l 330 0 z m 437 106 l 437 106 l 437 900 l 720 900 l 720 103 q 720 -31 666 -79 q 613 -126 482 -126 l 482 -126 l 376 -126 l 376 18 q 414 18 424 22 q 433 25 435 41 q 437 56 437 106 z "},"Ĵ":{"ha":460,"x_min":-11,"x_max":518,"o":"m 121 1098 l 406 1098 l 406 364 q 406 199 403 152 q 399 105 372 67 q 345 29 297 15 q 250 0 155 0 l 155 0 l 12 0 l 12 192 q 38 190 50 190 l 50 190 q 80 190 98 205 q 115 220 118 241 q 121 263 121 326 l 121 326 l 121 1098 z m 334 1133 l 259 1221 l 179 1133 l -11 1133 l 163 1324 l 355 1324 l 518 1133 l 334 1133 z "},"ĵ":{"ha":389,"x_min":-75,"x_max":454,"o":"m 454 1018 l 269 1018 l 195 1107 l 115 1018 l -75 1018 l 100 1210 l 290 1210 l 454 1018 z m 57 106 l 57 106 l 57 900 l 339 900 l 339 103 q 339 -31 286 -79 q 233 -126 102 -126 l 102 -126 l -4 -126 l -4 18 q 34 18 43 22 q 52 25 55 41 q 57 56 57 106 z "},"Ķ":{"ha":745,"x_min":57,"x_max":753,"o":"m 469 1098 l 737 1098 l 574 602 l 753 0 l 458 0 l 342 471 l 342 0 l 57 0 l 57 1098 l 342 1098 l 342 671 l 469 1098 z m 311 -228 l 311 -54 l 496 -54 l 496 -111 q 496 -330 311 -368 l 311 -368 l 311 -289 q 351 -265 357 -228 l 357 -228 l 311 -228 z "},"ķ":{"ha":664,"x_min":49,"x_max":672,"o":"m 408 900 l 639 900 l 528 541 l 672 0 l 408 0 l 323 392 l 323 0 l 49 0 l 49 1098 l 323 1098 l 323 637 l 408 900 z m 269 -228 l 269 -54 l 454 -54 l 454 -111 q 454 -330 269 -368 l 269 -368 l 269 -289 q 309 -265 315 -228 l 315 -228 l 269 -228 z "},"ĸ":{"ha":718,"x_min":49,"x_max":721,"o":"m 322 900 l 322 554 l 469 900 l 707 900 l 538 507 l 721 0 l 454 0 l 322 397 l 322 0 l 49 0 l 49 900 l 322 900 z "},"Ĺ":{"ha":528,"x_min":57,"x_max":516,"o":"m 57 1098 l 342 1098 l 342 220 l 516 220 l 516 0 l 57 0 l 57 1098 z m 228 1316 l 469 1316 l 246 1133 l 109 1133 l 228 1316 z "},"ĺ":{"ha":380,"x_min":49,"x_max":425,"o":"m 49 1098 l 331 1098 l 331 0 l 49 0 l 49 1098 z m 183 1316 l 425 1316 l 201 1133 l 64 1133 l 183 1316 z "},"Ļ":{"ha":528,"x_min":57,"x_max":516,"o":"m 57 1098 l 342 1098 l 342 220 l 516 220 l 516 0 l 57 0 l 57 1098 z m 215 -228 l 215 -54 l 399 -54 l 399 -111 q 399 -330 215 -368 l 215 -368 l 215 -289 q 254 -265 260 -228 l 260 -228 l 215 -228 z "},"ļ":{"ha":380,"x_min":49,"x_max":331,"o":"m 49 1098 l 331 1098 l 331 0 l 49 0 l 49 1098 z m 98 -228 l 98 -54 l 282 -54 l 282 -111 q 282 -330 98 -368 l 98 -368 l 98 -289 q 137 -265 143 -228 l 143 -228 l 98 -228 z "},"Ľ":{"ha":600,"x_min":57,"x_max":589,"o":"m 57 1098 l 342 1098 l 342 220 l 516 220 l 516 0 l 57 0 l 57 1098 z m 404 925 l 404 1099 l 589 1099 l 589 1042 q 589 823 404 785 l 404 785 l 404 864 q 444 888 450 925 l 450 925 l 404 925 z "},"ľ":{"ha":596,"x_min":49,"x_max":582,"o":"m 49 1098 l 331 1098 l 331 0 l 49 0 l 49 1098 z m 397 925 l 397 1099 l 582 1099 l 582 1042 q 582 823 397 785 l 397 785 l 397 864 q 437 888 443 925 l 443 925 l 397 925 z "},"Ŀ":{"ha":591,"x_min":57,"x_max":566,"o":"m 57 1098 l 342 1098 l 342 220 l 516 220 l 516 0 l 57 0 l 57 1098 z m 389 833 l 566 833 l 566 656 l 389 656 l 389 833 z "},"ŀ":{"ha":591,"x_min":49,"x_max":566,"o":"m 49 1098 l 331 1098 l 331 0 l 49 0 l 49 1098 z m 389 833 l 566 833 l 566 656 l 389 656 l 389 833 z "},"Ń":{"ha":752,"x_min":57,"x_max":694,"o":"m 456 1098 l 694 1098 l 694 0 l 444 0 l 296 499 l 296 0 l 57 0 l 57 1098 l 296 1098 l 456 604 l 456 1098 z m 353 1316 l 594 1316 l 371 1133 l 233 1133 l 353 1316 z "},"ń":{"ha":726,"x_min":49,"x_max":681,"o":"m 49 900 l 328 900 l 323 817 q 353 867 396 891 q 439 916 495 916 l 495 916 q 566 916 610 883 q 655 850 668 799 q 681 749 681 631 l 681 631 l 681 0 l 407 0 l 407 623 q 407 716 401 736 q 395 757 367 757 l 367 757 q 338 757 330 733 q 323 710 323 608 l 323 608 l 323 0 l 49 0 l 49 900 z m 319 1144 l 561 1144 l 338 960 l 200 960 l 319 1144 z "},"Ņ":{"ha":752,"x_min":57,"x_max":694,"o":"m 456 1098 l 694 1098 l 694 0 l 444 0 l 296 499 l 296 0 l 57 0 l 57 1098 l 296 1098 l 456 604 l 456 1098 z m 283 -228 l 283 -54 l 468 -54 l 468 -111 q 468 -330 283 -368 l 283 -368 l 283 -289 q 323 -265 329 -228 l 329 -228 l 283 -228 z "},"ņ":{"ha":726,"x_min":49,"x_max":681,"o":"m 49 900 l 328 900 l 323 817 q 353 867 396 891 q 439 916 495 916 l 495 916 q 566 916 610 883 q 655 850 668 799 q 681 749 681 631 l 681 631 l 681 0 l 407 0 l 407 623 q 407 716 401 736 q 395 757 367 757 l 367 757 q 338 757 330 733 q 323 710 323 608 l 323 608 l 323 0 l 49 0 l 49 900 z m 271 -228 l 271 -54 l 455 -54 l 455 -111 q 455 -330 271 -368 l 271 -368 l 271 -289 q 310 -265 316 -228 l 316 -228 l 271 -228 z "},"Ň":{"ha":752,"x_min":57,"x_max":694,"o":"m 456 1098 l 694 1098 l 694 0 l 444 0 l 296 499 l 296 0 l 57 0 l 57 1098 l 296 1098 l 456 604 l 456 1098 z m 286 1324 l 366 1235 l 441 1324 l 625 1324 l 461 1133 l 270 1133 l 96 1324 l 286 1324 z "},"ň":{"ha":726,"x_min":49,"x_max":681,"o":"m 49 900 l 328 900 l 323 817 q 353 867 396 891 q 439 916 495 916 l 495 916 q 566 916 610 883 q 655 850 668 799 q 681 749 681 631 l 681 631 l 681 0 l 407 0 l 407 623 q 407 716 401 736 q 395 757 367 757 l 367 757 q 338 757 330 733 q 323 710 323 608 l 323 608 l 323 0 l 49 0 l 49 900 z m 279 1152 l 359 1063 l 434 1152 l 618 1152 l 454 960 l 263 960 l 89 1152 l 279 1152 z "},"ŉ":{"ha":909,"x_min":7,"x_max":861,"o":"m 229 896 l 508 896 l 503 813 q 533 863 576 887 q 619 912 675 912 l 675 912 q 746 912 791 879 q 836 846 848 795 q 861 745 861 627 l 861 627 l 861 -4 l 587 -4 l 587 619 q 587 712 581 732 q 575 753 547 753 l 547 753 q 518 753 511 729 q 503 706 503 604 l 503 604 l 503 -4 l 229 -4 l 229 896 z m 7 925 l 7 1099 l 191 1099 l 191 1042 q 191 823 7 785 l 7 785 l 7 864 q 46 888 52 925 l 52 925 l 7 925 z "},"Ŋ":{"ha":768,"x_min":57,"x_max":715,"o":"m 464 0 l 464 0 l 396 0 l 396 144 q 416 145 422 162 q 429 178 429 232 l 429 232 l 429 815 q 429 884 422 910 q 415 936 385 936 l 385 936 q 367 936 355 920 q 343 904 343 889 l 343 889 l 343 0 l 57 0 l 57 1099 l 343 1099 l 343 1042 q 357 1061 397 1078 q 437 1096 473 1096 l 473 1096 q 576 1096 622 1051 q 667 1006 691 944 q 715 882 715 643 l 715 643 l 715 456 q 715 304 708 233 q 701 161 667 106 q 633 52 580 26 q 527 0 464 0 z "},"ŋ":{"ha":726,"x_min":49,"x_max":681,"o":"m 453 -171 l 453 -171 l 347 -171 l 347 -26 q 389 -26 398 -21 q 407 -16 407 61 l 407 61 l 407 624 q 407 712 401 734 q 396 757 367 757 l 367 757 q 335 757 329 729 q 322 701 322 608 l 322 608 l 322 0 l 49 0 l 49 900 l 328 900 l 322 817 q 380 908 494 908 l 494 908 q 548 908 584 896 q 619 884 644 848 q 669 813 675 768 q 681 722 681 631 l 681 631 l 681 62 q 681 -171 453 -171 z "},"Ō":{"ha":759,"x_min":49,"x_max":709,"o":"m 709 641 l 709 453 q 709 288 702 219 q 694 150 653 93 q 612 36 542 5 q 472 -25 379 -25 l 379 -25 q 291 -25 221 4 q 151 33 108 90 q 65 148 57 216 q 49 283 49 453 l 49 453 l 49 641 q 49 806 57 875 q 64 944 105 1001 q 146 1058 216 1088 q 286 1119 379 1119 l 379 1119 q 467 1119 537 1090 q 608 1061 650 1004 q 693 946 701 878 q 709 810 709 641 l 709 641 z m 424 309 l 424 814 q 424 890 415 912 q 407 933 380 933 l 380 933 q 358 933 346 916 q 334 899 334 814 l 334 814 l 334 301 q 334 205 342 183 q 350 161 378 161 l 378 161 q 408 161 416 186 q 424 212 424 309 l 424 309 z m 106 1250 l 646 1250 l 646 1133 l 106 1133 l 106 1250 z "},"ō":{"ha":710,"x_min":41,"x_max":669,"o":"m 669 584 l 669 584 l 669 363 q 669 242 656 185 q 644 129 604 80 q 564 31 502 7 q 439 -16 357 -16 l 357 -16 q 267 -16 203 4 q 140 24 105 64 q 71 104 56 162 q 41 219 41 334 l 41 334 l 41 564 q 41 690 68 760 q 95 831 165 873 q 236 916 346 916 l 346 916 q 438 916 504 889 q 570 861 606 817 q 642 773 655 726 q 669 680 669 584 z m 395 237 l 395 652 q 395 721 387 739 q 380 757 355 757 l 355 757 q 331 757 323 739 q 315 721 315 652 l 315 652 l 315 245 q 315 182 323 162 q 331 143 355 143 l 355 143 q 379 143 387 161 q 395 178 395 237 l 395 237 z m 83 1078 l 623 1078 l 623 960 l 83 960 l 83 1078 z "},"Ŏ":{"ha":759,"x_min":49,"x_max":709,"o":"m 709 641 l 709 453 q 709 288 702 219 q 694 150 653 93 q 612 36 542 5 q 472 -25 379 -25 l 379 -25 q 291 -25 221 4 q 151 33 108 90 q 65 148 57 216 q 49 283 49 453 l 49 453 l 49 641 q 49 806 57 875 q 64 944 105 1001 q 146 1058 216 1088 q 286 1119 379 1119 l 379 1119 q 467 1119 537 1090 q 608 1061 650 1004 q 693 946 701 878 q 709 810 709 641 l 709 641 z m 424 309 l 424 814 q 424 890 415 912 q 407 933 380 933 l 380 933 q 358 933 346 916 q 334 899 334 814 l 334 814 l 334 301 q 334 205 342 183 q 350 161 378 161 l 378 161 q 408 161 416 186 q 424 212 424 309 l 424 309 z m 452 1337 l 452 1337 l 568 1337 q 564 1245 514 1189 q 464 1133 375 1133 l 375 1133 q 286 1133 236 1189 q 187 1246 183 1337 l 183 1337 l 298 1337 q 307 1244 375 1244 l 375 1244 q 444 1244 452 1337 z "},"ŏ":{"ha":710,"x_min":41,"x_max":669,"o":"m 669 584 l 669 584 l 669 363 q 669 242 656 185 q 644 129 604 80 q 564 31 502 7 q 439 -16 357 -16 l 357 -16 q 267 -16 203 4 q 140 24 105 64 q 71 104 56 162 q 41 219 41 334 l 41 334 l 41 564 q 41 690 68 760 q 95 831 165 873 q 236 916 346 916 l 346 916 q 438 916 504 889 q 570 861 606 817 q 642 773 655 726 q 669 680 669 584 z m 395 237 l 395 652 q 395 721 387 739 q 380 757 355 757 l 355 757 q 331 757 323 739 q 315 721 315 652 l 315 652 l 315 245 q 315 182 323 162 q 331 143 355 143 l 355 143 q 379 143 387 161 q 395 178 395 237 l 395 237 z m 425 1165 l 425 1165 l 540 1165 q 536 1073 486 1017 q 436 960 347 960 l 347 960 q 258 960 209 1017 q 159 1074 155 1165 l 155 1165 l 271 1165 q 279 1072 347 1072 l 347 1072 q 416 1072 425 1165 z "},"Ő":{"ha":759,"x_min":49,"x_max":709,"o":"m 709 641 l 709 453 q 709 288 702 219 q 694 150 653 93 q 612 36 542 5 q 472 -25 379 -25 l 379 -25 q 291 -25 221 4 q 151 33 108 90 q 65 148 57 216 q 49 283 49 453 l 49 453 l 49 641 q 49 806 57 875 q 64 944 105 1001 q 146 1058 216 1088 q 286 1119 379 1119 l 379 1119 q 467 1119 537 1090 q 608 1061 650 1004 q 693 946 701 878 q 709 810 709 641 l 709 641 z m 424 309 l 424 814 q 424 890 415 912 q 407 933 380 933 l 380 933 q 358 933 346 916 q 334 899 334 814 l 334 814 l 334 301 q 334 205 342 183 q 350 161 378 161 l 378 161 q 408 161 416 186 q 424 212 424 309 l 424 309 z m 235 1343 l 420 1343 l 256 1133 l 155 1133 l 235 1343 z m 500 1343 l 684 1343 l 521 1133 l 420 1133 l 500 1343 z "},"ő":{"ha":710,"x_min":41,"x_max":669,"o":"m 669 584 l 669 584 l 669 363 q 669 242 656 185 q 644 129 604 80 q 564 31 502 7 q 439 -16 357 -16 l 357 -16 q 267 -16 203 4 q 140 24 105 64 q 71 104 56 162 q 41 219 41 334 l 41 334 l 41 564 q 41 690 68 760 q 95 831 165 873 q 236 916 346 916 l 346 916 q 438 916 504 889 q 570 861 606 817 q 642 773 655 726 q 669 680 669 584 z m 395 237 l 395 652 q 395 721 387 739 q 380 757 355 757 l 355 757 q 331 757 323 739 q 315 721 315 652 l 315 652 l 315 245 q 315 182 323 162 q 331 143 355 143 l 355 143 q 379 143 387 161 q 395 178 395 237 l 395 237 z m 208 1171 l 392 1171 l 229 960 l 127 960 l 208 1171 z m 472 1171 l 656 1171 l 493 960 l 392 960 l 472 1171 z "},"Ŕ":{"ha":748,"x_min":57,"x_max":694,"o":"m 57 0 l 57 1098 l 259 1098 q 461 1098 533 1082 q 604 1067 649 1003 q 694 939 694 798 l 694 798 q 694 670 663 626 q 631 582 537 573 l 537 573 q 622 552 651 517 q 680 481 687 452 q 694 422 694 290 l 694 290 l 694 0 l 429 0 l 429 365 q 429 453 415 474 q 401 495 342 495 l 342 495 l 342 0 l 57 0 z m 342 910 l 342 910 l 342 666 q 391 666 410 679 q 429 692 429 765 l 429 765 l 429 825 q 429 878 411 894 q 392 910 342 910 z m 333 1406 l 574 1406 l 351 1222 l 214 1222 l 333 1406 z "},"ŕ":{"ha":497,"x_min":49,"x_max":485,"o":"m 49 900 l 323 900 l 312 782 q 372 909 485 916 l 485 916 l 485 600 q 410 600 374 579 q 339 559 331 523 q 323 486 323 355 l 323 355 l 323 0 l 49 0 l 49 900 z m 222 1202 l 464 1202 l 241 1018 l 103 1018 l 222 1202 z "},"Ŗ":{"ha":748,"x_min":57,"x_max":694,"o":"m 57 0 l 57 1098 l 259 1098 q 461 1098 533 1082 q 604 1067 649 1003 q 694 939 694 798 l 694 798 q 694 670 663 626 q 631 582 537 573 l 537 573 q 622 552 651 517 q 680 481 687 452 q 694 422 694 290 l 694 290 l 694 0 l 429 0 l 429 365 q 429 453 415 474 q 401 495 342 495 l 342 495 l 342 0 l 57 0 z m 342 910 l 342 910 l 342 666 q 391 666 410 679 q 429 692 429 765 l 429 765 l 429 825 q 429 878 411 894 q 392 910 342 910 z m 281 -228 l 281 -54 l 466 -54 l 466 -111 q 466 -330 281 -368 l 281 -368 l 281 -289 q 321 -265 327 -228 l 327 -228 l 281 -228 z "},"ŗ":{"ha":497,"x_min":49,"x_max":485,"o":"m 49 900 l 323 900 l 312 782 q 372 909 485 916 l 485 916 l 485 600 q 410 600 374 579 q 339 559 331 523 q 323 486 323 355 l 323 355 l 323 0 l 49 0 l 49 900 z m 94 -228 l 94 -54 l 279 -54 l 279 -111 q 279 -330 94 -368 l 94 -368 l 94 -289 q 134 -265 140 -228 l 140 -228 l 94 -228 z "},"Ř":{"ha":748,"x_min":57,"x_max":694,"o":"m 57 0 l 57 1098 l 259 1098 q 461 1098 533 1082 q 604 1067 649 1003 q 694 939 694 798 l 694 798 q 694 670 663 626 q 631 582 537 573 l 537 573 q 622 552 651 517 q 680 481 687 452 q 694 422 694 290 l 694 290 l 694 0 l 429 0 l 429 365 q 429 453 415 474 q 401 495 342 495 l 342 495 l 342 0 l 57 0 z m 342 910 l 342 910 l 342 666 q 391 666 410 679 q 429 692 429 765 l 429 765 l 429 825 q 429 878 411 894 q 392 910 342 910 z m 276 1324 l 356 1235 l 431 1324 l 615 1324 l 452 1133 l 260 1133 l 86 1324 l 276 1324 z "},"ř":{"ha":497,"x_min":-20,"x_max":509,"o":"m 49 900 l 323 900 l 312 782 q 372 909 485 916 l 485 916 l 485 600 q 410 600 374 579 q 339 559 331 523 q 323 486 323 355 l 323 355 l 323 0 l 49 0 l 49 900 z m 170 1152 l 250 1063 l 326 1152 l 509 1152 l 346 960 l 155 960 l -20 1152 l 170 1152 z "},"Ś":{"ha":718,"x_min":33,"x_max":686,"o":"m 662 807 l 662 764 l 397 764 l 397 845 q 397 902 387 918 q 376 933 353 933 l 353 933 q 327 933 314 912 q 300 891 300 848 l 300 848 q 300 793 315 766 l 315 766 q 330 738 396 699 l 396 699 q 587 585 636 513 l 636 513 q 686 440 686 279 l 686 279 q 686 161 658 106 q 631 50 552 13 q 473 -25 369 -25 l 369 -25 q 254 -25 173 18 q 92 62 67 129 q 42 196 42 319 l 42 319 l 42 391 l 307 391 l 307 258 q 307 196 318 178 q 330 161 358 161 l 358 161 q 387 161 400 183 q 414 205 414 250 l 414 250 q 414 347 388 376 l 388 376 q 361 406 254 476 l 254 476 q 148 547 113 578 q 79 610 56 667 q 33 723 33 810 l 33 810 q 33 937 65 995 q 98 1053 170 1086 q 241 1119 343 1119 l 343 1119 q 454 1119 533 1083 q 611 1047 636 992 q 662 938 662 807 l 662 807 z m 336 1316 l 577 1316 l 354 1133 l 216 1133 l 336 1316 z "},"ś":{"ha":654,"x_min":28,"x_max":629,"o":"m 608 665 l 608 612 l 366 612 l 366 661 q 366 724 358 740 q 351 757 323 757 l 323 757 q 300 757 288 742 q 277 726 277 696 l 277 696 q 277 654 282 635 q 288 616 317 593 q 346 570 435 526 l 435 526 q 555 467 592 416 l 592 416 q 629 364 629 266 l 629 266 q 629 156 601 100 q 572 44 506 14 q 439 -16 345 -16 l 345 -16 q 240 -16 166 16 q 92 49 64 104 q 36 160 36 273 l 36 273 l 36 316 l 279 316 l 279 259 q 279 186 288 165 q 297 143 324 143 l 324 143 q 353 143 365 158 q 376 172 376 219 l 376 219 q 376 283 361 300 l 361 300 q 346 316 202 396 l 202 396 q 81 464 55 519 q 28 574 28 650 l 28 650 q 28 758 57 809 q 85 861 154 888 q 222 916 312 916 l 312 916 q 401 916 464 893 q 527 871 561 833 q 594 796 601 764 q 608 732 608 665 l 608 665 z m 309 1144 l 550 1144 l 327 960 l 189 960 l 309 1144 z "},"Ŝ":{"ha":718,"x_min":33,"x_max":686,"o":"m 662 807 l 662 764 l 397 764 l 397 845 q 397 902 387 918 q 376 933 353 933 l 353 933 q 327 933 314 912 q 300 891 300 848 l 300 848 q 300 793 315 766 l 315 766 q 330 738 396 699 l 396 699 q 587 585 636 513 l 636 513 q 686 440 686 279 l 686 279 q 686 161 658 106 q 631 50 552 13 q 473 -25 369 -25 l 369 -25 q 254 -25 173 18 q 92 62 67 129 q 42 196 42 319 l 42 319 l 42 391 l 307 391 l 307 258 q 307 196 318 178 q 330 161 358 161 l 358 161 q 387 161 400 183 q 414 205 414 250 l 414 250 q 414 347 388 376 l 388 376 q 361 406 254 476 l 254 476 q 148 547 113 578 q 79 610 56 667 q 33 723 33 810 l 33 810 q 33 937 65 995 q 98 1053 170 1086 q 241 1119 343 1119 l 343 1119 q 454 1119 533 1083 q 611 1047 636 992 q 662 938 662 807 l 662 807 z m 419 1133 l 344 1221 l 264 1133 l 74 1133 l 248 1324 l 439 1324 l 603 1133 l 419 1133 z "},"ŝ":{"ha":654,"x_min":28,"x_max":629,"o":"m 608 665 l 608 612 l 366 612 l 366 661 q 366 724 358 740 q 351 757 323 757 l 323 757 q 300 757 288 742 q 277 726 277 696 l 277 696 q 277 654 282 635 q 288 616 317 593 q 346 570 435 526 l 435 526 q 555 467 592 416 l 592 416 q 629 364 629 266 l 629 266 q 629 156 601 100 q 572 44 506 14 q 439 -16 345 -16 l 345 -16 q 240 -16 166 16 q 92 49 64 104 q 36 160 36 273 l 36 273 l 36 316 l 279 316 l 279 259 q 279 186 288 165 q 297 143 324 143 l 324 143 q 353 143 365 158 q 376 172 376 219 l 376 219 q 376 283 361 300 l 361 300 q 346 316 202 396 l 202 396 q 81 464 55 519 q 28 574 28 650 l 28 650 q 28 758 57 809 q 85 861 154 888 q 222 916 312 916 l 312 916 q 401 916 464 893 q 527 871 561 833 q 594 796 601 764 q 608 732 608 665 l 608 665 z m 390 960 l 315 1049 l 235 960 l 45 960 l 219 1152 l 410 1152 l 574 960 l 390 960 z "},"Ţ":{"ha":640,"x_min":8,"x_max":632,"o":"m 8 1098 l 632 1098 l 632 878 l 463 878 l 463 0 l 177 0 l 177 878 l 8 878 l 8 1098 z m 228 -228 l 228 -54 l 412 -54 l 412 -111 q 412 -330 228 -368 l 228 -368 l 228 -289 q 267 -265 273 -228 l 273 -228 l 228 -228 z "},"ţ":{"ha":423,"x_min":4,"x_max":423,"o":"m 63 1020 l 338 1020 l 338 878 l 412 878 l 412 736 l 338 736 l 338 254 q 338 165 347 155 q 356 145 423 145 l 423 145 l 423 0 l 313 0 q 219 0 179 8 q 139 16 109 44 q 78 72 71 108 q 63 144 63 279 l 63 279 l 63 736 l 4 736 l 4 878 l 63 878 l 63 1020 z m 140 -228 l 140 -54 l 324 -54 l 324 -111 q 324 -330 140 -368 l 140 -368 l 140 -289 q 179 -265 185 -228 l 185 -228 l 140 -228 z "},"Ť":{"ha":640,"x_min":8,"x_max":632,"o":"m 8 1098 l 632 1098 l 632 878 l 463 878 l 463 0 l 177 0 l 177 878 l 8 878 l 8 1098 z m 240 1324 l 320 1235 l 395 1324 l 579 1324 l 416 1133 l 224 1133 l 50 1324 l 240 1324 z "},"ť":{"ha":640,"x_min":4,"x_max":640,"o":"m 63 1020 l 338 1020 l 338 878 l 412 878 l 412 736 l 338 736 l 338 254 q 338 165 347 155 q 356 145 423 145 l 423 145 l 423 0 l 313 0 q 219 0 179 8 q 139 16 109 44 q 78 72 71 108 q 63 144 63 279 l 63 279 l 63 736 l 4 736 l 4 878 l 63 878 l 63 1020 z m 456 924 l 456 1098 l 640 1098 l 640 1041 q 640 823 456 784 l 456 784 l 456 863 q 495 887 501 924 l 501 924 l 456 924 z "},"Ŧ":{"ha":640,"x_min":8,"x_max":632,"o":"m 71 618 l 178 618 l 178 879 l 8 879 l 8 1099 l 632 1099 l 632 879 l 464 879 l 464 618 l 572 618 l 572 501 l 464 501 l 464 0 l 178 0 l 178 501 l 71 501 l 71 618 z "},"ŧ":{"ha":422,"x_min":4,"x_max":424,"o":"m 4 618 l 64 618 l 64 736 l 4 736 l 4 878 l 64 878 l 64 1021 l 338 1021 l 338 878 l 411 878 l 411 736 l 338 736 l 338 618 l 410 618 l 410 501 l 338 501 l 338 254 q 338 191 341 172 q 345 153 358 149 q 372 144 424 144 l 424 144 l 424 0 l 313 0 q 227 0 184 7 q 141 14 109 43 q 76 73 70 118 q 64 163 64 279 l 64 279 l 64 501 l 4 501 l 4 618 z "},"Ũ":{"ha":760,"x_min":53,"x_max":706,"o":"m 420 1109 l 706 1109 l 706 375 q 706 250 698 200 q 690 149 650 96 q 610 43 544 15 q 479 -12 390 -12 l 390 -12 q 292 -12 216 20 q 141 53 104 105 q 66 157 60 215 q 53 273 53 459 l 53 459 l 53 1109 l 338 1109 l 338 286 q 338 214 346 194 q 354 174 378 174 l 378 174 q 405 174 413 196 q 420 218 420 300 l 420 300 l 420 1109 z m 552 1339 l 661 1261 q 630 1193 585 1166 q 539 1139 505 1139 l 505 1139 q 456 1139 401 1161 l 401 1161 l 351 1181 q 302 1200 279 1200 l 279 1200 q 229 1200 196 1133 l 196 1133 l 89 1204 q 163 1335 257 1335 l 257 1335 q 306 1335 363 1314 l 363 1314 l 406 1298 q 458 1278 477 1278 l 477 1278 q 534 1278 552 1339 l 552 1339 z "},"ũ":{"ha":726,"x_min":45,"x_max":676,"o":"m 402 907 l 676 907 l 676 7 l 397 7 l 402 82 q 374 37 332 14 q 290 -9 236 -9 l 236 -9 q 174 -9 134 13 q 93 35 74 71 q 54 106 50 145 q 45 184 45 300 l 45 300 l 45 907 l 319 907 l 319 295 q 319 190 325 170 q 332 151 360 151 l 360 151 q 391 151 396 171 q 402 191 402 302 l 402 302 l 402 907 z m 528 1167 l 637 1089 q 606 1021 561 994 q 515 966 481 966 l 481 966 q 433 966 377 989 l 377 989 l 327 1008 q 279 1028 255 1028 l 255 1028 q 205 1028 172 960 l 172 960 l 65 1031 q 140 1163 233 1163 l 233 1163 q 282 1163 340 1141 l 340 1141 l 382 1126 q 435 1106 454 1106 l 454 1106 q 510 1106 528 1167 l 528 1167 z "},"Ū":{"ha":760,"x_min":53,"x_max":706,"o":"m 420 1109 l 706 1109 l 706 375 q 706 250 698 200 q 690 149 650 96 q 610 43 544 15 q 479 -12 390 -12 l 390 -12 q 292 -12 216 20 q 141 53 104 105 q 66 157 60 215 q 53 273 53 459 l 53 459 l 53 1109 l 338 1109 l 338 286 q 338 214 346 194 q 354 174 378 174 l 378 174 q 405 174 413 196 q 420 218 420 300 l 420 300 l 420 1109 z m 109 1250 l 648 1250 l 648 1133 l 109 1133 l 109 1250 z "},"ū":{"ha":726,"x_min":45,"x_max":676,"o":"m 402 900 l 676 900 l 676 0 l 397 0 l 402 75 q 374 29 332 6 q 290 -16 236 -16 l 236 -16 q 174 -16 134 5 q 93 27 74 63 q 54 99 50 138 q 45 177 45 293 l 45 293 l 45 900 l 319 900 l 319 288 q 319 182 325 163 q 332 143 360 143 l 360 143 q 391 143 396 163 q 402 184 402 294 l 402 294 l 402 900 z m 87 1078 l 627 1078 l 627 960 l 87 960 l 87 1078 z "},"Ŭ":{"ha":760,"x_min":53,"x_max":706,"o":"m 420 1109 l 706 1109 l 706 375 q 706 250 698 200 q 690 149 650 96 q 610 43 544 15 q 479 -12 390 -12 l 390 -12 q 292 -12 216 20 q 141 53 104 105 q 66 157 60 215 q 53 273 53 459 l 53 459 l 53 1109 l 338 1109 l 338 286 q 338 214 346 194 q 354 174 378 174 l 378 174 q 405 174 413 196 q 420 218 420 300 l 420 300 l 420 1109 z m 454 1337 l 454 1337 l 569 1337 q 565 1245 515 1189 q 465 1133 376 1133 l 376 1133 q 287 1133 238 1189 q 189 1246 184 1337 l 184 1337 l 300 1337 q 308 1244 376 1244 l 376 1244 q 446 1244 454 1337 z "},"ŭ":{"ha":726,"x_min":45,"x_max":676,"o":"m 402 900 l 676 900 l 676 0 l 397 0 l 402 75 q 374 29 332 6 q 290 -16 236 -16 l 236 -16 q 174 -16 134 5 q 93 27 74 63 q 54 99 50 138 q 45 177 45 293 l 45 293 l 45 900 l 319 900 l 319 288 q 319 182 325 163 q 332 143 360 143 l 360 143 q 391 143 396 163 q 402 184 402 294 l 402 294 l 402 900 z m 437 1165 l 437 1165 l 553 1165 q 549 1073 499 1017 q 449 960 360 960 l 360 960 q 271 960 221 1017 q 172 1074 168 1165 l 168 1165 l 283 1165 q 292 1072 360 1072 l 360 1072 q 429 1072 437 1165 z "},"Ů":{"ha":760,"x_min":53,"x_max":706,"o":"m 420 1109 l 706 1109 l 706 375 q 706 250 698 200 q 690 149 650 96 q 610 43 544 15 q 479 -12 390 -12 l 390 -12 q 292 -12 216 20 q 141 53 104 105 q 66 157 60 215 q 53 273 53 459 l 53 459 l 53 1109 l 338 1109 l 338 286 q 338 214 346 194 q 354 174 378 174 l 378 174 q 405 174 413 196 q 420 218 420 300 l 420 300 l 420 1109 z m 376 1418 l 376 1418 q 433 1418 476 1377 q 519 1336 519 1275 l 519 1275 q 519 1216 477 1174 q 435 1133 376 1133 l 376 1133 q 317 1133 275 1174 q 233 1216 233 1275 l 233 1275 q 233 1334 275 1376 q 317 1418 376 1418 z m 375 1329 l 375 1329 q 353 1329 336 1312 q 319 1296 319 1272 l 319 1272 q 319 1249 336 1233 q 353 1217 375 1217 l 375 1217 q 398 1217 415 1233 q 431 1249 431 1272 l 431 1272 q 431 1296 415 1312 q 398 1329 375 1329 z "},"ů":{"ha":726,"x_min":45,"x_max":676,"o":"m 402 900 l 676 900 l 676 0 l 397 0 l 402 75 q 374 29 332 6 q 290 -16 236 -16 l 236 -16 q 174 -16 134 5 q 93 27 74 63 q 54 99 50 138 q 45 177 45 293 l 45 293 l 45 900 l 319 900 l 319 288 q 319 182 325 163 q 332 143 360 143 l 360 143 q 391 143 396 163 q 402 184 402 294 l 402 294 l 402 900 z m 359 1246 l 359 1246 q 416 1246 459 1205 q 502 1164 502 1103 l 502 1103 q 502 1044 460 1002 q 418 960 359 960 l 359 960 q 300 960 258 1002 q 216 1044 216 1103 l 216 1103 q 216 1162 258 1204 q 300 1246 359 1246 z m 358 1156 l 358 1156 q 336 1156 319 1140 q 302 1124 302 1100 l 302 1100 q 302 1077 319 1061 q 336 1044 358 1044 l 358 1044 q 381 1044 398 1061 q 414 1077 414 1100 l 414 1100 q 414 1124 398 1140 q 381 1156 358 1156 z "},"Ű":{"ha":760,"x_min":53,"x_max":706,"o":"m 420 1109 l 706 1109 l 706 375 q 706 250 698 200 q 690 149 650 96 q 610 43 544 15 q 479 -12 390 -12 l 390 -12 q 292 -12 216 20 q 141 53 104 105 q 66 157 60 215 q 53 273 53 459 l 53 459 l 53 1109 l 338 1109 l 338 286 q 338 214 346 194 q 354 174 378 174 l 378 174 q 405 174 413 196 q 420 218 420 300 l 420 300 l 420 1109 z m 220 1343 l 405 1343 l 241 1133 l 140 1133 l 220 1343 z m 485 1343 l 669 1343 l 506 1133 l 405 1133 l 485 1343 z "},"ű":{"ha":726,"x_min":45,"x_max":676,"o":"m 402 900 l 676 900 l 676 0 l 397 0 l 402 75 q 374 29 332 6 q 290 -16 236 -16 l 236 -16 q 174 -16 134 5 q 93 27 74 63 q 54 99 50 138 q 45 177 45 293 l 45 293 l 45 900 l 319 900 l 319 288 q 319 182 325 163 q 332 143 360 143 l 360 143 q 391 143 396 163 q 402 184 402 294 l 402 294 l 402 900 z m 202 1171 l 387 1171 l 223 960 l 122 960 l 202 1171 z m 467 1171 l 650 1171 l 488 960 l 387 960 l 467 1171 z "},"Ų":{"ha":760,"x_min":53,"x_max":707,"o":"m 335 -1 l 335 -1 q 247 5 185 33 q 123 60 95 107 q 66 155 60 209 q 53 264 53 364 l 53 364 l 53 1099 l 339 1099 l 339 250 q 339 191 349 177 q 359 163 379 163 l 379 163 q 399 163 410 180 q 421 197 421 265 l 421 265 l 421 1099 l 707 1099 l 707 314 q 707 227 693 172 q 680 117 642 76 q 604 35 554 18 q 504 2 432 -1 l 432 -1 q 376 -58 376 -92 l 376 -92 q 376 -135 425 -135 l 425 -135 q 459 -135 503 -117 l 503 -117 l 530 -184 q 465 -215 412 -215 l 412 -215 q 351 -215 314 -186 q 278 -157 278 -110 l 278 -110 q 278 -55 335 -1 z "},"ų":{"ha":725,"x_min":45,"x_max":739,"o":"m 543 0 l 543 0 l 397 0 l 401 75 q 371 32 334 15 q 296 -1 218 -1 l 218 -1 q 165 -1 134 9 q 103 20 78 58 q 54 96 49 138 q 45 181 45 293 l 45 293 l 45 900 l 318 900 l 318 204 q 318 143 359 143 l 359 143 q 382 143 393 158 q 403 172 403 220 l 403 220 l 403 900 l 676 900 l 676 0 l 643 0 q 585 -58 585 -92 l 585 -92 q 585 -135 633 -135 l 633 -135 q 667 -135 711 -117 l 711 -117 l 739 -184 q 673 -215 621 -215 l 621 -215 q 559 -215 523 -186 q 486 -157 486 -110 l 486 -110 q 486 -54 543 0 z "},"Ŵ":{"ha":1131,"x_min":0,"x_max":1131,"o":"m 854 1098 l 1131 1098 l 1004 0 l 648 0 q 599 253 562 575 l 562 575 q 545 437 482 0 l 482 0 l 127 0 l 0 1098 l 277 1098 l 307 715 l 336 345 q 352 632 415 1098 l 415 1098 l 712 1098 q 718 1050 743 736 l 743 736 l 774 319 q 798 717 854 1098 l 854 1098 z m 641 1133 l 566 1221 l 486 1133 l 296 1133 l 470 1324 l 661 1324 l 825 1133 l 641 1133 z "},"ŵ":{"ha":930,"x_min":-4,"x_max":934,"o":"m 698 900 l 934 900 l 825 0 l 527 0 q 503 165 471 434 l 471 434 q 460 316 440 195 l 440 195 l 410 0 l 112 0 l -4 900 l 232 900 q 235 865 292 385 l 292 385 q 296 434 353 900 l 353 900 l 580 900 l 635 385 q 648 610 698 900 l 698 900 z m 543 960 l 467 1049 l 387 960 l 197 960 l 372 1152 l 563 1152 l 726 960 l 543 960 z "},"Ŷ":{"ha":657,"x_min":-8,"x_max":665,"o":"m 403 1098 l 665 1098 l 457 397 l 457 0 l 193 0 l 193 397 l -8 1098 l 254 1098 q 316 777 323 666 l 323 666 q 347 842 403 1098 l 403 1098 z m 405 1133 l 330 1221 l 250 1133 l 60 1133 l 234 1324 l 425 1324 l 589 1133 l 405 1133 z "},"ŷ":{"ha":623,"x_min":-8,"x_max":623,"o":"m 374 900 l 623 900 l 544 249 q 526 94 513 38 q 500 -18 471 -55 q 442 -92 390 -109 q 338 -126 224 -126 l 224 -126 l 58 -126 l 58 18 q 122 18 140 24 q 159 31 159 53 l 159 53 q 159 64 142 147 l 142 147 l -8 900 l 241 900 l 330 293 l 374 900 z m 382 960 l 307 1049 l 227 960 l 37 960 l 212 1152 l 403 1152 l 566 960 l 382 960 z "},"Ź":{"ha":551,"x_min":8,"x_max":534,"o":"m 34 1098 l 534 1098 l 534 878 l 321 220 l 534 220 l 534 0 l 8 0 l 8 159 l 228 878 l 34 878 l 34 1098 z m 245 1316 l 487 1316 l 264 1133 l 126 1133 l 245 1316 z "},"ź":{"ha":488,"x_min":8,"x_max":475,"o":"m 29 900 l 475 900 l 475 701 l 273 180 l 475 180 l 475 0 l 8 0 l 8 189 l 215 720 l 29 720 l 29 900 z m 222 1144 l 464 1144 l 241 960 l 103 960 l 222 1144 z "},"Ż":{"ha":551,"x_min":8,"x_max":534,"o":"m 34 1098 l 534 1098 l 534 878 l 321 220 l 534 220 l 534 0 l 8 0 l 8 159 l 228 878 l 34 878 l 34 1098 z m 193 1309 l 370 1309 l 370 1133 l 193 1133 l 193 1309 z "},"ż":{"ha":488,"x_min":8,"x_max":475,"o":"m 29 900 l 475 900 l 475 701 l 273 180 l 475 180 l 475 0 l 8 0 l 8 189 l 215 720 l 29 720 l 29 900 z m 157 1137 l 334 1137 l 334 960 l 157 960 l 157 1137 z "},"ſ":{"ha":400,"x_min":49,"x_max":396,"o":"m 396 961 l 379 961 q 322 961 322 847 l 322 847 l 322 0 l 49 0 l 49 733 q 49 854 57 915 q 65 976 103 1025 q 140 1074 211 1098 q 281 1121 379 1121 l 379 1121 l 396 1121 l 396 961 z "},"Ǻ":{"ha":705,"x_min":-8,"x_max":713,"o":"m 137 1098 l 550 1098 l 713 0 l 421 0 l 407 197 l 304 197 l 288 0 l -8 0 l 137 1098 z m 301 392 l 399 392 q 377 578 355 852 l 355 852 q 312 538 301 392 l 301 392 z m 353 1418 l 353 1418 q 410 1418 453 1377 q 496 1336 496 1275 l 496 1275 q 496 1216 454 1174 q 412 1133 353 1133 l 353 1133 q 294 1133 252 1174 q 210 1216 210 1275 l 210 1275 q 210 1334 252 1376 q 294 1418 353 1418 z m 352 1329 l 352 1329 q 330 1329 313 1312 q 296 1296 296 1272 l 296 1272 q 296 1249 313 1233 q 330 1217 352 1217 l 352 1217 q 375 1217 392 1233 q 408 1249 408 1272 l 408 1272 q 408 1296 392 1312 q 375 1329 352 1329 z m 336 1622 l 577 1622 l 354 1438 l 216 1438 l 336 1622 z "},"ǻ":{"ha":700,"x_min":37,"x_max":654,"o":"m 294 646 l 294 551 l 37 551 l 37 612 q 37 716 61 773 q 85 829 157 873 q 230 916 346 916 l 346 916 q 485 916 555 867 q 626 818 640 746 q 654 675 654 452 l 654 452 l 654 0 l 388 0 l 388 80 q 363 32 323 8 q 283 -16 229 -16 l 229 -16 q 157 -16 97 24 q 37 64 37 201 l 37 201 l 37 275 q 37 376 68 412 q 100 449 227 498 l 227 498 q 361 551 371 569 q 380 587 380 644 l 380 644 q 380 714 370 735 q 359 757 335 757 l 335 757 q 307 757 300 739 q 294 721 294 646 l 294 646 z m 380 243 l 380 428 q 315 380 304 347 q 294 315 294 254 l 294 254 q 294 184 303 163 q 312 143 339 143 l 339 143 q 365 143 373 159 q 380 175 380 243 l 380 243 z m 343 1246 l 343 1246 q 400 1246 443 1205 q 486 1164 486 1103 l 486 1103 q 486 1044 444 1002 q 401 960 343 960 l 343 960 q 283 960 242 1002 q 200 1044 200 1103 l 200 1103 q 200 1162 242 1204 q 284 1246 343 1246 z m 342 1156 l 342 1156 q 319 1156 303 1140 q 286 1124 286 1100 l 286 1100 q 286 1077 303 1061 q 319 1044 342 1044 l 342 1044 q 365 1044 381 1061 q 398 1077 398 1100 l 398 1100 q 398 1124 381 1140 q 365 1156 342 1156 z m 318 1461 l 559 1461 l 336 1277 l 199 1277 l 318 1461 z "},"Ǽ":{"ha":991,"x_min":-8,"x_max":966,"o":"m 281 1098 l 952 1098 l 952 878 l 760 878 l 760 670 l 941 670 l 941 461 l 760 461 l 760 220 l 966 220 l 966 0 l 475 0 l 475 197 l 311 197 l 264 0 l -8 0 l 281 1098 z m 475 392 l 475 892 l 353 392 l 475 392 z m 545 1316 l 786 1316 l 563 1133 l 425 1133 l 545 1316 z "},"ǽ":{"ha":1046,"x_min":37,"x_max":1005,"o":"m 1005 550 l 1005 434 l 648 434 l 648 252 q 648 183 656 163 q 665 143 694 143 l 694 143 q 724 143 735 163 q 746 184 746 248 l 746 248 l 746 376 l 1005 376 l 1005 285 q 1005 196 978 135 q 951 74 881 29 q 810 -16 708 -16 l 708 -16 q 613 -16 547 9 q 480 35 441 87 l 441 87 q 404 35 353 9 q 302 -16 239 -16 l 239 -16 q 164 -16 116 14 q 67 45 52 92 q 37 138 37 245 l 37 245 q 37 340 51 375 q 64 410 108 437 q 151 465 258 502 l 258 502 q 314 521 334 534 q 353 547 361 566 q 368 585 368 649 l 368 649 q 368 709 360 733 q 352 757 330 757 l 330 757 q 308 757 301 737 q 295 718 295 637 l 295 637 l 295 551 l 38 551 l 38 618 q 38 693 48 736 q 59 779 97 822 q 134 865 192 890 q 250 916 340 916 l 340 916 q 391 916 437 904 q 484 892 527 867 l 527 867 q 558 892 600 904 q 641 916 692 916 l 692 916 q 795 916 870 871 q 944 827 975 757 q 1005 687 1005 550 l 1005 550 z m 648 581 l 731 581 l 731 662 q 731 725 720 741 q 708 757 690 757 l 690 757 q 667 757 657 739 q 648 720 648 662 l 648 662 l 648 581 z m 374 277 l 374 422 q 321 385 303 354 q 286 323 286 239 l 286 239 q 286 186 296 165 q 307 143 334 143 l 334 143 q 354 143 363 157 q 373 170 373 197 l 373 197 l 374 277 z m 498 1144 l 739 1144 l 516 960 l 378 960 l 498 1144 z "},"Ǿ":{"ha":759,"x_min":-37,"x_max":795,"o":"m 795 1039 l 696 908 q 709 857 709 642 l 709 642 l 709 454 q 709 289 702 220 q 694 151 653 94 q 612 37 542 7 q 472 -24 379 -24 l 379 -24 q 280 -24 210 9 q 140 41 98 106 l 98 106 l 25 11 l -37 58 l 62 189 q 49 237 49 454 l 49 454 l 49 642 q 49 808 57 877 q 64 945 105 1002 q 146 1059 216 1090 q 286 1120 379 1120 l 379 1120 q 477 1120 548 1088 q 618 1056 661 991 l 661 991 l 733 1086 l 795 1039 z m 334 551 l 424 669 l 424 815 q 424 892 415 913 q 407 935 380 935 l 380 935 q 353 935 343 912 q 334 889 334 815 l 334 815 l 334 551 z m 424 541 l 334 422 l 334 302 q 334 207 342 184 q 350 162 378 162 l 378 162 q 408 162 416 188 q 424 214 424 311 l 424 311 l 424 541 z m 347 1316 l 589 1316 l 366 1133 l 228 1133 l 347 1316 z "},"ǿ":{"ha":710,"x_min":41,"x_max":669,"o":"m 654 856 l 618 801 q 645 765 657 723 q 669 680 669 584 l 669 584 l 669 363 q 669 242 656 185 q 644 129 604 80 q 564 31 502 7 q 439 -16 357 -16 l 357 -16 q 280 -16 223 -2 q 166 13 130 41 l 130 41 l 109 9 l 56 44 l 86 91 q 63 129 52 176 q 41 224 41 334 l 41 334 l 41 564 q 41 690 68 760 q 95 831 165 873 q 236 916 346 916 l 346 916 q 417 916 474 899 q 531 882 573 848 l 573 848 l 601 890 l 654 856 z m 315 444 l 395 566 l 395 652 q 395 721 387 739 q 380 757 355 757 l 355 757 q 331 757 323 739 q 315 721 315 652 l 315 652 l 315 444 z m 395 449 l 315 326 l 315 245 q 315 182 323 162 q 331 143 355 143 l 355 143 q 379 143 387 161 q 395 178 395 237 l 395 237 l 395 449 z m 330 1144 l 572 1144 l 349 960 l 211 960 l 330 1144 z "},"΄":{"ha":463,"x_min":134,"x_max":355,"o":"m 134 916 l 170 1099 l 355 1099 l 271 916 l 134 916 z "},"΅":{"ha":463,"x_min":-4,"x_max":468,"o":"m 138 1257 l 174 1440 l 359 1440 l 275 1257 l 138 1257 z m -4 1018 l -4 1194 l 170 1194 l 170 1018 l -4 1018 z m 290 1018 l 290 1194 l 468 1194 l 468 1018 l 290 1018 z "},"Ά":{"ha":705,"x_min":-111,"x_max":713,"o":"m 137 1098 l 550 1098 l 713 0 l 421 0 l 407 197 l 304 197 l 288 0 l -8 0 l 137 1098 z m 301 392 l 399 392 q 377 578 355 852 l 355 852 q 312 538 301 392 l 301 392 z m -111 916 l -75 1099 l 111 1099 l 26 916 l -111 916 z "},"·":{"ha":305,"x_min":49,"x_max":256,"o":"m 49 659 l 256 659 l 256 435 l 49 435 l 49 659 z "},"Έ":{"ha":746,"x_min":-11,"x_max":722,"o":"m 227 0 l 227 1098 l 703 1098 l 703 878 l 512 878 l 512 670 l 690 670 l 690 461 l 512 461 l 512 220 l 722 220 l 722 0 l 227 0 z m -11 916 l 25 1099 l 211 1099 l 126 916 l -11 916 z "},"Ή":{"ha":940,"x_min":-11,"x_max":883,"o":"m 597 1098 l 883 1098 l 883 0 l 597 0 l 597 461 l 512 461 l 512 0 l 227 0 l 227 1098 l 512 1098 l 512 705 l 597 705 l 597 1098 z m -11 916 l 25 1099 l 211 1099 l 126 916 l -11 916 z "},"Ί":{"ha":570,"x_min":-11,"x_max":512,"o":"m 227 1098 l 512 1098 l 512 0 l 227 0 l 227 1098 z m -11 916 l 25 1099 l 211 1099 l 126 916 l -11 916 z "},"Ό":{"ha":889,"x_min":-11,"x_max":831,"o":"m 831 644 l 831 456 q 831 290 824 221 q 816 153 775 96 q 734 39 664 8 q 594 -22 501 -22 l 501 -22 q 413 -22 343 6 q 273 35 230 93 q 187 151 179 218 q 171 286 171 456 l 171 456 l 171 644 q 171 809 179 878 q 186 947 228 1004 q 269 1061 338 1091 q 408 1122 501 1122 l 501 1122 q 589 1122 660 1093 q 730 1064 772 1006 q 815 949 823 881 q 831 813 831 644 l 831 644 z m 546 312 l 546 817 q 546 893 537 915 q 529 936 503 936 l 503 936 q 480 936 468 919 q 456 901 456 817 l 456 817 l 456 304 q 456 208 464 186 q 472 163 500 163 l 500 163 q 530 163 538 189 q 546 215 546 312 l 546 312 z m -11 916 l 25 1099 l 211 1099 l 126 916 l -11 916 z "},"Ύ":{"ha":889,"x_min":-11,"x_max":896,"o":"m 633 1098 l 896 1098 l 688 397 l 688 0 l 423 0 l 423 397 l 222 1098 l 485 1098 q 547 777 554 666 l 554 666 q 578 842 633 1098 l 633 1098 z m -11 916 l 25 1099 l 211 1099 l 126 916 l -11 916 z "},"Ώ":{"ha":909,"x_min":-11,"x_max":868,"o":"m 502 167 l 502 167 l 502 0 l 172 0 l 172 165 l 214 165 q 245 165 321 158 l 321 158 q 262 197 225 274 q 188 351 188 453 l 188 453 l 188 713 q 188 855 195 903 q 201 951 240 1005 q 278 1059 345 1083 q 412 1107 518 1107 l 518 1107 q 616 1107 686 1083 q 755 1060 797 1009 q 838 958 845 909 q 853 859 853 713 l 853 713 l 853 453 q 853 351 816 274 q 779 197 720 158 l 720 158 q 783 165 821 165 l 821 165 l 868 165 l 868 0 l 539 0 l 539 167 q 567 194 567 307 l 567 307 l 567 827 q 567 907 557 927 q 547 947 523 947 l 523 947 q 496 947 485 928 q 474 909 474 827 l 474 827 l 474 307 q 474 194 502 167 z m -11 916 l 25 1099 l 211 1099 l 126 916 l -11 916 z "},"ΐ":{"ha":422,"x_min":-49,"x_max":423,"o":"m 49 257 l 49 257 l 49 900 l 322 900 l 322 243 q 322 195 339 169 q 357 142 412 142 l 412 142 l 412 0 l 368 0 q 228 0 167 13 q 106 26 77 80 q 49 133 49 257 z m 93 1199 l 129 1383 l 315 1383 l 231 1199 l 93 1199 z m -49 960 l -49 1137 l 125 1137 l 125 960 l -49 960 z m 245 960 l 245 1137 l 423 1137 l 423 960 l 245 960 z "},"Α":{"ha":705,"x_min":-8,"x_max":713,"o":"m 137 1098 l 550 1098 l 713 0 l 421 0 l 407 197 l 304 197 l 288 0 l -8 0 l 137 1098 z m 301 392 l 399 392 q 377 578 355 852 l 355 852 q 312 538 301 392 l 301 392 z "},"Β":{"ha":767,"x_min":57,"x_max":722,"o":"m 57 0 l 57 1098 l 342 1098 q 477 1098 546 1077 q 616 1056 659 992 q 701 928 701 785 l 701 785 q 701 689 671 651 q 641 613 552 593 l 552 593 q 651 570 686 518 q 722 467 722 359 l 722 359 l 722 258 q 722 146 696 93 q 671 39 615 20 q 559 0 387 0 l 387 0 l 57 0 z m 342 910 l 342 910 l 342 666 q 361 667 371 667 l 371 667 q 413 667 425 687 q 436 708 436 806 l 436 806 q 436 857 427 878 q 417 899 402 904 q 387 909 342 910 z m 342 495 l 342 495 l 342 188 q 403 190 419 207 q 436 224 436 290 l 436 290 l 436 393 q 436 463 421 478 q 406 493 342 495 z "},"Γ":{"ha":528,"x_min":57,"x_max":515,"o":"m 343 0 l 57 0 l 57 1099 l 515 1099 l 515 880 l 343 880 l 343 0 z "},"Δ":{"ha":705,"x_min":-8,"x_max":714,"o":"m -8 0 l 138 1099 l 550 1099 l 714 0 l -8 0 z m 301 196 l 301 196 l 399 196 q 399 217 381 513 q 363 809 355 852 l 355 852 q 348 808 325 509 q 301 210 301 196 z "},"Ε":{"ha":577,"x_min":57,"x_max":552,"o":"m 57 0 l 57 1098 l 533 1098 l 533 878 l 342 878 l 342 670 l 521 670 l 521 461 l 342 461 l 342 220 l 552 220 l 552 0 l 57 0 z "},"Ζ":{"ha":551,"x_min":8,"x_max":534,"o":"m 34 1098 l 534 1098 l 534 878 l 321 220 l 534 220 l 534 0 l 8 0 l 8 159 l 228 878 l 34 878 l 34 1098 z "},"Η":{"ha":771,"x_min":57,"x_max":713,"o":"m 428 1098 l 713 1098 l 713 0 l 428 0 l 428 461 l 342 461 l 342 0 l 57 0 l 57 1098 l 342 1098 l 342 705 l 428 705 l 428 1098 z "},"Θ":{"ha":758,"x_min":49,"x_max":710,"o":"m 710 654 l 710 450 q 710 273 699 201 q 688 129 645 81 q 602 33 535 13 q 469 -8 379 -8 l 379 -8 q 295 -8 232 10 q 169 28 126 68 q 84 109 71 155 q 57 201 53 269 q 49 337 49 450 l 49 450 l 49 654 q 49 830 59 902 q 70 975 113 1021 q 156 1067 222 1087 q 288 1107 379 1107 l 379 1107 q 471 1107 536 1088 q 602 1069 645 1022 q 688 976 699 903 q 710 829 710 654 l 710 654 z m 335 633 l 424 633 l 424 827 q 424 896 417 922 q 410 947 379 947 l 379 947 q 355 947 345 927 q 335 907 335 827 l 335 827 l 335 633 z m 424 473 l 335 473 l 335 245 q 335 203 343 180 q 351 157 378 157 l 378 157 q 401 157 413 176 q 424 195 424 265 l 424 265 l 424 473 z "},"Ι":{"ha":400,"x_min":57,"x_max":343,"o":"m 343 0 l 57 0 l 57 1099 l 343 1099 l 343 0 z "},"Κ":{"ha":745,"x_min":57,"x_max":753,"o":"m 469 1098 l 737 1098 l 574 602 l 753 0 l 458 0 l 342 471 l 342 0 l 57 0 l 57 1098 l 342 1098 l 342 671 l 469 1098 z "},"Λ":{"ha":728,"x_min":-7,"x_max":736,"o":"m 571 1099 l 736 0 l 435 0 q 390 384 361 768 l 361 768 q 334 384 294 0 l 294 0 l -7 0 l 138 1099 l 571 1099 z "},"Μ":{"ha":996,"x_min":57,"x_max":938,"o":"m 566 1098 l 938 1098 l 938 0 l 688 0 l 688 741 l 589 0 l 412 0 l 307 724 l 307 0 l 57 0 l 57 1098 l 427 1098 q 443 999 461 865 l 461 865 l 500 585 l 566 1098 z "},"Ν":{"ha":752,"x_min":57,"x_max":694,"o":"m 456 1098 l 694 1098 l 694 0 l 444 0 l 296 499 l 296 0 l 57 0 l 57 1098 l 296 1098 l 456 604 l 456 1098 z "},"Ξ":{"ha":640,"x_min":22,"x_max":618,"o":"m 618 879 l 22 879 l 22 1099 l 618 1099 l 618 879 z m 562 452 l 78 452 l 78 671 l 562 671 l 562 452 z m 618 0 l 22 0 l 22 220 l 618 220 l 618 0 z "},"Ο":{"ha":759,"x_min":49,"x_max":709,"o":"m 709 643 l 709 455 q 709 290 702 221 q 694 152 653 95 q 612 38 542 7 q 472 -23 379 -23 l 379 -23 q 291 -23 221 6 q 151 35 108 92 q 65 150 57 218 q 49 286 49 455 l 49 455 l 49 643 q 49 808 57 877 q 64 946 105 1003 q 146 1060 216 1090 q 286 1121 379 1121 l 379 1121 q 467 1121 537 1092 q 608 1063 650 1006 q 693 948 701 880 q 709 812 709 643 l 709 643 z m 424 311 l 424 816 q 424 892 415 914 q 407 935 380 935 l 380 935 q 358 935 346 918 q 334 901 334 816 l 334 816 l 334 303 q 334 208 342 185 q 350 163 378 163 l 378 163 q 408 163 416 189 q 424 214 424 311 l 424 311 z "},"Π":{"ha":771,"x_min":57,"x_max":714,"o":"m 428 0 l 428 879 l 343 879 l 343 0 l 57 0 l 57 1099 l 714 1099 l 714 0 l 428 0 z "},"Ρ":{"ha":697,"x_min":57,"x_max":672,"o":"m 343 441 l 343 0 l 57 0 l 57 1099 l 345 1099 q 451 1099 512 1085 q 572 1072 613 1030 q 654 988 663 940 q 672 892 672 790 l 672 790 l 672 696 q 672 531 606 486 q 541 441 419 441 l 419 441 l 343 441 z m 433 730 l 433 730 l 433 819 q 433 875 416 892 q 399 909 343 909 l 343 909 l 343 631 l 364 631 q 403 631 418 649 q 433 668 433 730 z "},"Σ":{"ha":547,"x_min":-16,"x_max":521,"o":"m 419 587 l 302 220 l 521 220 l 521 0 l -12 0 l 175 589 l -16 1099 l 517 1099 l 517 879 l 306 879 l 419 587 z "},"Τ":{"ha":640,"x_min":8,"x_max":632,"o":"m 8 1098 l 632 1098 l 632 878 l 463 878 l 463 0 l 177 0 l 177 878 l 8 878 l 8 1098 z "},"Υ":{"ha":657,"x_min":-8,"x_max":665,"o":"m 403 1098 l 665 1098 l 457 397 l 457 0 l 193 0 l 193 397 l -8 1098 l 254 1098 q 316 777 323 666 l 323 666 q 347 842 403 1098 l 403 1098 z "},"Φ":{"ha":1107,"x_min":21,"x_max":1086,"o":"m 1084 557 l 1084 538 q 1084 430 1074 382 l 1074 382 q 1060 317 1014 264 l 1014 264 q 942 182 743 182 l 743 182 l 693 182 l 693 0 l 407 0 l 407 182 l 363 182 q 163 182 92 264 l 92 264 q 45 317 31 382 l 31 382 q 21 430 21 538 l 21 538 l 21 557 q 21 665 31 712 l 31 712 q 45 778 92 831 l 92 831 q 163 911 363 911 l 363 911 q 378 911 407 913 l 407 913 l 407 1099 l 693 1099 l 693 913 q 728 911 743 911 l 743 911 q 943 911 1014 831 l 1014 831 q 1060 778 1074 712 l 1074 712 q 1084 665 1084 557 l 1084 557 z m 799 476 l 799 476 l 799 618 q 799 674 777 708 q 755 742 722 742 l 722 742 l 693 742 l 693 353 l 722 353 q 755 353 777 387 q 799 420 799 476 z m 383 353 l 407 353 l 407 742 l 383 742 q 351 742 329 708 q 307 674 307 618 l 307 618 l 307 476 q 307 420 329 387 q 351 353 383 353 l 383 353 z m 1086 538 l 1086 538 z "},"Χ":{"ha":670,"x_min":0,"x_max":686,"o":"m 396 1098 l 635 1098 l 536 612 l 686 0 l 422 0 q 374 164 335 399 l 335 399 q 324 296 305 179 l 305 179 l 278 0 l 0 0 l 103 612 l 0 1098 l 276 1098 q 283 1053 306 947 l 306 947 q 323 866 335 799 l 335 799 l 396 1098 z "},"Ψ":{"ha":1090,"x_min":3,"x_max":1089,"o":"m 403 566 l 403 1099 l 689 1099 l 689 566 q 730 567 755 592 q 779 616 779 656 l 779 656 l 779 940 q 779 1059 825 1099 l 825 1099 l 1089 1099 q 1051 1048 1051 922 l 1051 922 l 1051 648 q 1051 526 979 461 q 907 396 781 396 l 781 396 l 689 396 l 689 0 l 403 0 l 403 396 l 311 396 q 185 396 113 461 q 40 526 40 648 l 40 648 l 40 922 q 40 1048 3 1099 l 3 1099 l 267 1099 q 313 1059 313 940 l 313 940 l 313 656 q 313 616 337 592 q 361 567 403 566 l 403 566 z "},"Ω":{"ha":779,"x_min":41,"x_max":737,"o":"m 371 167 l 371 167 l 371 0 l 41 0 l 41 165 l 83 165 q 115 165 191 158 l 191 158 q 131 197 94 274 q 57 351 57 453 l 57 453 l 57 713 q 57 855 64 903 q 71 951 109 1005 q 147 1059 214 1083 q 281 1107 387 1107 l 387 1107 q 486 1107 555 1083 q 625 1060 666 1009 q 707 958 714 909 q 722 859 722 713 l 722 713 l 722 453 q 722 351 685 274 q 648 197 589 158 l 589 158 q 652 165 690 165 l 690 165 l 737 165 l 737 0 l 408 0 l 408 167 q 436 194 436 307 l 436 307 l 436 827 q 436 907 426 927 q 416 947 392 947 l 392 947 q 365 947 354 928 q 343 909 343 827 l 343 827 l 343 307 q 343 194 371 167 z "},"Ϊ":{"ha":400,"x_min":-37,"x_max":436,"o":"m 57 1098 l 342 1098 l 342 0 l 57 0 l 57 1098 z m -37 1309 l 140 1309 l 140 1133 l -37 1133 l -37 1309 z m 259 1309 l 436 1309 l 436 1133 l 259 1133 l 259 1309 z "},"Ϋ":{"ha":657,"x_min":-8,"x_max":665,"o":"m 403 1098 l 665 1098 l 457 397 l 457 0 l 193 0 l 193 397 l -8 1098 l 254 1098 q 316 777 323 666 l 323 666 q 347 842 403 1098 l 403 1098 z m 93 1309 l 270 1309 l 270 1133 l 93 1133 l 93 1309 z m 389 1309 l 566 1309 l 566 1133 l 389 1133 l 389 1309 z "},"ά":{"ha":728,"x_min":40,"x_max":747,"o":"m 40 232 l 40 232 l 40 671 q 40 748 46 787 q 52 826 79 859 q 106 892 138 900 q 171 908 228 908 l 228 908 q 342 908 415 821 l 415 821 q 425 863 454 900 l 454 900 l 713 900 q 672 806 672 669 l 672 669 l 672 350 q 672 125 747 0 l 747 0 l 471 0 q 430 48 418 89 l 418 89 q 386 43 332 18 q 278 -8 225 -8 l 225 -8 q 155 -8 110 17 q 64 42 52 90 q 40 138 40 232 z m 314 711 l 314 711 l 314 227 q 314 178 320 157 q 327 136 353 136 l 353 136 q 385 136 392 160 q 399 184 399 250 l 399 250 l 399 685 q 399 739 388 753 q 377 768 355 768 l 355 768 q 314 768 314 711 z m 273 960 l 309 1143 l 495 1143 l 410 960 l 273 960 z "},"έ":{"ha":717,"x_min":35,"x_max":689,"o":"m 689 322 l 689 216 q 689 94 610 43 q 532 -8 347 -8 l 347 -8 q 35 -8 35 227 l 35 227 l 35 282 q 35 354 83 404 q 132 454 211 472 l 211 472 q 140 480 91 529 q 41 578 41 643 l 41 643 l 41 697 q 41 801 123 854 q 204 908 357 908 l 357 908 q 511 908 592 857 q 673 805 673 705 l 673 705 l 673 603 l 431 603 l 431 684 q 431 729 416 746 q 401 764 372 764 l 372 764 q 338 764 323 744 q 309 724 309 676 l 309 676 q 309 618 340 585 q 371 552 422 549 l 422 549 l 422 411 q 371 406 340 367 q 309 328 309 258 l 309 258 q 309 189 322 162 q 335 136 364 136 l 364 136 q 405 136 416 160 q 427 184 427 250 l 427 250 l 427 322 l 689 322 z m 273 960 l 309 1143 l 495 1143 l 410 960 l 273 960 z "},"ή":{"ha":726,"x_min":9,"x_max":681,"o":"m 9 900 l 289 900 q 318 864 322 821 l 322 821 q 378 908 494 908 l 494 908 q 548 908 584 896 q 619 884 644 848 q 669 813 675 768 q 681 722 681 631 l 681 631 l 681 -126 l 407 -126 l 407 628 q 407 716 401 739 q 396 761 367 761 l 367 761 q 335 761 329 733 q 322 705 322 612 l 322 612 l 322 0 l 49 0 l 49 777 q 49 841 9 900 l 9 900 z m 273 960 l 309 1143 l 495 1143 l 410 960 l 273 960 z "},"ί":{"ha":422,"x_min":49,"x_max":412,"o":"m 49 257 l 49 257 l 49 900 l 322 900 l 322 243 q 322 195 339 169 q 357 142 412 142 l 412 142 l 412 0 l 368 0 q 228 0 167 13 q 106 26 77 80 q 49 133 49 257 z m 96 960 l 132 1143 l 317 1143 l 233 960 l 96 960 z "},"ΰ":{"ha":725,"x_min":49,"x_max":681,"o":"m 407 900 l 681 900 l 681 281 q 681 175 652 113 q 623 50 559 21 q 494 -8 364 -8 l 364 -8 q 182 -8 115 62 q 49 133 49 288 l 49 288 l 49 900 l 322 900 l 322 199 q 322 138 364 138 l 364 138 q 387 138 397 152 q 407 167 407 214 l 407 214 l 407 900 z m 273 1199 l 309 1383 l 495 1383 l 411 1199 l 273 1199 z m 132 960 l 132 1137 l 305 1137 l 305 960 l 132 960 z m 426 960 l 426 1137 l 604 1137 l 604 960 l 426 960 z "},"α":{"ha":728,"x_min":40,"x_max":747,"o":"m 40 232 l 40 232 l 40 671 q 40 748 46 787 q 52 826 79 859 q 106 892 138 900 q 171 908 228 908 l 228 908 q 342 908 415 821 l 415 821 q 425 863 454 900 l 454 900 l 713 900 q 672 806 672 669 l 672 669 l 672 350 q 672 125 747 0 l 747 0 l 471 0 q 430 48 418 89 l 418 89 q 386 43 332 18 q 278 -8 225 -8 l 225 -8 q 155 -8 110 17 q 64 42 52 90 q 40 138 40 232 z m 314 711 l 314 711 l 314 227 q 314 178 320 157 q 327 136 353 136 l 353 136 q 385 136 392 160 q 399 184 399 250 l 399 250 l 399 685 q 399 739 388 753 q 377 768 355 768 l 355 768 q 314 768 314 711 z "},"β":{"ha":730,"x_min":49,"x_max":690,"o":"m 322 72 l 322 72 l 322 -126 l 49 -126 l 49 838 q 49 961 131 1030 q 212 1099 359 1099 l 359 1099 q 510 1099 592 1041 q 675 984 675 875 l 675 875 l 675 765 q 675 701 626 651 q 576 601 505 593 l 505 593 q 589 577 640 534 q 690 490 690 427 l 690 427 l 690 231 q 690 127 638 62 q 587 -4 494 -4 l 494 -4 q 385 -4 322 72 z m 322 879 l 322 186 q 322 177 338 160 q 355 143 370 143 l 370 143 q 389 143 398 157 q 408 170 408 211 l 408 211 l 408 443 q 408 483 400 508 q 391 534 349 541 l 349 541 l 349 660 q 389 662 399 691 q 408 721 408 762 l 408 762 l 408 886 q 408 927 396 941 q 384 954 361 954 l 361 954 q 322 954 322 879 l 322 879 z "},"γ":{"ha":694,"x_min":-8,"x_max":701,"o":"m 457 900 l 701 900 l 492 138 l 492 -126 l 218 -126 l 218 142 l 65 650 q 45 720 30 739 q 14 757 -8 757 l -8 757 l -8 905 q 12 908 28 908 l 28 908 q 119 908 165 890 q 212 871 238 825 q 264 779 292 675 l 292 675 l 349 463 l 457 900 z "},"δ":{"ha":708,"x_min":40,"x_max":668,"o":"m 244 778 l 244 778 l 61 954 l 61 1099 l 619 1099 l 619 957 l 375 957 q 562 812 615 715 q 668 619 668 478 l 668 478 l 668 357 q 668 234 655 174 q 643 115 599 70 q 555 26 493 9 q 431 -8 312 -8 l 312 -8 q 252 -8 214 -1 q 175 5 135 33 q 96 60 74 101 q 53 142 46 193 q 40 244 40 326 l 40 326 l 40 453 q 40 524 46 568 q 52 612 76 656 q 101 700 144 731 q 188 762 244 778 z m 395 184 l 395 541 q 395 613 385 629 q 376 646 354 646 l 354 646 q 334 646 324 630 q 314 614 314 541 l 314 541 l 314 214 q 314 136 354 136 l 354 136 q 372 136 383 150 q 395 163 395 184 l 395 184 z "},"ε":{"ha":717,"x_min":35,"x_max":689,"o":"m 689 322 l 689 216 q 689 94 610 43 q 532 -8 347 -8 l 347 -8 q 35 -8 35 227 l 35 227 l 35 282 q 35 354 83 404 q 132 454 211 472 l 211 472 q 140 480 91 529 q 41 578 41 643 l 41 643 l 41 697 q 41 801 123 854 q 204 908 357 908 l 357 908 q 511 908 592 857 q 673 805 673 705 l 673 705 l 673 603 l 431 603 l 431 684 q 431 729 416 746 q 401 764 372 764 l 372 764 q 338 764 323 744 q 309 724 309 676 l 309 676 q 309 618 340 585 q 371 552 422 549 l 422 549 l 422 411 q 371 406 340 367 q 309 328 309 258 l 309 258 q 309 189 322 162 q 335 136 364 136 l 364 136 q 405 136 416 160 q 427 184 427 250 l 427 250 l 427 322 l 689 322 z "},"ζ":{"ha":533,"x_min":36,"x_max":525,"o":"m 36 414 l 36 578 q 36 667 86 750 q 137 833 285 957 l 285 957 l 41 957 l 41 1099 l 518 1099 l 518 961 q 397 857 353 778 q 310 699 310 595 l 310 595 l 310 425 q 310 395 316 378 q 321 360 332 353 q 342 346 380 336 l 380 336 q 461 315 493 260 q 525 205 525 115 l 525 115 q 525 -7 478 -66 q 431 -126 314 -126 l 314 -126 l 180 -126 l 180 28 l 288 28 q 332 28 344 44 q 357 60 357 93 l 357 93 q 357 125 342 143 q 328 161 292 168 l 292 168 l 151 195 q 108 203 83 224 q 58 246 47 288 q 36 329 36 414 l 36 414 z "},"η":{"ha":726,"x_min":9,"x_max":681,"o":"m 9 900 l 289 900 q 318 864 322 821 l 322 821 q 378 908 494 908 l 494 908 q 548 908 584 896 q 619 884 644 848 q 669 813 675 768 q 681 722 681 631 l 681 631 l 681 -126 l 407 -126 l 407 628 q 407 716 401 739 q 396 761 367 761 l 367 761 q 335 761 329 733 q 322 705 322 612 l 322 612 l 322 0 l 49 0 l 49 777 q 49 841 9 900 l 9 900 z "},"θ":{"ha":710,"x_min":52,"x_max":679,"o":"m 52 326 l 52 326 l 52 765 q 52 845 61 903 q 71 961 109 1010 q 147 1059 210 1083 q 272 1107 357 1107 l 357 1107 q 447 1107 514 1083 q 581 1059 622 1011 q 662 964 670 917 q 679 869 679 785 l 679 785 l 679 357 q 679 234 666 174 q 654 115 610 70 q 567 26 504 9 q 441 -8 323 -8 l 323 -8 q 264 -8 225 -1 q 186 5 146 33 q 107 60 85 101 q 64 142 58 193 q 52 244 52 326 z m 325 625 l 406 625 l 406 852 q 406 918 399 942 q 393 965 366 965 l 366 965 q 338 965 331 941 q 325 917 325 852 l 325 852 l 325 625 z m 406 476 l 325 476 l 325 214 q 325 129 366 129 l 366 129 q 382 129 394 146 q 406 163 406 184 l 406 184 l 406 476 z "},"ι":{"ha":422,"x_min":49,"x_max":412,"o":"m 49 257 l 49 257 l 49 900 l 322 900 l 322 243 q 322 195 339 169 q 357 142 412 142 l 412 142 l 412 0 l 368 0 q 228 0 167 13 q 106 26 77 80 q 49 133 49 257 z "},"κ":{"ha":725,"x_min":49,"x_max":730,"o":"m 538 504 l 730 0 l 436 0 l 322 359 l 322 0 l 49 0 l 49 900 l 322 900 l 322 561 q 404 738 423 777 q 443 817 474 850 q 505 883 542 893 q 578 904 631 904 l 631 904 q 669 904 717 899 l 717 899 l 717 757 q 680 757 660 741 q 640 726 627 696 l 627 696 l 538 504 z "},"λ":{"ha":675,"x_min":-1,"x_max":675,"o":"m 248 0 l -1 0 l 149 827 q 158 880 158 914 l 158 914 q 158 957 102 957 l 102 957 l 65 957 l 65 1099 l 232 1099 q 370 1099 431 1068 q 491 1038 512 967 q 534 896 551 725 l 551 725 l 606 210 q 610 165 618 156 q 627 146 639 146 l 639 146 q 649 146 675 147 l 675 147 l 675 1 q 595 -8 518 -8 l 518 -8 q 386 -8 375 147 l 375 147 l 338 681 l 248 0 z "},"μ":{"ha":732,"x_min":49,"x_max":681,"o":"m 49 -115 l 49 900 l 322 900 l 322 204 q 322 143 364 143 l 364 143 q 387 143 397 158 q 407 172 407 220 l 407 220 l 407 900 l 681 900 l 681 0 l 401 0 l 406 75 q 368 24 322 9 l 322 9 l 322 -115 l 49 -115 z "},"ν":{"ha":607,"x_min":-8,"x_max":615,"o":"m 370 900 l 615 900 l 487 0 l 130 0 l -8 900 l 237 900 l 313 243 q 322 315 343 596 l 343 596 q 355 753 370 900 l 370 900 z "},"ξ":{"ha":530,"x_min":33,"x_max":522,"o":"m 168 578 l 168 578 q 41 635 41 745 l 41 745 q 41 784 58 817 q 74 850 106 877 q 138 905 172 924 q 205 944 225 957 l 225 957 l 39 957 l 39 1099 l 521 1099 l 521 961 q 418 917 357 863 q 296 810 296 760 l 296 760 q 296 707 334 680 q 373 653 428 653 l 428 653 l 428 518 q 307 496 307 412 l 307 412 q 307 389 313 374 q 319 359 330 352 q 340 346 378 336 l 378 336 q 458 315 490 260 q 522 205 522 115 l 522 115 q 522 -7 475 -66 q 429 -126 311 -126 l 311 -126 l 178 -126 l 178 28 l 285 28 q 327 28 340 42 q 354 57 354 94 l 354 94 q 354 128 339 145 q 323 161 290 168 l 290 168 l 144 196 q 33 216 33 386 l 33 386 q 33 463 65 508 q 96 553 168 578 z "},"ο":{"ha":710,"x_min":41,"x_max":669,"o":"m 669 584 l 669 584 l 669 363 q 669 242 656 185 q 644 129 604 80 q 564 31 502 7 q 439 -16 357 -16 l 357 -16 q 267 -16 203 4 q 140 24 105 64 q 71 104 56 162 q 41 219 41 334 l 41 334 l 41 564 q 41 690 68 760 q 95 831 165 873 q 236 916 346 916 l 346 916 q 438 916 504 889 q 570 861 606 817 q 642 773 655 726 q 669 680 669 584 z m 395 237 l 395 652 q 395 721 387 739 q 380 757 355 757 l 355 757 q 331 757 323 739 q 315 721 315 652 l 315 652 l 315 245 q 315 182 323 162 q 331 143 355 143 l 355 143 q 379 143 387 161 q 395 178 395 237 l 395 237 z "},"π":{"ha":755,"x_min":4,"x_max":751,"o":"m 4 900 l 751 900 l 751 745 l 694 745 l 694 0 l 421 0 l 421 745 l 336 745 l 336 0 l 62 0 l 62 745 l 4 745 l 4 900 z "},"ρ":{"ha":718,"x_min":49,"x_max":676,"o":"m 322 5 l 322 5 l 322 -129 l 49 -129 l 49 567 q 49 646 58 704 q 68 762 106 811 q 144 860 207 884 q 269 908 354 908 l 354 908 q 444 908 511 884 q 578 860 619 813 q 659 766 668 718 q 676 671 676 586 l 676 586 l 676 311 q 676 149 630 74 q 585 0 464 0 l 464 0 q 399 0 322 5 z m 322 654 l 322 654 l 322 146 q 345 144 363 144 l 363 144 q 380 144 391 158 q 403 172 403 193 l 403 193 l 403 654 q 403 717 397 738 q 391 760 363 760 l 363 760 q 334 760 328 738 q 322 715 322 654 z "},"ς":{"ha":538,"x_min":36,"x_max":525,"o":"m 310 619 l 310 425 q 310 395 316 378 q 321 360 332 353 q 342 346 380 336 l 380 336 q 461 315 493 260 q 525 205 525 115 l 525 115 q 525 -7 478 -66 q 431 -126 314 -126 l 314 -126 l 180 -126 l 180 28 l 288 28 q 331 28 344 41 q 357 54 357 97 l 357 97 q 357 131 344 145 q 332 160 292 168 l 292 168 l 144 198 q 107 205 82 228 q 58 251 47 293 q 36 336 36 414 l 36 414 l 36 600 q 36 747 102 827 q 168 908 285 908 l 285 908 q 353 908 493 899 l 493 899 l 493 760 q 436 764 400 764 l 400 764 q 354 764 332 731 q 310 699 310 619 l 310 619 z "},"σ":{"ha":722,"x_min":40,"x_max":728,"o":"m 346 900 l 728 900 l 728 746 l 648 746 q 668 706 668 568 l 668 568 l 668 357 q 668 234 655 174 q 643 115 599 70 q 555 26 493 9 q 431 -8 312 -8 l 312 -8 q 252 -8 214 -1 q 175 5 135 33 q 96 60 74 101 q 53 142 46 193 q 40 244 40 326 l 40 326 l 40 558 q 40 640 50 697 q 60 754 100 803 q 139 852 201 876 q 264 900 346 900 l 346 900 z m 395 184 l 395 184 l 395 636 q 395 699 389 721 q 382 742 354 742 l 354 742 q 326 742 320 720 q 314 698 314 636 l 314 636 l 314 214 q 314 136 354 136 l 354 136 q 372 136 383 150 q 395 163 395 184 z "},"τ":{"ha":510,"x_min":4,"x_max":505,"o":"m 4 900 l 505 900 l 505 745 l 392 745 l 392 243 q 392 195 409 169 q 427 142 482 142 l 482 142 l 482 0 l 437 0 q 298 0 236 13 q 175 26 146 80 q 118 133 118 257 l 118 257 l 118 745 l 4 745 l 4 900 z "},"υ":{"ha":725,"x_min":49,"x_max":681,"o":"m 407 900 l 681 900 l 681 281 q 681 175 652 113 q 623 50 559 21 q 494 -8 364 -8 l 364 -8 q 182 -8 115 62 q 49 133 49 288 l 49 288 l 49 900 l 322 900 l 322 199 q 322 138 364 138 l 364 138 q 387 138 397 152 q 407 167 407 214 l 407 214 l 407 900 z "},"φ":{"ha":1067,"x_min":41,"x_max":1026,"o":"m 41 306 l 41 635 q 41 768 132 837 q 222 905 383 905 l 383 905 l 383 761 q 357 761 336 732 q 315 703 315 657 l 315 657 l 315 205 q 315 144 371 144 l 371 144 l 399 144 l 399 567 q 399 646 408 704 q 418 762 456 811 q 494 860 557 884 q 619 908 704 908 l 704 908 q 794 908 861 884 q 928 860 969 813 q 1009 766 1018 718 q 1026 671 1026 586 l 1026 586 l 1026 311 q 1026 233 1004 159 q 981 85 905 42 q 828 0 722 0 l 722 0 l 672 0 l 672 -129 l 399 -129 l 399 0 l 347 0 q 241 0 165 41 q 90 83 65 158 q 41 233 41 306 l 41 306 z m 753 205 l 753 205 l 753 654 q 753 726 743 743 q 732 760 713 760 l 713 760 q 692 760 682 741 q 672 722 672 654 l 672 654 l 672 144 l 699 144 q 724 144 738 162 q 753 180 753 205 z "},"χ":{"ha":690,"x_min":14,"x_max":681,"o":"m 164 414 l 100 675 q 88 723 77 741 q 66 758 36 758 l 36 758 q 28 758 14 757 l 14 757 l 14 896 q 77 905 154 905 l 154 905 q 222 905 255 869 q 288 832 300 760 l 300 760 l 339 543 l 415 900 l 659 900 l 522 400 l 576 186 q 604 73 608 62 q 612 50 620 38 q 629 25 638 20 q 648 14 681 12 l 681 12 l 681 -123 q 601 -134 524 -134 l 524 -134 q 466 -134 432 -96 q 399 -59 385 17 l 385 17 l 334 281 l 248 -129 l 14 -129 l 164 414 z "},"ψ":{"ha":1028,"x_min":-1,"x_max":1029,"o":"m 378 171 l 325 171 q 184 171 110 246 q 36 321 36 482 l 36 482 l 36 722 q 36 848 -1 900 l -1 900 l 249 900 q 294 859 294 741 l 294 741 l 294 396 q 294 362 314 339 q 334 315 363 315 l 363 315 l 378 315 l 378 1099 l 650 1099 l 650 315 l 665 315 q 694 315 713 339 q 733 363 733 396 l 733 396 l 733 741 q 733 859 779 900 l 779 900 l 1029 900 q 991 848 991 722 l 991 722 l 991 482 q 991 406 970 332 q 948 258 878 215 q 808 171 703 171 l 703 171 l 650 171 l 650 -129 l 378 -129 l 378 171 z "},"ω":{"ha":1088,"x_min":49,"x_max":1039,"o":"m 765 646 l 765 647 q 765 743 675 751 l 675 751 l 644 754 l 644 901 q 678 904 697 904 l 697 904 q 849 904 928 862 l 928 862 q 1039 802 1039 652 l 1039 652 l 1039 307 q 1039 180 1017 126 l 1017 126 q 983 47 906 16 l 906 16 q 846 -8 742 -8 l 742 -8 q 675 -8 618 26 q 562 60 543 114 l 543 114 q 529 61 470 27 q 410 -7 339 -7 l 339 -7 q 129 -8 68 138 l 68 138 q 49 184 49 306 l 49 306 l 49 650 q 49 800 159 860 l 159 860 q 239 903 390 903 l 390 903 q 410 903 443 900 l 443 900 l 443 753 l 412 750 q 322 742 322 646 l 322 646 l 322 204 q 322 138 364 138 l 364 138 q 407 138 407 183 l 407 183 l 407 637 l 681 637 l 681 182 q 681 163 695 151 q 709 138 728 138 l 728 138 q 765 138 765 205 l 765 205 l 765 646 z "},"ϊ":{"ha":422,"x_min":-26,"x_max":447,"o":"m 49 257 l 49 257 l 49 900 l 322 900 l 322 243 q 322 195 339 169 q 357 142 412 142 l 412 142 l 412 0 l 368 0 q 228 0 167 13 q 106 26 77 80 q 49 133 49 257 z m -26 1137 l 151 1137 l 151 960 l -26 960 l -26 1137 z m 270 1137 l 447 1137 l 447 960 l 270 960 l 270 1137 z "},"ϋ":{"ha":725,"x_min":49,"x_max":681,"o":"m 407 900 l 681 900 l 681 281 q 681 175 652 113 q 623 50 559 21 q 494 -8 364 -8 l 364 -8 q 182 -8 115 62 q 49 133 49 288 l 49 288 l 49 900 l 322 900 l 322 199 q 322 138 364 138 l 364 138 q 387 138 397 152 q 407 167 407 214 l 407 214 l 407 900 z m 125 1137 l 302 1137 l 302 960 l 125 960 l 125 1137 z m 421 1137 l 598 1137 l 598 960 l 421 960 l 421 1137 z "},"ό":{"ha":710,"x_min":41,"x_max":669,"o":"m 669 584 l 669 584 l 669 363 q 669 242 656 185 q 644 129 604 80 q 564 31 502 7 q 439 -16 357 -16 l 357 -16 q 267 -16 203 4 q 140 24 105 64 q 71 104 56 162 q 41 219 41 334 l 41 334 l 41 564 q 41 690 68 760 q 95 831 165 873 q 236 916 346 916 l 346 916 q 438 916 504 889 q 570 861 606 817 q 642 773 655 726 q 669 680 669 584 z m 395 237 l 395 652 q 395 721 387 739 q 380 757 355 757 l 355 757 q 331 757 323 739 q 315 721 315 652 l 315 652 l 315 245 q 315 182 323 162 q 331 143 355 143 l 355 143 q 379 143 387 161 q 395 178 395 237 l 395 237 z m 261 960 l 297 1143 l 483 1143 l 398 960 l 261 960 z "},"ύ":{"ha":725,"x_min":49,"x_max":681,"o":"m 407 900 l 681 900 l 681 281 q 681 175 652 113 q 623 50 559 21 q 494 -8 364 -8 l 364 -8 q 182 -8 115 62 q 49 133 49 288 l 49 288 l 49 900 l 322 900 l 322 199 q 322 138 364 138 l 364 138 q 387 138 397 152 q 407 167 407 214 l 407 214 l 407 900 z m 273 960 l 309 1143 l 495 1143 l 410 960 l 273 960 z "},"ώ":{"ha":1088,"x_min":49,"x_max":1039,"o":"m 765 646 l 765 647 q 765 743 675 751 l 675 751 l 644 754 l 644 901 q 678 904 697 904 l 697 904 q 849 904 928 862 l 928 862 q 1039 802 1039 652 l 1039 652 l 1039 307 q 1039 180 1017 126 l 1017 126 q 983 47 906 16 l 906 16 q 846 -8 742 -8 l 742 -8 q 675 -8 618 26 q 562 60 543 114 l 543 114 q 529 61 470 27 q 410 -7 339 -7 l 339 -7 q 129 -8 68 138 l 68 138 q 49 184 49 306 l 49 306 l 49 650 q 49 800 159 860 l 159 860 q 239 903 390 903 l 390 903 q 410 903 443 900 l 443 900 l 443 753 l 412 750 q 322 742 322 646 l 322 646 l 322 204 q 322 138 364 138 l 364 138 q 407 138 407 183 l 407 183 l 407 637 l 681 637 l 681 182 q 681 163 695 151 q 709 138 728 138 l 728 138 q 765 138 765 205 l 765 205 l 765 646 z m 453 960 l 489 1143 l 675 1143 l 590 960 l 453 960 z "},"Ё":{"ha":577,"x_min":57,"x_max":552,"o":"m 57 0 l 57 1098 l 533 1098 l 533 878 l 342 878 l 342 670 l 521 670 l 521 461 l 342 461 l 342 220 l 552 220 l 552 0 l 57 0 z m 74 1309 l 251 1309 l 251 1133 l 74 1133 l 74 1309 z m 370 1309 l 547 1309 l 547 1133 l 370 1133 l 370 1309 z "},"Ђ":{"ha":918,"x_min":7,"x_max":861,"o":"m 861 524 l 861 244 q 861 94 811 47 q 761 0 610 0 l 610 0 l 514 0 l 514 189 q 550 189 563 211 q 575 232 575 275 l 575 275 l 575 473 q 575 564 564 586 q 553 607 526 607 l 526 607 q 463 607 463 497 l 463 497 l 463 0 l 176 0 l 176 907 l 7 907 l 7 1099 l 631 1099 l 631 907 l 463 907 l 463 671 q 491 713 549 736 q 606 758 675 758 l 675 758 q 729 758 775 732 q 821 707 841 660 q 861 612 861 524 l 861 524 z "},"Ѓ":{"ha":572,"x_min":57,"x_max":553,"o":"m 553 1099 l 553 879 l 343 879 l 343 0 l 57 0 l 57 1099 l 553 1099 z m 293 1316 l 534 1316 l 311 1133 l 174 1133 l 293 1316 z "},"Є":{"ha":770,"x_min":57,"x_max":715,"o":"m 715 396 l 715 310 q 715 144 633 68 q 550 -8 371 -8 l 371 -8 q 210 -8 133 65 q 57 138 57 298 l 57 298 l 57 836 q 57 1107 378 1107 l 378 1107 q 568 1107 642 1045 q 715 983 715 840 l 715 840 l 715 747 l 441 747 l 441 873 q 441 939 392 939 l 392 939 q 368 939 355 921 q 343 903 343 844 l 343 844 l 343 654 l 507 654 l 507 494 l 343 494 l 343 313 q 343 222 351 192 q 359 161 395 161 l 395 161 q 441 161 441 228 l 441 228 l 441 396 l 715 396 z "},"Ѕ":{"ha":718,"x_min":33,"x_max":686,"o":"m 662 809 l 662 766 l 397 766 l 397 847 q 397 904 387 920 q 376 935 353 935 l 353 935 q 327 935 314 914 q 300 893 300 850 l 300 850 q 300 795 315 768 l 315 768 q 330 740 396 701 l 396 701 q 587 587 636 515 l 636 515 q 686 442 686 281 l 686 281 q 686 163 658 108 q 631 52 552 15 q 473 -23 369 -23 l 369 -23 q 254 -23 173 20 q 92 64 67 131 q 42 198 42 321 l 42 321 l 42 393 l 307 393 l 307 260 q 307 198 318 180 q 330 163 358 163 l 358 163 q 387 163 400 185 q 414 208 414 252 l 414 252 q 414 349 388 378 l 388 378 q 361 408 254 478 l 254 478 q 148 549 113 581 q 79 612 56 669 q 33 725 33 812 l 33 812 q 33 939 65 997 q 98 1055 170 1088 q 241 1121 343 1121 l 343 1121 q 454 1121 533 1085 q 611 1049 636 995 q 662 940 662 809 l 662 809 z "},"І":{"ha":400,"x_min":57,"x_max":342,"o":"m 57 1098 l 342 1098 l 342 0 l 57 0 l 57 1098 z "},"Ї":{"ha":400,"x_min":-39,"x_max":435,"o":"m 57 1098 l 342 1098 l 342 0 l 57 0 l 57 1098 z m -39 1309 l 138 1309 l 138 1133 l -39 1133 l -39 1309 z m 258 1309 l 435 1309 l 435 1133 l 258 1133 l 258 1309 z "},"Ј":{"ha":460,"x_min":12,"x_max":406,"o":"m 121 1098 l 406 1098 l 406 364 q 406 199 403 152 q 399 105 372 67 q 345 29 297 15 q 250 0 155 0 l 155 0 l 12 0 l 12 192 q 38 190 50 190 l 50 190 q 80 190 98 205 q 115 220 118 241 q 121 263 121 326 l 121 326 l 121 1098 z "},"Љ":{"ha":1166,"x_min":7,"x_max":1133,"o":"m 1133 471 l 1133 257 q 1133 134 1101 81 q 1069 27 1005 14 q 940 0 799 0 l 799 0 l 468 0 l 468 879 l 385 879 l 385 257 q 385 134 353 81 q 321 27 257 14 q 193 0 52 0 l 52 0 l 7 0 l 7 189 q 59 189 79 202 q 98 215 98 290 l 98 290 l 98 1099 l 754 1099 l 754 722 l 799 722 q 930 722 998 707 q 1066 691 1100 638 q 1133 585 1133 471 l 1133 471 z m 847 290 l 847 290 l 847 449 q 847 518 833 533 q 819 548 754 550 l 754 550 l 754 189 q 808 189 828 203 q 847 217 847 290 z "},"Њ":{"ha":1128,"x_min":57,"x_max":1092,"o":"m 1092 471 l 1092 257 q 1092 134 1060 81 q 1028 27 963 14 q 899 0 757 0 l 757 0 l 427 0 l 427 461 l 343 461 l 343 0 l 57 0 l 57 1099 l 343 1099 l 343 705 l 427 705 l 427 1099 l 713 1099 l 713 722 l 757 722 q 889 722 957 707 q 1024 691 1058 638 q 1092 585 1092 471 l 1092 471 z m 806 290 l 806 290 l 806 449 q 806 518 792 533 q 778 548 713 550 l 713 550 l 713 189 q 767 189 786 203 q 806 217 806 290 z "},"Ћ":{"ha":918,"x_min":7,"x_max":861,"o":"m 463 907 l 463 667 q 492 711 550 734 q 609 758 675 758 l 675 758 q 754 758 797 727 q 840 696 850 644 q 861 591 861 481 l 861 481 l 861 0 l 575 0 l 575 473 q 575 564 564 586 q 553 607 526 607 l 526 607 q 463 607 463 497 l 463 497 l 463 0 l 176 0 l 176 907 l 7 907 l 7 1099 l 631 1099 l 631 907 l 463 907 z "},"Ќ":{"ha":745,"x_min":57,"x_max":743,"o":"m 57 0 l 57 1099 l 343 1099 l 345 635 q 425 637 428 724 l 428 724 l 433 939 q 436 1057 479 1099 l 479 1099 l 743 1099 q 705 1059 705 933 l 705 933 l 707 745 q 708 574 514 550 l 514 550 q 708 526 707 353 l 707 353 l 705 178 q 705 53 743 0 l 743 0 l 479 0 q 433 41 433 160 l 433 160 l 433 374 q 433 415 409 440 q 384 465 345 465 l 345 465 l 343 0 l 57 0 z m 304 1030 l 340 1213 l 526 1213 l 441 1030 l 304 1030 z "},"Ў":{"ha":623,"x_min":-8,"x_max":623,"o":"m 374 1099 l 623 1099 l 545 371 q 526 199 505 129 q 484 60 424 30 q 363 0 225 0 l 225 0 l 58 0 l 58 142 l 75 142 q 132 142 145 151 q 158 160 158 179 l 158 179 q 158 180 142 272 l 142 272 l -8 1099 l 240 1099 l 330 415 l 374 1099 z m 394 1337 l 394 1337 l 509 1337 q 505 1245 455 1189 q 406 1133 317 1133 l 317 1133 q 227 1133 178 1189 q 129 1246 125 1337 l 125 1337 l 240 1337 q 248 1244 317 1244 l 317 1244 q 386 1244 394 1337 z "},"Џ":{"ha":771,"x_min":57,"x_max":714,"o":"m 714 1099 l 714 0 l 486 0 l 486 -189 l 289 -189 l 289 0 l 57 0 l 57 1099 l 343 1099 l 343 220 l 428 220 l 428 1099 l 714 1099 z "},"А":{"ha":705,"x_min":-8,"x_max":713,"o":"m 137 1098 l 550 1098 l 713 0 l 421 0 l 407 197 l 304 197 l 288 0 l -8 0 l 137 1098 z m 301 392 l 399 392 q 377 578 355 852 l 355 852 q 312 538 301 392 l 301 392 z "},"Б":{"ha":766,"x_min":57,"x_max":722,"o":"m 722 471 l 722 257 q 722 134 690 81 q 659 27 594 14 q 529 0 387 0 l 387 0 l 57 0 l 57 1099 l 616 1099 l 616 908 l 343 908 l 343 722 l 387 722 q 519 722 587 707 q 655 691 689 638 q 722 585 722 471 l 722 471 z m 436 290 l 436 290 l 436 449 q 436 518 422 533 q 408 548 343 550 l 343 550 l 343 189 q 397 189 417 203 q 436 217 436 290 z "},"В":{"ha":767,"x_min":57,"x_max":722,"o":"m 57 0 l 57 1098 l 342 1098 q 477 1098 546 1077 q 616 1056 659 992 q 701 928 701 785 l 701 785 q 701 689 671 651 q 641 613 552 593 l 552 593 q 651 570 686 518 q 722 467 722 359 l 722 359 l 722 258 q 722 146 696 93 q 671 39 615 20 q 559 0 387 0 l 387 0 l 57 0 z m 342 910 l 342 910 l 342 666 q 361 667 371 667 l 371 667 q 413 667 425 687 q 436 708 436 806 l 436 806 q 436 857 427 878 q 417 899 402 904 q 387 909 342 910 z m 342 495 l 342 495 l 342 188 q 403 190 419 207 q 436 224 436 290 l 436 290 l 436 393 q 436 463 421 478 q 406 493 342 495 z "},"Г":{"ha":572,"x_min":57,"x_max":553,"o":"m 553 1099 l 553 879 l 343 879 l 343 0 l 57 0 l 57 1099 l 553 1099 z "},"Д":{"ha":905,"x_min":18,"x_max":873,"o":"m 873 231 l 873 -189 l 676 -189 l 676 0 l 215 0 l 215 -189 l 18 -189 l 18 229 l 77 229 q 123 364 152 584 q 182 804 182 1065 l 182 1065 l 182 1099 l 815 1099 l 815 231 l 873 231 z m 376 231 l 529 231 l 529 882 l 444 882 l 444 873 q 444 558 376 231 l 376 231 z "},"Е":{"ha":577,"x_min":57,"x_max":552,"o":"m 57 0 l 57 1098 l 533 1098 l 533 878 l 342 878 l 342 670 l 521 670 l 521 461 l 342 461 l 342 220 l 552 220 l 552 0 l 57 0 z "},"Ж":{"ha":1028,"x_min":16,"x_max":1017,"o":"m 372 0 l 372 472 q 282 470 282 395 l 282 395 l 282 106 q 282 48 270 24 q 257 0 252 0 l 252 0 l 16 0 q 46 44 46 131 l 46 131 l 46 378 q 46 456 90 498 q 134 539 240 557 l 240 557 l 240 558 q 47 568 47 737 l 47 737 l 47 970 q 47 1056 17 1099 l 17 1099 l 253 1099 q 263 1095 273 1069 q 283 1044 283 994 l 283 994 l 283 721 q 283 646 372 643 l 372 643 l 372 1099 l 659 1099 l 659 643 q 749 646 749 721 l 749 721 l 749 994 q 749 1051 761 1075 q 773 1099 779 1099 l 779 1099 l 1015 1099 q 985 1056 985 970 l 985 970 l 985 737 q 985 568 791 558 l 791 558 l 791 557 q 898 539 942 498 q 986 456 986 378 l 986 378 l 986 131 q 986 44 1017 0 l 1017 0 l 781 0 q 770 5 760 31 q 750 56 750 106 l 750 106 l 750 395 q 750 470 659 472 l 659 472 l 659 0 l 372 0 z "},"З":{"ha":736,"x_min":41,"x_max":687,"o":"m 564 622 l 564 622 q 626 601 656 553 q 687 505 687 329 l 687 329 q 687 198 657 126 q 627 54 554 16 q 481 -22 366 -22 l 366 -22 q 236 -22 162 22 q 87 66 64 129 q 41 193 41 349 l 41 349 l 41 436 l 315 436 l 315 258 q 315 186 323 167 q 332 148 361 148 l 361 148 q 393 148 403 172 q 413 197 413 300 l 413 300 l 413 376 q 413 439 399 468 q 385 497 357 506 q 329 515 249 517 l 249 517 l 249 676 q 347 676 370 684 q 393 691 403 716 q 413 741 413 795 l 413 795 l 413 856 q 413 913 401 932 q 389 950 364 950 l 364 950 q 336 950 325 931 q 315 911 315 848 l 315 848 l 315 758 l 41 758 l 41 852 q 41 1009 113 1064 q 184 1120 341 1120 l 341 1120 q 537 1120 607 1043 q 677 966 677 830 l 677 830 q 677 738 652 697 q 627 656 564 622 z "},"И":{"ha":751,"x_min":57,"x_max":694,"o":"m 694 1099 l 694 0 l 456 0 l 456 500 l 307 0 l 57 0 l 57 1099 l 296 1099 l 296 603 l 456 1099 l 694 1099 z "},"Й":{"ha":751,"x_min":57,"x_max":694,"o":"m 694 1099 l 694 0 l 456 0 l 456 500 l 307 0 l 57 0 l 57 1099 l 296 1099 l 296 603 l 456 1099 l 694 1099 z m 451 1337 l 451 1337 l 566 1337 q 562 1245 512 1189 q 463 1133 374 1133 l 374 1133 q 284 1133 235 1189 q 186 1246 182 1337 l 182 1337 l 297 1337 q 305 1244 374 1244 l 374 1244 q 443 1244 451 1337 z "},"К":{"ha":745,"x_min":57,"x_max":743,"o":"m 57 0 l 57 1099 l 343 1099 l 345 635 q 425 637 428 724 l 428 724 l 433 939 q 436 1057 479 1099 l 479 1099 l 743 1099 q 705 1059 705 933 l 705 933 l 707 745 q 708 574 514 550 l 514 550 q 708 526 707 353 l 707 353 l 705 178 q 705 53 743 0 l 743 0 l 479 0 q 433 41 433 160 l 433 160 l 433 374 q 433 415 409 440 q 384 465 345 465 l 345 465 l 343 0 l 57 0 z "},"Л":{"ha":811,"x_min":7,"x_max":754,"o":"m 754 1099 l 754 0 l 468 0 l 468 879 l 385 879 l 385 257 q 385 134 353 81 q 321 27 257 14 q 193 0 52 0 l 52 0 l 7 0 l 7 189 q 59 189 79 202 q 98 215 98 290 l 98 290 l 98 1099 l 754 1099 z "},"М":{"ha":996,"x_min":57,"x_max":938,"o":"m 566 1098 l 938 1098 l 938 0 l 688 0 l 688 741 l 589 0 l 412 0 l 307 724 l 307 0 l 57 0 l 57 1098 l 427 1098 q 443 999 461 865 l 461 865 l 500 585 l 566 1098 z "},"Н":{"ha":771,"x_min":57,"x_max":713,"o":"m 428 1098 l 713 1098 l 713 0 l 428 0 l 428 461 l 342 461 l 342 0 l 57 0 l 57 1098 l 342 1098 l 342 705 l 428 705 l 428 1098 z "},"О":{"ha":759,"x_min":49,"x_max":709,"o":"m 709 643 l 709 455 q 709 290 702 221 q 694 152 653 95 q 612 38 542 7 q 472 -23 379 -23 l 379 -23 q 291 -23 221 6 q 151 35 108 92 q 65 150 57 218 q 49 286 49 455 l 49 455 l 49 643 q 49 808 57 877 q 64 946 105 1003 q 146 1060 216 1090 q 286 1121 379 1121 l 379 1121 q 467 1121 537 1092 q 608 1063 650 1006 q 693 948 701 880 q 709 812 709 643 l 709 643 z m 424 311 l 424 816 q 424 892 415 914 q 407 935 380 935 l 380 935 q 358 935 346 918 q 334 901 334 816 l 334 816 l 334 303 q 334 208 342 185 q 350 163 378 163 l 378 163 q 408 163 416 189 q 424 214 424 311 l 424 311 z "},"П":{"ha":771,"x_min":57,"x_max":714,"o":"m 714 1099 l 714 0 l 428 0 l 428 879 l 343 879 l 343 0 l 57 0 l 57 1099 l 714 1099 z "},"Р":{"ha":697,"x_min":57,"x_max":672,"o":"m 57 0 l 57 1098 l 345 1098 q 461 1098 524 1080 q 587 1061 618 1027 q 650 992 661 943 q 672 894 672 791 l 672 791 l 672 695 q 672 590 650 542 q 629 494 571 468 q 513 442 419 442 l 419 442 l 342 442 l 342 0 l 57 0 z m 342 910 l 342 910 l 342 631 q 355 630 363 630 l 363 630 q 403 630 418 649 q 433 669 433 730 l 433 730 l 433 820 q 433 876 416 893 q 398 910 342 910 z "}}}
